Asap-Regular.ufo
<glyph name="quotedbl" format="1">
  <advance width="319"/>
  <unicode hex="0022"/>
  <outline>
    <contour>
      <point x="218" y="702" type="line" smooth="yes"/>
      <point x="190" y="702"/>
      <point x="178" y="694"/>
      <point x="178" y="680" type="curve" smooth="yes"/>
      <point x="178" y="668" type="line"/>
      <point x="200" y="484" type="line"/>
      <point x="202" y="476"/>
      <point x="209" y="472"/>
      <point x="222" y="472" type="curve"/>
      <point x="223" y="472" type="line"/>
      <point x="236" y="472"/>
      <point x="243" y="476"/>
      <point x="245" y="484" type="curve"/>
      <point x="253" y="549"/>
      <point x="268" y="671"/>
      <point x="268" y="680" type="curve"/>
      <point x="268" y="694"/>
      <point x="256" y="702"/>
      <point x="228" y="702" type="curve" smooth="yes"/>
    </contour>
    <contour>
      <point x="90" y="702" type="line" smooth="yes"/>
      <point x="62" y="702"/>
      <point x="50" y="694"/>
      <point x="50" y="680" type="curve" smooth="yes"/>
      <point x="50" y="668" type="line"/>
      <point x="72" y="484" type="line"/>
      <point x="74" y="476"/>
      <point x="81" y="472"/>
      <point x="94" y="472" type="curve"/>
      <point x="95" y="472" type="line"/>
      <point x="108" y="472"/>
      <point x="115" y="476"/>
      <point x="117" y="484" type="curve"/>
      <point x="125" y="549"/>
      <point x="140" y="671"/>
      <point x="140" y="680" type="curve"/>
      <point x="140" y="694"/>
      <point x="128" y="702"/>
      <point x="100" y="702" type="curve" smooth="yes"/>
    </contour>
  </outline>
</glyph>
<glyph name="ampersand" format="1">
  <advance width="624"/>
  <unicode hex="0026"/>
  <outline>
    <contour>
      <point x="159" y="706"/>
      <point x="73" y="651"/>
      <point x="73" y="538" type="curve" smooth="yes"/>
      <point x="73" y="464"/>
      <point x="120" y="413"/>
      <point x="176" y="391" type="curve"/>
      <point x="176" y="387" type="line"/>
      <point x="116" y="371"/>
      <point x="50" y="308"/>
      <point x="50" y="203" type="curve" smooth="yes"/>
      <point x="50" y="49"/>
      <point x="174" y="-6"/>
      <point x="273" y="-6" type="curve" smooth="yes"/>
      <point x="347" y="-6"/>
      <point x="403" y="17"/>
      <point x="436" y="37" type="curve"/>
      <point x="464" y="2"/>
      <point x="507" y="-6"/>
      <point x="538" y="-6" type="curve" smooth="yes"/>
      <point x="565" y="-6"/>
      <point x="611" y="-3"/>
      <point x="611" y="24" type="curve" smooth="yes"/>
      <point x="611" y="32"/>
      <point x="604" y="71"/>
      <point x="590" y="71" type="curve" smooth="yes"/>
      <point x="581" y="71"/>
      <point x="576" y="66"/>
      <point x="547" y="66" type="curve" smooth="yes"/>
      <point x="518" y="66"/>
      <point x="493" y="80"/>
      <point x="493" y="140" type="curve" smooth="yes"/>
      <point x="493" y="336" type="line"/>
      <point x="577" y="336" type="line" smooth="yes"/>
      <point x="591" y="336"/>
      <point x="597" y="345"/>
      <point x="597" y="366" type="curve" smooth="yes"/>
      <point x="597" y="378" type="line" smooth="yes"/>
      <point x="597" y="399"/>
      <point x="591" y="408"/>
      <point x="577" y="408" type="curve" smooth="yes"/>
      <point x="493" y="408" type="line"/>
      <point x="493" y="513" type="line" smooth="yes"/>
      <point x="493" y="527"/>
      <point x="484" y="535"/>
      <point x="463" y="535" type="curve" smooth="yes"/>
      <point x="453" y="535" type="line" smooth="yes"/>
      <point x="432" y="535"/>
      <point x="422" y="527"/>
      <point x="421" y="513" type="curve" smooth="yes"/>
      <point x="409" y="408" type="line"/>
      <point x="291" y="408" type="line" smooth="yes"/>
      <point x="194" y="408"/>
      <point x="157" y="479"/>
      <point x="157" y="529" type="curve" smooth="yes"/>
      <point x="157" y="566"/>
      <point x="173" y="634"/>
      <point x="277" y="634" type="curve" smooth="yes"/>
      <point x="309" y="634"/>
      <point x="330" y="625"/>
      <point x="338" y="625" type="curve" smooth="yes"/>
      <point x="354" y="625"/>
      <point x="360" y="670"/>
      <point x="360" y="674" type="curve" smooth="yes"/>
      <point x="360" y="701"/>
      <point x="308" y="706"/>
      <point x="275" y="706" type="curve" smooth="yes"/>
    </contour>
    <contour>
      <point x="409" y="132" type="line" smooth="yes"/>
      <point x="409" y="111"/>
      <point x="411" y="95"/>
      <point x="417" y="78" type="curve"/>
      <point x="426" y="112" type="line"/>
      <point x="398" y="94"/>
      <point x="339" y="66"/>
      <point x="281" y="66" type="curve" smooth="yes"/>
      <point x="221" y="66"/>
      <point x="137" y="95"/>
      <point x="137" y="204" type="curve" smooth="yes"/>
      <point x="137" y="306"/>
      <point x="197" y="336"/>
      <point x="287" y="336" type="curve" smooth="yes"/>
      <point x="409" y="336" type="line"/>
    </contour>
  </outline>
</glyph>
<glyph name="hyphen" format="1">
  <advance width="320"/>
  <unicode hex="002D"/>
  <outline>
    <contour>
      <point x="64" y="300" type="line" smooth="yes"/>
      <point x="50" y="300"/>
      <point x="44" y="291"/>
      <point x="44" y="270" type="curve" smooth="yes"/>
      <point x="44" y="260" type="line" smooth="yes"/>
      <point x="44" y="239"/>
      <point x="50" y="230"/>
      <point x="64" y="230" type="curve"/>
      <point x="253" y="230" type="line" smooth="yes"/>
      <point x="267" y="230"/>
      <point x="273" y="239"/>
      <point x="273" y="260" type="curve" smooth="yes"/>
      <point x="273" y="270" type="line" smooth="yes"/>
      <point x="273" y="291"/>
      <point x="267" y="300"/>
      <point x="253" y="300" type="curve" smooth="yes"/>
    </contour>
  </outline>
</glyph>
<glyph name="slash" format="1">
  <advance width="370"/>
  <unicode hex="002F"/>
  <outline>
    <contour>
      <point x="338" y="703" type="line" smooth="yes"/>
      <point x="321" y="703"/>
      <point x="310" y="696"/>
      <point x="303" y="680" type="curve" smooth="yes"/>
      <point x="-7" y="-41" type="line" smooth="yes"/>
      <point x="-9" y="-46"/>
      <point x="-10" y="-51"/>
      <point x="-10" y="-56" type="curve" smooth="yes"/>
      <point x="-10" y="-68"/>
      <point x="-1" y="-76"/>
      <point x="16" y="-76" type="curve" smooth="yes"/>
      <point x="20" y="-76" type="line" smooth="yes"/>
      <point x="37" y="-76"/>
      <point x="46" y="-69"/>
      <point x="53" y="-53" type="curve" smooth="yes"/>
      <point x="363" y="668" type="line" smooth="yes"/>
      <point x="365" y="673"/>
      <point x="366" y="678"/>
      <point x="366" y="683" type="curve" smooth="yes"/>
      <point x="366" y="695"/>
      <point x="359" y="703"/>
      <point x="342" y="703" type="curve" smooth="yes"/>
    </contour>
  </outline>
</glyph>
<glyph name="zero" format="1">
  <advance width="535"/>
  <unicode hex="0030"/>
  <outline>
    <contour>
      <point x="146" y="706"/>
      <point x="39" y="599"/>
      <point x="39" y="350" type="curve" smooth="yes"/>
      <point x="39" y="101"/>
      <point x="146" y="-6"/>
      <point x="266" y="-6" type="curve" smooth="yes"/>
      <point x="387" y="-6"/>
      <point x="495" y="101"/>
      <point x="495" y="350" type="curve" smooth="yes"/>
      <point x="495" y="599"/>
      <point x="387" y="706"/>
      <point x="266" y="706" type="curve" smooth="yes"/>
    </contour>
    <contour>
      <point x="338" y="634"/>
      <point x="410" y="559"/>
      <point x="410" y="350" type="curve" smooth="yes"/>
      <point x="410" y="141"/>
      <point x="338" y="66"/>
      <point x="266" y="66" type="curve" smooth="yes"/>
      <point x="194" y="66"/>
      <point x="124" y="141"/>
      <point x="124" y="350" type="curve" smooth="yes"/>
      <point x="124" y="559"/>
      <point x="194" y="634"/>
      <point x="266" y="634" type="curve" smooth="yes"/>
    </contour>
  </outline>
</glyph>
<glyph name="one" format="1">
  <advance width="535"/>
  <unicode hex="0031"/>
  <outline>
    <contour>
      <point x="58" y="651" type="line" smooth="yes"/>
      <point x="46" y="648"/>
      <point x="40" y="643"/>
      <point x="40" y="632" type="curve" smooth="yes"/>
      <point x="40" y="614"/>
      <point x="46" y="581"/>
      <point x="60" y="581" type="curve"/>
      <point x="237" y="611" type="line"/>
      <point x="237" y="72" type="line"/>
      <point x="63" y="72" type="line" smooth="yes"/>
      <point x="49" y="72"/>
      <point x="43" y="63"/>
      <point x="43" y="42" type="curve" smooth="yes"/>
      <point x="43" y="30" type="line" smooth="yes"/>
      <point x="43" y="9"/>
      <point x="49" y="0"/>
      <point x="63" y="0" type="curve" smooth="yes"/>
      <point x="469" y="0" type="line" smooth="yes"/>
      <point x="483" y="0"/>
      <point x="489" y="9"/>
      <point x="489" y="30" type="curve" smooth="yes"/>
      <point x="489" y="42" type="line" smooth="yes"/>
      <point x="489" y="63"/>
      <point x="483" y="72"/>
      <point x="469" y="72" type="curve" smooth="yes"/>
      <point x="321" y="72" type="line"/>
      <point x="321" y="681" type="line" smooth="yes"/>
      <point x="321" y="693"/>
      <point x="305" y="702"/>
      <point x="290" y="702" type="curve"/>
    </contour>
  </outline>
</glyph>
<glyph name="three" format="1">
  <advance width="535"/>
  <unicode hex="0033"/>
  <outline>
    <contour>
      <point x="183" y="706"/>
      <point x="65" y="683"/>
      <point x="65" y="653" type="curve" smooth="yes"/>
      <point x="65" y="638"/>
      <point x="87" y="601"/>
      <point x="98" y="601" type="curve" smooth="yes"/>
      <point x="115" y="601"/>
      <point x="151" y="634"/>
      <point x="242" y="634" type="curve" smooth="yes"/>
      <point x="339" y="634"/>
      <point x="361" y="576"/>
      <point x="361" y="538" type="curve" smooth="yes"/>
      <point x="361" y="490"/>
      <point x="331" y="407"/>
      <point x="228" y="407" type="curve" smooth="yes"/>
      <point x="199" y="407" type="line" smooth="yes"/>
      <point x="185" y="407"/>
      <point x="179" y="398"/>
      <point x="179" y="377" type="curve" smooth="yes"/>
      <point x="179" y="366" type="line" smooth="yes"/>
      <point x="179" y="345"/>
      <point x="185" y="336"/>
      <point x="199" y="336" type="curve" smooth="yes"/>
      <point x="232" y="336" type="line" smooth="yes"/>
      <point x="322" y="336"/>
      <point x="382" y="306"/>
      <point x="382" y="204" type="curve" smooth="yes"/>
      <point x="382" y="95"/>
      <point x="298" y="66"/>
      <point x="238" y="66" type="curve" smooth="yes"/>
      <point x="149" y="66"/>
      <point x="99" y="101"/>
      <point x="80" y="101" type="curve" smooth="yes"/>
      <point x="69" y="101"/>
      <point x="45" y="70"/>
      <point x="45" y="51" type="curve" smooth="yes"/>
      <point x="45" y="26"/>
      <point x="129" y="-6"/>
      <point x="246" y="-6" type="curve" smooth="yes"/>
      <point x="345" y="-6"/>
      <point x="469" y="49"/>
      <point x="469" y="203" type="curve" smooth="yes"/>
      <point x="469" y="308"/>
      <point x="403" y="371"/>
      <point x="343" y="387" type="curve"/>
      <point x="343" y="391" type="line"/>
      <point x="396" y="412"/>
      <point x="446" y="459"/>
      <point x="446" y="529" type="curve" smooth="yes"/>
      <point x="446" y="648"/>
      <point x="363" y="706"/>
      <point x="244" y="706" type="curve" smooth="yes"/>
    </contour>
  </outline>
</glyph>
<glyph name="four" format="1">
  <advance width="535"/>
  <unicode hex="0034"/>
  <outline>
    <contour>
      <point x="383" y="702" type="line" smooth="yes"/>
      <point x="369" y="702"/>
      <point x="356" y="697"/>
      <point x="349" y="688" type="curve" smooth="yes"/>
      <point x="20" y="229" type="line" smooth="yes"/>
      <point x="18" y="227"/>
      <point x="18" y="223"/>
      <point x="18" y="218" type="curve" smooth="yes"/>
      <point x="18" y="199"/>
      <point x="31" y="167"/>
      <point x="42" y="167" type="curve"/>
      <point x="346" y="167" type="line"/>
      <point x="346" y="20" type="line" smooth="yes"/>
      <point x="346" y="6"/>
      <point x="355" y="-2"/>
      <point x="376" y="-2" type="curve" smooth="yes"/>
      <point x="399" y="-2" type="line" smooth="yes"/>
      <point x="420" y="-2"/>
      <point x="429" y="6"/>
      <point x="429" y="20" type="curve" smooth="yes"/>
      <point x="429" y="167" type="line"/>
      <point x="496" y="167" type="line" smooth="yes"/>
      <point x="510" y="167"/>
      <point x="516" y="176"/>
      <point x="516" y="197" type="curve" smooth="yes"/>
      <point x="516" y="209" type="line" smooth="yes"/>
      <point x="516" y="230"/>
      <point x="510" y="239"/>
      <point x="496" y="239" type="curve" smooth="yes"/>
      <point x="429" y="239" type="line"/>
      <point x="429" y="680" type="line" smooth="yes"/>
      <point x="429" y="694"/>
      <point x="420" y="702"/>
      <point x="399" y="702" type="curve" smooth="yes"/>
    </contour>
    <contour>
      <point x="346" y="557" type="line"/>
      <point x="346" y="239" type="line"/>
      <point x="117" y="239" type="line"/>
      <point x="342" y="559" type="line"/>
    </contour>
  </outline>
</glyph>
<glyph name="five" format="1">
  <advance width="535"/>
  <unicode hex="0035"/>
  <outline>
    <contour>
      <point x="144" y="700" type="line" smooth="yes"/>
      <point x="123" y="700"/>
      <point x="113" y="691"/>
      <point x="112" y="670" type="curve" smooth="yes"/>
      <point x="95" y="380" type="line"/>
      <point x="95" y="359"/>
      <point x="101" y="350"/>
      <point x="123" y="350" type="curve" smooth="yes"/>
      <point x="208" y="350" type="line" smooth="yes"/>
      <point x="325" y="350"/>
      <point x="388" y="302"/>
      <point x="388" y="213" type="curve" smooth="yes"/>
      <point x="388" y="114"/>
      <point x="314" y="66"/>
      <point x="233" y="66" type="curve" smooth="yes"/>
      <point x="146" y="66"/>
      <point x="101" y="104"/>
      <point x="82" y="104" type="curve" smooth="yes"/>
      <point x="71" y="104"/>
      <point x="47" y="73"/>
      <point x="47" y="54" type="curve" smooth="yes"/>
      <point x="47" y="29"/>
      <point x="123" y="-6"/>
      <point x="234" y="-6" type="curve" smooth="yes"/>
      <point x="347" y="-6"/>
      <point x="474" y="39"/>
      <point x="474" y="213" type="curve" smooth="yes"/>
      <point x="474" y="375"/>
      <point x="340" y="422"/>
      <point x="232" y="422" type="curve" smooth="yes"/>
      <point x="180" y="422" type="line"/>
      <point x="193" y="628" type="line"/>
      <point x="410" y="628" type="line" smooth="yes"/>
      <point x="424" y="628"/>
      <point x="430" y="637"/>
      <point x="430" y="658" type="curve" smooth="yes"/>
      <point x="430" y="670" type="line" smooth="yes"/>
      <point x="430" y="691"/>
      <point x="424" y="700"/>
      <point x="410" y="700" type="curve" smooth="yes"/>
    </contour>
  </outline>
</glyph>
<glyph name="less" format="1">
  <advance width="560"/>
  <unicode hex="003C"/>
  <outline>
    <contour>
      <point x="487" y="448"/>
      <point x="482" y="447"/>
      <point x="477" y="445" type="curve" smooth="yes"/>
      <point x="66" y="271" type="line" smooth="yes"/>
      <point x="50" y="264"/>
      <point x="41" y="253"/>
      <point x="41" y="236" type="curve" smooth="yes"/>
      <point x="41" y="219" type="line" smooth="yes"/>
      <point x="41" y="202"/>
      <point x="50" y="191"/>
      <point x="66" y="184" type="curve"/>
      <point x="477" y="10" type="line" smooth="yes"/>
      <point x="482" y="8"/>
      <point x="487" y="7"/>
      <point x="492" y="7" type="curve" smooth="yes"/>
      <point x="504" y="7"/>
      <point x="513" y="16"/>
      <point x="513" y="33" type="curve" smooth="yes"/>
      <point x="513" y="47" type="line" smooth="yes"/>
      <point x="513" y="64"/>
      <point x="505" y="75"/>
      <point x="489" y="82" type="curve" smooth="yes"/>
      <point x="133" y="228" type="line"/>
      <point x="489" y="373" type="line" smooth="yes"/>
      <point x="505" y="379"/>
      <point x="513" y="391"/>
      <point x="513" y="408" type="curve" smooth="yes"/>
      <point x="513" y="422" type="line" smooth="yes"/>
      <point x="513" y="439"/>
      <point x="504" y="448"/>
      <point x="492" y="448" type="curve" smooth="yes"/>
    </contour>
  </outline>
</glyph>
<glyph name="greater" format="1">
  <advance width="560"/>
  <unicode hex="003E"/>
  <outline>
    <contour>
      <point x="55" y="447"/>
      <point x="46" y="438"/>
      <point x="46" y="421" type="curve" smooth="yes"/>
      <point x="46" y="407" type="line" smooth="yes"/>
      <point x="46" y="390"/>
      <point x="54" y="378"/>
      <point x="70" y="372" type="curve" smooth="yes"/>
      <point x="426" y="227" type="line"/>
      <point x="70" y="81" type="line" smooth="yes"/>
      <point x="54" y="74"/>
      <point x="46" y="63"/>
      <point x="46" y="46" type="curve" smooth="yes"/>
      <point x="46" y="32" type="line" smooth="yes"/>
      <point x="46" y="15"/>
      <point x="55" y="6"/>
      <point x="67" y="6" type="curve" smooth="yes"/>
      <point x="72" y="6"/>
      <point x="77" y="7"/>
      <point x="82" y="9" type="curve" smooth="yes"/>
      <point x="493" y="183" type="line" smooth="yes"/>
      <point x="509" y="190"/>
      <point x="518" y="201"/>
      <point x="518" y="218" type="curve" smooth="yes"/>
      <point x="518" y="235" type="line" smooth="yes"/>
      <point x="518" y="252"/>
      <point x="509" y="263"/>
      <point x="493" y="270" type="curve" smooth="yes"/>
      <point x="82" y="444" type="line" smooth="yes"/>
      <point x="77" y="446"/>
      <point x="72" y="447"/>
      <point x="67" y="447" type="curve" smooth="yes"/>
    </contour>
  </outline>
</glyph>
<glyph name="question" format="1">
  <advance width="445"/>
  <unicode hex="003F"/>
  <outline>
    <contour>
      <point x="147" y="706"/>
      <point x="48" y="683"/>
      <point x="48" y="649" type="curve" smooth="yes"/>
      <point x="48" y="635"/>
      <point x="70" y="598"/>
      <point x="80" y="598" type="curve" smooth="yes"/>
      <point x="95" y="598"/>
      <point x="141" y="632"/>
      <point x="204" y="632" type="curve" smooth="yes"/>
      <point x="287" y="632"/>
      <point x="330" y="598"/>
      <point x="330" y="528" type="curve" smooth="yes"/>
      <point x="330" y="478"/>
      <point x="286" y="435"/>
      <point x="235" y="384" type="curve" smooth="yes"/>
      <point x="180" y="329"/>
      <point x="149" y="270"/>
      <point x="149" y="225" type="curve" smooth="yes"/>
      <point x="149" y="211"/>
      <point x="158" y="202"/>
      <point x="179" y="202" type="curve" smooth="yes"/>
      <point x="194" y="202" type="line" smooth="yes"/>
      <point x="218" y="202"/>
      <point x="225" y="209"/>
      <point x="227" y="222" type="curve" smooth="yes"/>
      <point x="242" y="338"/>
      <point x="425" y="403"/>
      <point x="425" y="538" type="curve" smooth="yes"/>
      <point x="425" y="628"/>
      <point x="353" y="706"/>
      <point x="220" y="706" type="curve" smooth="yes"/>
    </contour>
    <contour>
      <point x="176" y="108" type="line" smooth="yes"/>
      <point x="148" y="108"/>
      <point x="136" y="100"/>
      <point x="136" y="86" type="curve" smooth="yes"/>
      <point x="136" y="20" type="line" smooth="yes"/>
      <point x="136" y="6"/>
      <point x="148" y="-2"/>
      <point x="176" y="-2" type="curve" smooth="yes"/>
      <point x="193" y="-2" type="line" smooth="yes"/>
      <point x="221" y="-2"/>
      <point x="233" y="6"/>
      <point x="233" y="20" type="curve" smooth="yes"/>
      <point x="233" y="86" type="line" smooth="yes"/>
      <point x="233" y="100"/>
      <point x="221" y="108"/>
      <point x="193" y="108" type="curve" smooth="yes"/>
    </contour>
  </outline>
</glyph>
<glyph name="at" format="1">
  <advance width="974"/>
  <unicode hex="0040"/>
  <outline>
    <contour>
      <point x="281" y="705"/>
      <point x="84" y="500"/>
      <point x="84" y="237" type="curve" smooth="yes"/>
      <point x="84" y="21"/>
      <point x="216" y="-126"/>
      <point x="410" y="-126" type="curve" smooth="yes"/>
      <point x="461" y="-126"/>
      <point x="578" y="-115"/>
      <point x="578" y="-76" type="curve" smooth="yes"/>
      <point x="578" y="-60"/>
      <point x="573" y="-53"/>
      <point x="564" y="-53" type="curve" smooth="yes"/>
      <point x="540" y="-53"/>
      <point x="507" y="-82"/>
      <point x="410" y="-82" type="curve" smooth="yes"/>
      <point x="248" y="-82"/>
      <point x="138" y="47"/>
      <point x="138" y="237" type="curve" smooth="yes"/>
      <point x="138" y="475"/>
      <point x="312" y="661"/>
      <point x="534" y="661" type="curve" smooth="yes"/>
      <point x="701" y="661"/>
      <point x="813" y="549"/>
      <point x="813" y="380" type="curve" smooth="yes"/>
      <point x="813" y="235"/>
      <point x="744" y="107"/>
      <point x="670" y="107" type="curve" smooth="yes"/>
      <point x="660" y="107"/>
      <point x="630" y="107"/>
      <point x="630" y="149" type="curve" smooth="yes"/>
      <point x="630" y="173"/>
      <point x="663" y="481"/>
      <point x="663" y="481" type="curve"/>
      <point x="663" y="494"/>
      <point x="657" y="502"/>
      <point x="641" y="502" type="curve" smooth="yes"/>
      <point x="635" y="502" type="line" smooth="yes"/>
      <point x="610" y="502"/>
      <point x="611" y="487"/>
      <point x="600" y="458" type="curve"/>
      <point x="582" y="476"/>
      <point x="544" y="505"/>
      <point x="489" y="505" type="curve" smooth="yes"/>
      <point x="361" y="505"/>
      <point x="278" y="393"/>
      <point x="278" y="236" type="curve" smooth="yes"/>
      <point x="278" y="89"/>
      <point x="366" y="54"/>
      <point x="423" y="54" type="curve" smooth="yes"/>
      <point x="482" y="54"/>
      <point x="537" y="88"/>
      <point x="573" y="175" type="curve"/>
      <point x="558" y="182" type="line"/>
      <point x="558" y="137" type="line" smooth="yes"/>
      <point x="558" y="93"/>
      <point x="594" y="54"/>
      <point x="657" y="54" type="curve" smooth="yes"/>
      <point x="781" y="54"/>
      <point x="867" y="198"/>
      <point x="867" y="380" type="curve" smooth="yes"/>
      <point x="867" y="576"/>
      <point x="735" y="705"/>
      <point x="534" y="705" type="curve" smooth="yes"/>
    </contour>
    <contour>
      <point x="539" y="443"/>
      <point x="570" y="423"/>
      <point x="587" y="409" type="curve"/>
      <point x="580" y="386"/>
      <point x="573" y="307"/>
      <point x="568" y="256" type="curve"/>
      <point x="532" y="146"/>
      <point x="477" y="115"/>
      <point x="439" y="115" type="curve" smooth="yes"/>
      <point x="391" y="115"/>
      <point x="351" y="145"/>
      <point x="351" y="241" type="curve" smooth="yes"/>
      <point x="351" y="342"/>
      <point x="380" y="443"/>
      <point x="495" y="443" type="curve" smooth="yes"/>
    </contour>
  </outline>
</glyph>
<glyph name="B" format="1">
  <advance width="593"/>
  <unicode hex="0042"/>
  <outline>
    <contour>
      <point x="127" y="700" type="line" smooth="yes"/>
      <point x="106" y="700"/>
      <point x="97" y="691"/>
      <point x="97" y="670" type="curve" smooth="yes"/>
      <point x="97" y="30" type="line" smooth="yes"/>
      <point x="97" y="9"/>
      <point x="106" y="0"/>
      <point x="127" y="0" type="curve" smooth="yes"/>
      <point x="299" y="0" type="line" smooth="yes"/>
      <point x="467" y="0"/>
      <point x="560" y="62"/>
      <point x="560" y="201" type="curve" smooth="yes"/>
      <point x="560" y="333"/>
      <point x="420" y="367"/>
      <point x="420" y="367" type="curve"/>
      <point x="420" y="371" type="line"/>
      <point x="478" y="387"/>
      <point x="530" y="456"/>
      <point x="530" y="523" type="curve" smooth="yes"/>
      <point x="530" y="628"/>
      <point x="455" y="700"/>
      <point x="306" y="700" type="curve" smooth="yes"/>
    </contour>
    <contour>
      <point x="417" y="322"/>
      <point x="469" y="278"/>
      <point x="469" y="205" type="curve" smooth="yes"/>
      <point x="469" y="126"/>
      <point x="420" y="76"/>
      <point x="331" y="76" type="curve" smooth="yes"/>
      <point x="185" y="76" type="line"/>
      <point x="185" y="322" type="line"/>
      <point x="314" y="322" type="line" smooth="yes"/>
    </contour>
    <contour>
      <point x="397" y="624"/>
      <point x="439" y="589"/>
      <point x="439" y="515" type="curve" smooth="yes"/>
      <point x="439" y="450"/>
      <point x="382" y="398"/>
      <point x="301" y="398" type="curve" smooth="yes"/>
      <point x="185" y="398" type="line"/>
      <point x="185" y="624" type="line"/>
      <point x="297" y="624" type="line" smooth="yes"/>
    </contour>
  </outline>
</glyph>
<glyph name="C" format="1">
  <advance width="619"/>
  <unicode hex="0043"/>
  <outline>
    <contour>
      <point x="167" y="706"/>
      <point x="57" y="589"/>
      <point x="57" y="350" type="curve" smooth="yes"/>
      <point x="57" y="106"/>
      <point x="160" y="-6"/>
      <point x="379" y="-6" type="curve" smooth="yes"/>
      <point x="496" y="-6"/>
      <point x="586" y="39"/>
      <point x="586" y="66" type="curve" smooth="yes"/>
      <point x="586" y="78"/>
      <point x="564" y="120"/>
      <point x="551" y="120" type="curve" smooth="yes"/>
      <point x="538" y="120"/>
      <point x="482" y="70"/>
      <point x="379" y="70" type="curve" smooth="yes"/>
      <point x="222" y="70"/>
      <point x="148" y="157"/>
      <point x="148" y="349" type="curve" smooth="yes"/>
      <point x="148" y="546"/>
      <point x="223" y="630"/>
      <point x="383" y="630" type="curve" smooth="yes"/>
      <point x="479" y="630"/>
      <point x="527" y="586"/>
      <point x="538" y="586" type="curve" smooth="yes"/>
      <point x="551" y="586"/>
      <point x="572" y="627"/>
      <point x="572" y="644" type="curve" smooth="yes"/>
      <point x="572" y="671"/>
      <point x="480" y="706"/>
      <point x="381" y="706" type="curve" smooth="yes"/>
    </contour>
    <contour>
      <point x="355" y="700" type="move" name="top"/>
    </contour>
    <contour>
      <point x="361" y="0" type="move" name="bottom"/>
    </contour>
  </outline>
</glyph>
<glyph name="D" format="1">
  <advance width="695"/>
  <unicode hex="0044"/>
  <outline>
    <contour>
      <point x="127" y="700" type="line" smooth="yes"/>
      <point x="106" y="700"/>
      <point x="97" y="691"/>
      <point x="97" y="670" type="curve" smooth="yes"/>
      <point x="97" y="30" type="line" smooth="yes"/>
      <point x="97" y="9"/>
      <point x="106" y="0"/>
      <point x="127" y="0" type="curve" smooth="yes"/>
      <point x="329" y="0" type="line" smooth="yes"/>
      <point x="501" y="0"/>
      <point x="638" y="90"/>
      <point x="638" y="350" type="curve" smooth="yes"/>
      <point x="638" y="609"/>
      <point x="501" y="700"/>
      <point x="329" y="700" type="curve" smooth="yes"/>
    </contour>
    <contour>
      <point x="447" y="624"/>
      <point x="547" y="549"/>
      <point x="547" y="350" type="curve" smooth="yes"/>
      <point x="547" y="150"/>
      <point x="447" y="76"/>
      <point x="322" y="76" type="curve" smooth="yes"/>
      <point x="185" y="76" type="line"/>
      <point x="185" y="624" type="line"/>
      <point x="322" y="624" type="line" smooth="yes"/>
    </contour>
    <contour>
      <point x="348" y="350" type="move" name="center"/>
    </contour>
    <contour>
      <point x="327" y="0" type="move" name="bottom"/>
    </contour>
    <contour>
      <point x="312" y="700" type="move" name="top"/>
    </contour>
  </outline>
</glyph>
<glyph name="E" format="1">
  <advance width="546"/>
  <unicode hex="0045"/>
  <outline>
    <contour>
      <point x="127" y="700" type="line" smooth="yes"/>
      <point x="106" y="700"/>
      <point x="97" y="691"/>
      <point x="97" y="670" type="curve" smooth="yes"/>
      <point x="97" y="30" type="line" smooth="yes"/>
      <point x="97" y="9"/>
      <point x="106" y="0"/>
      <point x="127" y="0" type="curve" smooth="yes"/>
      <point x="477" y="0" type="line" smooth="yes"/>
      <point x="491" y="0"/>
      <point x="497" y="9"/>
      <point x="497" y="30" type="curve" smooth="yes"/>
      <point x="497" y="46" type="line" smooth="yes"/>
      <point x="497" y="67"/>
      <point x="491" y="76"/>
      <point x="477" y="76" type="curve" smooth="yes"/>
      <point x="185" y="76" type="line"/>
      <point x="185" y="320" type="line"/>
      <point x="446" y="320" type="line" smooth="yes"/>
      <point x="460" y="320"/>
      <point x="466" y="329"/>
      <point x="466" y="350" type="curve" smooth="yes"/>
      <point x="466" y="366" type="line" smooth="yes"/>
      <point x="466" y="387"/>
      <point x="460" y="396"/>
      <point x="446" y="396" type="curve" smooth="yes"/>
      <point x="185" y="396" type="line"/>
      <point x="185" y="624" type="line"/>
      <point x="476" y="624" type="line" smooth="yes"/>
      <point x="490" y="624"/>
      <point x="496" y="633"/>
      <point x="496" y="654" type="curve" smooth="yes"/>
      <point x="496" y="670" type="line" smooth="yes"/>
      <point x="496" y="691"/>
      <point x="490" y="700"/>
      <point x="476" y="700" type="curve" smooth="yes"/>
    </contour>
    <contour>
      <point x="477" y="0" type="move" name="ogonek"/>
    </contour>
    <contour>
      <point x="300" y="0" type="move" name="bottom"/>
    </contour>
    <contour>
      <point x="296" y="700" type="move" name="top"/>
    </contour>
  </outline>
</glyph>
<glyph name="K" format="1">
  <advance width="576"/>
  <unicode hex="004B"/>
  <outline>
    <contour>
      <point x="489" y="702" type="line" smooth="yes"/>
      <point x="467" y="702"/>
      <point x="444" y="699"/>
      <point x="435" y="688" type="curve" smooth="yes"/>
      <point x="189" y="374" type="line"/>
      <point x="185" y="374" type="line"/>
      <point x="185" y="680" type="line" smooth="yes"/>
      <point x="185" y="694"/>
      <point x="173" y="702"/>
      <point x="145" y="702" type="curve" smooth="yes"/>
      <point x="137" y="702" type="line" smooth="yes"/>
      <point x="109" y="702"/>
      <point x="97" y="694"/>
      <point x="97" y="680" type="curve" smooth="yes"/>
      <point x="97" y="20" type="line" smooth="yes"/>
      <point x="97" y="6"/>
      <point x="109" y="-2"/>
      <point x="137" y="-2" type="curve" smooth="yes"/>
      <point x="145" y="-2" type="line" smooth="yes"/>
      <point x="173" y="-2"/>
      <point x="185" y="6"/>
      <point x="185" y="20" type="curve" smooth="yes"/>
      <point x="185" y="333" type="line"/>
      <point x="189" y="333" type="line"/>
      <point x="475" y="11" type="line" smooth="yes"/>
      <point x="487" y="-2"/>
      <point x="508" y="-2"/>
      <point x="530" y="-2" type="curve" smooth="yes"/>
      <point x="542" y="-2" type="line" smooth="yes"/>
      <point x="573" y="-2"/>
      <point x="586" y="1"/>
      <point x="586" y="12" type="curve" smooth="yes"/>
      <point x="586" y="16"/>
      <point x="584" y="20"/>
      <point x="577" y="28" type="curve" smooth="yes"/>
      <point x="274" y="357" type="line"/>
      <point x="524" y="669" type="line" smooth="yes"/>
      <point x="531" y="677"/>
      <point x="534" y="684"/>
      <point x="534" y="689" type="curve" smooth="yes"/>
      <point x="534" y="696"/>
      <point x="523" y="702"/>
      <point x="499" y="702" type="curve" smooth="yes"/>
    </contour>
    <contour>
      <point x="288" y="700" type="move" name="top"/>
    </contour>
    <contour>
      <point x="288" y="0" type="move" name="bottom"/>
    </contour>
  </outline>
</glyph>
<glyph name="M" format="1">
  <advance width="843"/>
  <unicode hex="004D"/>
  <outline>
    <contour>
      <point x="680" y="702" type="line" smooth="yes"/>
      <point x="656" y="702"/>
      <point x="644" y="695"/>
      <point x="638" y="684" type="curve" smooth="yes"/>
      <point x="449" y="350" type="line"/>
      <point x="423" y="293" type="line"/>
      <point x="397" y="356" type="line"/>
      <point x="208" y="684" type="line" smooth="yes"/>
      <point x="202" y="695"/>
      <point x="190" y="702"/>
      <point x="166" y="702" type="curve" smooth="yes"/>
      <point x="130" y="702" type="line" smooth="yes"/>
      <point x="102" y="702"/>
      <point x="90" y="694"/>
      <point x="90" y="680" type="curve" smooth="yes"/>
      <point x="90" y="20" type="line" smooth="yes"/>
      <point x="90" y="6"/>
      <point x="102" y="-2"/>
      <point x="130" y="-2" type="curve" smooth="yes"/>
      <point x="137" y="-2" type="line" smooth="yes"/>
      <point x="165" y="-2"/>
      <point x="177" y="6"/>
      <point x="177" y="20" type="curve" smooth="yes"/>
      <point x="177" y="564" type="line"/>
      <point x="179" y="560" type="line"/>
      <point x="381" y="208" type="line" smooth="yes"/>
      <point x="386" y="199"/>
      <point x="393" y="195"/>
      <point x="403" y="195" type="curve" smooth="yes"/>
      <point x="443" y="195" type="line" smooth="yes"/>
      <point x="454" y="195"/>
      <point x="460" y="199"/>
      <point x="465" y="208" type="curve" smooth="yes"/>
      <point x="664" y="554" type="line"/>
      <point x="666" y="558" type="line"/>
      <point x="666" y="20" type="line" smooth="yes"/>
      <point x="666" y="6"/>
      <point x="678" y="-2"/>
      <point x="706" y="-2" type="curve" smooth="yes"/>
      <point x="713" y="-2" type="line" smooth="yes"/>
      <point x="741" y="-2"/>
      <point x="753" y="6"/>
      <point x="753" y="20" type="curve" smooth="yes"/>
      <point x="753" y="680" type="line" smooth="yes"/>
      <point x="753" y="694"/>
      <point x="741" y="702"/>
      <point x="713" y="702" type="curve" smooth="yes"/>
    </contour>
  </outline>
</glyph>
<glyph name="N" format="1">
  <advance width="719"/>
  <unicode hex="004E"/>
  <outline>
    <contour>
      <point x="582" y="702" type="line" smooth="yes"/>
      <point x="554" y="702"/>
      <point x="542" y="694"/>
      <point x="542" y="680" type="curve" smooth="yes"/>
      <point x="542" y="145" type="line"/>
      <point x="512" y="201" type="line"/>
      <point x="193" y="683" type="line" smooth="yes"/>
      <point x="183" y="697"/>
      <point x="173" y="702"/>
      <point x="151" y="702" type="curve" smooth="yes"/>
      <point x="130" y="702" type="line" smooth="yes"/>
      <point x="102" y="702"/>
      <point x="90" y="694"/>
      <point x="90" y="680" type="curve" smooth="yes"/>
      <point x="90" y="20" type="line" smooth="yes"/>
      <point x="90" y="6"/>
      <point x="102" y="-2"/>
      <point x="130" y="-2" type="curve" smooth="yes"/>
      <point x="137" y="-2" type="line" smooth="yes"/>
      <point x="165" y="-2"/>
      <point x="177" y="6"/>
      <point x="177" y="20" type="curve" smooth="yes"/>
      <point x="177" y="561" type="line"/>
      <point x="204" y="510" type="line"/>
      <point x="534" y="12" type="line" smooth="yes"/>
      <point x="540" y="3"/>
      <point x="550" y="-2"/>
      <point x="569" y="-2" type="curve" smooth="yes"/>
      <point x="589" y="-2" type="line" smooth="yes"/>
      <point x="617" y="-2"/>
      <point x="629" y="6"/>
      <point x="629" y="20" type="curve" smooth="yes"/>
      <point x="629" y="680" type="line" smooth="yes"/>
      <point x="629" y="694"/>
      <point x="617" y="702"/>
      <point x="589" y="702" type="curve" smooth="yes"/>
    </contour>
    <contour>
      <point x="360" y="700" type="move" name="top"/>
    </contour>
    <contour>
      <point x="360" y="0" type="move" name="bottom"/>
    </contour>
  </outline>
</glyph>
<glyph name="U" format="1">
  <advance width="712"/>
  <unicode hex="0055"/>
  <outline>
    <contour>
      <point x="581" y="702" type="line" smooth="yes"/>
      <point x="553" y="702"/>
      <point x="541" y="694"/>
      <point x="541" y="680" type="curve" smooth="yes"/>
      <point x="541" y="221" type="line" smooth="yes"/>
      <point x="541" y="133"/>
      <point x="463" y="70"/>
      <point x="356" y="70" type="curve" smooth="yes"/>
      <point x="250" y="70"/>
      <point x="171" y="132"/>
      <point x="171" y="221" type="curve" smooth="yes"/>
      <point x="171" y="680" type="line" smooth="yes"/>
      <point x="171" y="694"/>
      <point x="159" y="702"/>
      <point x="131" y="702" type="curve" smooth="yes"/>
      <point x="123" y="702" type="line" smooth="yes"/>
      <point x="95" y="702"/>
      <point x="83" y="694"/>
      <point x="83" y="680" type="curve" smooth="yes"/>
      <point x="83" y="224" type="line" smooth="yes"/>
      <point x="83" y="80"/>
      <point x="179" y="-6"/>
      <point x="356" y="-6" type="curve" smooth="yes"/>
      <point x="532" y="-6"/>
      <point x="629" y="80"/>
      <point x="629" y="224" type="curve" smooth="yes"/>
      <point x="629" y="680" type="line" smooth="yes"/>
      <point x="629" y="694"/>
      <point x="617" y="702"/>
      <point x="589" y="702" type="curve" smooth="yes"/>
    </contour>
    <contour>
      <point x="431" y="0" type="move" name="ogonek"/>
    </contour>
    <contour>
      <point x="356" y="700" type="move" name="top"/>
    </contour>
    <contour>
      <point x="581" y="702" type="move" name="horn"/>
    </contour>
    <contour>
      <point x="357" y="0" type="move" name="bottom"/>
    </contour>
  </outline>
</glyph>
<glyph name="V" format="1">
  <advance width="617"/>
  <unicode hex="0056"/>
  <outline>
    <contour>
      <point x="547" y="702" type="line" smooth="yes"/>
      <point x="527" y="702"/>
      <point x="511" y="698"/>
      <point x="507" y="686" type="curve" smooth="yes"/>
      <point x="322" y="153" type="line"/>
      <point x="311" y="100" type="line"/>
      <point x="308" y="100" type="line"/>
      <point x="298" y="152" type="line"/>
      <point x="113" y="686" type="line" smooth="yes"/>
      <point x="109" y="698"/>
      <point x="93" y="702"/>
      <point x="73" y="702" type="curve" smooth="yes"/>
      <point x="64" y="702" type="line" smooth="yes"/>
      <point x="34" y="702"/>
      <point x="21" y="695"/>
      <point x="21" y="685" type="curve" smooth="yes"/>
      <point x="21" y="681"/>
      <point x="22" y="677"/>
      <point x="24" y="672" type="curve" smooth="yes"/>
      <point x="253" y="14" type="line" smooth="yes"/>
      <point x="257" y="2"/>
      <point x="273" y="-2"/>
      <point x="293" y="-2" type="curve" smooth="yes"/>
      <point x="324" y="-2" type="line" smooth="yes"/>
      <point x="344" y="-2"/>
      <point x="360" y="2"/>
      <point x="364" y="14" type="curve" smooth="yes"/>
      <point x="593" y="671" type="line" smooth="yes"/>
      <point x="595" y="677"/>
      <point x="596" y="681"/>
      <point x="596" y="685" type="curve" smooth="yes"/>
      <point x="596" y="696"/>
      <point x="583" y="702"/>
      <point x="553" y="702" type="curve" smooth="yes"/>
    </contour>
  </outline>
</glyph>
<glyph name="Y" format="1">
  <advance width="559"/>
  <unicode hex="0059"/>
  <outline>
    <contour>
      <point x="475" y="702"/>
      <point x="457" y="699"/>
      <point x="450" y="688" type="curve" smooth="yes"/>
      <point x="282" y="441" type="line"/>
      <point x="118" y="687" type="line" smooth="yes"/>
      <point x="110" y="699"/>
      <point x="96" y="702"/>
      <point x="75" y="702" type="curve" smooth="yes"/>
      <point x="64" y="702" type="line" smooth="yes"/>
      <point x="30" y="702"/>
      <point x="18" y="696"/>
      <point x="18" y="685" type="curve" smooth="yes"/>
      <point x="18" y="680"/>
      <point x="21" y="674"/>
      <point x="26" y="667" type="curve" smooth="yes"/>
      <point x="235" y="359" type="line"/>
      <point x="235" y="20" type="line" smooth="yes"/>
      <point x="235" y="6"/>
      <point x="247" y="-2"/>
      <point x="275" y="-2" type="curve" smooth="yes"/>
      <point x="283" y="-2" type="line" smooth="yes"/>
      <point x="311" y="-2"/>
      <point x="323" y="6"/>
      <point x="323" y="20" type="curve" smooth="yes"/>
      <point x="323" y="356" type="line"/>
      <point x="533" y="667" type="line" smooth="yes"/>
      <point x="537" y="674"/>
      <point x="541" y="680"/>
      <point x="541" y="685" type="curve" smooth="yes"/>
      <point x="541" y="696"/>
      <point x="530" y="701"/>
      <point x="502" y="702" type="curve"/>
      <point x="495" y="702" type="line"/>
    </contour>
    <contour>
      <point x="280" y="700" type="move" name="top"/>
    </contour>
    <contour>
      <point x="279" y="0" type="move" name="bottom"/>
    </contour>
  </outline>
</glyph>
<glyph name="backslash" format="1">
  <advance width="361"/>
  <unicode hex="005C"/>
  <outline>
    <contour>
      <point x="29" y="702" type="line" smooth="yes"/>
      <point x="12" y="702"/>
      <point x="5" y="694"/>
      <point x="5" y="682" type="curve" smooth="yes"/>
      <point x="5" y="677"/>
      <point x="6" y="672"/>
      <point x="8" y="667" type="curve" smooth="yes"/>
      <point x="294" y="3" type="line" smooth="yes"/>
      <point x="301" y="-13"/>
      <point x="310" y="-20"/>
      <point x="327" y="-20" type="curve" smooth="yes"/>
      <point x="331" y="-20" type="line" smooth="yes"/>
      <point x="348" y="-20"/>
      <point x="357" y="-12"/>
      <point x="357" y="0" type="curve" smooth="yes"/>
      <point x="357" y="5"/>
      <point x="356" y="10"/>
      <point x="354" y="15" type="curve" smooth="yes"/>
      <point x="68" y="679" type="line" smooth="yes"/>
      <point x="61" y="695"/>
      <point x="50" y="702"/>
      <point x="33" y="702" type="curve" smooth="yes"/>
    </contour>
  </outline>
</glyph>
<glyph name="bracketright" format="1">
  <advance width="291"/>
  <unicode hex="005D"/>
  <outline>
    <contour>
      <point x="50" y="768" type="line" smooth="yes"/>
      <point x="36" y="768"/>
      <point x="30" y="760"/>
      <point x="30" y="739" type="curve" smooth="yes"/>
      <point x="30" y="734" type="line" smooth="yes"/>
      <point x="30" y="713"/>
      <point x="36" y="705"/>
      <point x="50" y="705" type="curve" smooth="yes"/>
      <point x="127" y="705" type="line"/>
      <point x="127" y="-76" type="line"/>
      <point x="50" y="-76" type="line" smooth="yes"/>
      <point x="36" y="-76"/>
      <point x="30" y="-84"/>
      <point x="30" y="-105" type="curve" smooth="yes"/>
      <point x="30" y="-109" type="line" smooth="yes"/>
      <point x="30" y="-130"/>
      <point x="36" y="-138"/>
      <point x="50" y="-138" type="curve" smooth="yes"/>
      <point x="171" y="-138" type="line" smooth="yes"/>
      <point x="192" y="-138"/>
      <point x="201" y="-129"/>
      <point x="201" y="-108" type="curve" smooth="yes"/>
      <point x="201" y="738" type="line" smooth="yes"/>
      <point x="201" y="759"/>
      <point x="192" y="768"/>
      <point x="171" y="768" type="curve" smooth="yes"/>
    </contour>
  </outline>
</glyph>
<glyph name="asciicircum" format="1">
  <advance width="450"/>
  <unicode hex="005E"/>
  <outline>
    <contour>
      <point x="215" y="684" type="line" smooth="yes"/>
      <point x="198" y="684"/>
      <point x="187" y="680"/>
      <point x="181" y="664" type="curve" smooth="yes"/>
      <point x="56" y="355" type="line" smooth="yes"/>
      <point x="54" y="350"/>
      <point x="53" y="345"/>
      <point x="53" y="341" type="curve" smooth="yes"/>
      <point x="53" y="328"/>
      <point x="63" y="320"/>
      <point x="80" y="320" type="curve"/>
      <point x="84" y="320" type="line" smooth="yes"/>
      <point x="101" y="320"/>
      <point x="111" y="327"/>
      <point x="118" y="343" type="curve" smooth="yes"/>
      <point x="225" y="604" type="line"/>
      <point x="331" y="343" type="line" smooth="yes"/>
      <point x="337" y="327"/>
      <point x="349" y="320"/>
      <point x="366" y="320" type="curve" smooth="yes"/>
      <point x="370" y="320" type="line" smooth="yes"/>
      <point x="387" y="320"/>
      <point x="397" y="328"/>
      <point x="397" y="341" type="curve" smooth="yes"/>
      <point x="397" y="345"/>
      <point x="396" y="350"/>
      <point x="394" y="355" type="curve" smooth="yes"/>
      <point x="269" y="664" type="line" smooth="yes"/>
      <point x="262" y="680"/>
      <point x="252" y="684"/>
      <point x="235" y="684" type="curve" smooth="yes"/>
    </contour>
  </outline>
</glyph>
<glyph name="grave" format="1">
  <advance width="320"/>
  <unicode hex="0060"/>
  <outline>
    <contour>
      <point x="90" y="732"/>
      <point x="74" y="729"/>
      <point x="74" y="719" type="curve" smooth="yes"/>
      <point x="74" y="708"/>
      <point x="84" y="699"/>
      <point x="168" y="603" type="curve" smooth="yes"/>
      <point x="179" y="591"/>
      <point x="198" y="585"/>
      <point x="219" y="585" type="curve" smooth="yes"/>
      <point x="235" y="585"/>
      <point x="242" y="588"/>
      <point x="242" y="595" type="curve" smooth="yes"/>
      <point x="242" y="605"/>
      <point x="230" y="626"/>
      <point x="184" y="706" type="curve" smooth="yes"/>
      <point x="173" y="725"/>
      <point x="154" y="732"/>
      <point x="122" y="732" type="curve" smooth="yes"/>
    </contour>
    <contour>
      <point x="187" y="700" type="move" name="top"/>
    </contour>
    <contour>
      <point x="192" y="523" type="move" name="_top"/>
    </contour>
  </outline>
</glyph>
<glyph name="a" format="1">
  <advance width="545"/>
  <unicode hex="0061"/>
  <outline>
    <contour>
      <point x="168" y="529"/>
      <point x="80" y="491"/>
      <point x="80" y="465" type="curve" smooth="yes"/>
      <point x="80" y="454"/>
      <point x="101" y="415"/>
      <point x="115" y="415" type="curve" smooth="yes"/>
      <point x="125" y="415"/>
      <point x="180" y="457"/>
      <point x="271" y="457" type="curve" smooth="yes"/>
      <point x="354" y="457"/>
      <point x="381" y="418"/>
      <point x="381" y="373" type="curve" smooth="yes"/>
      <point x="381" y="326" type="line"/>
      <point x="228" y="324"/>
      <point x="49" y="313"/>
      <point x="49" y="144" type="curve" smooth="yes"/>
      <point x="49" y="41"/>
      <point x="123" y="-6"/>
      <point x="220" y="-6" type="curve" smooth="yes"/>
      <point x="295" y="-6"/>
      <point x="350" y="27"/>
      <point x="388" y="69" type="curve"/>
      <point x="394" y="41"/>
      <point x="399" y="-1"/>
      <point x="423" y="-1" type="curve" smooth="yes"/>
      <point x="436" y="-1"/>
      <point x="477" y="3"/>
      <point x="477" y="22" type="curve" smooth="yes"/>
      <point x="477" y="27"/>
      <point x="465" y="66"/>
      <point x="465" y="148" type="curve" smooth="yes"/>
      <point x="465" y="372" type="line" smooth="yes"/>
      <point x="465" y="471"/>
      <point x="392" y="529"/>
      <point x="268" y="529" type="curve" smooth="yes"/>
    </contour>
    <contour>
      <point x="381" y="136" type="line"/>
      <point x="341" y="100"/>
      <point x="297" y="67"/>
      <point x="224" y="67" type="curve" smooth="yes"/>
      <point x="168" y="67"/>
      <point x="139" y="96"/>
      <point x="139" y="149" type="curve" smooth="yes"/>
      <point x="139" y="253"/>
      <point x="277" y="253"/>
      <point x="381" y="254" type="curve"/>
    </contour>
    <contour>
      <point x="475" y="17" type="move" name="ogonek"/>
    </contour>
    <contour>
      <point x="261" y="0" type="move" name="bottom"/>
    </contour>
    <contour>
      <point x="273" y="523" type="move" name="top"/>
    </contour>
  </outline>
</glyph>
<glyph name="c" format="1">
  <advance width="485"/>
  <unicode hex="0063"/>
  <outline>
    <contour>
      <point x="174" y="529"/>
      <point x="52" y="473"/>
      <point x="52" y="264" type="curve" smooth="yes"/>
      <point x="52" y="71"/>
      <point x="136" y="-6"/>
      <point x="298" y="-6" type="curve" smooth="yes"/>
      <point x="385" y="-6"/>
      <point x="455" y="22"/>
      <point x="455" y="45" type="curve" smooth="yes"/>
      <point x="455" y="59"/>
      <point x="435" y="96"/>
      <point x="421" y="96" type="curve" smooth="yes"/>
      <point x="420" y="96"/>
      <point x="416" y="94"/>
      <point x="410" y="92" type="curve"/>
      <point x="392" y="83"/>
      <point x="353" y="66"/>
      <point x="297" y="66" type="curve" smooth="yes"/>
      <point x="184" y="66"/>
      <point x="142" y="126"/>
      <point x="142" y="266" type="curve" smooth="yes"/>
      <point x="142" y="405"/>
      <point x="199" y="457"/>
      <point x="287" y="457" type="curve" smooth="yes"/>
      <point x="341" y="457"/>
      <point x="378" y="441"/>
      <point x="396" y="433" type="curve" smooth="yes"/>
      <point x="402" y="431"/>
      <point x="405" y="429"/>
      <point x="407" y="429" type="curve" smooth="yes"/>
      <point x="420" y="429"/>
      <point x="439" y="467"/>
      <point x="439" y="483" type="curve" smooth="yes"/>
      <point x="439" y="507"/>
      <point x="366" y="529"/>
      <point x="289" y="529" type="curve" smooth="yes"/>
    </contour>
    <contour>
      <point x="277" y="523" type="move" name="top"/>
    </contour>
    <contour>
      <point x="286" y="0" type="move" name="bottom"/>
    </contour>
  </outline>
</glyph>
<glyph name="d" format="1">
  <advance width="565"/>
  <unicode hex="0064"/>
  <outline>
    <contour>
      <point x="438" y="752" type="line" smooth="yes"/>
      <point x="410" y="752"/>
      <point x="398" y="744"/>
      <point x="398" y="730" type="curve" smooth="yes"/>
      <point x="398" y="478" type="line"/>
      <point x="359" y="508"/>
      <point x="317" y="529"/>
      <point x="255" y="529" type="curve" smooth="yes"/>
      <point x="136" y="529"/>
      <point x="52" y="435"/>
      <point x="52" y="261" type="curve" smooth="yes"/>
      <point x="52" y="106"/>
      <point x="126" y="-6"/>
      <point x="246" y="-6" type="curve" smooth="yes"/>
      <point x="303" y="-6"/>
      <point x="356" y="18"/>
      <point x="405" y="69" type="curve"/>
      <point x="411" y="41"/>
      <point x="416" y="-1"/>
      <point x="440" y="-1" type="curve" smooth="yes"/>
      <point x="453" y="-1"/>
      <point x="494" y="3"/>
      <point x="494" y="22" type="curve" smooth="yes"/>
      <point x="494" y="27"/>
      <point x="482" y="66"/>
      <point x="482" y="148" type="curve" smooth="yes"/>
      <point x="482" y="730" type="line" smooth="yes"/>
      <point x="482" y="744"/>
      <point x="470" y="752"/>
      <point x="442" y="752" type="curve" smooth="yes"/>
    </contour>
    <contour>
      <point x="320" y="455"/>
      <point x="362" y="440"/>
      <point x="398" y="410" type="curve"/>
      <point x="398" y="136" type="line"/>
      <point x="357" y="91"/>
      <point x="307" y="67"/>
      <point x="263" y="67" type="curve" smooth="yes"/>
      <point x="184" y="67"/>
      <point x="140" y="140"/>
      <point x="140" y="269" type="curve" smooth="yes"/>
      <point x="140" y="388"/>
      <point x="185" y="453"/>
      <point x="275" y="455" type="curve" smooth="yes"/>
    </contour>
    <contour>
      <point x="481" y="700" type="move" name="caron"/>
    </contour>
    <contour>
      <point x="281" y="0" type="move" name="bottom"/>
    </contour>
    <contour>
      <point x="421" y="630" type="move" name="center"/>
    </contour>
  </outline>
</glyph>
<glyph name="i" format="1">
  <advance width="265"/>
  <unicode hex="0069"/>
  <outline>
    <contour>
      <point x="131" y="525" type="line" smooth="yes"/>
      <point x="103" y="525"/>
      <point x="91" y="517"/>
      <point x="91" y="503" type="curve" smooth="yes"/>
      <point x="91" y="20" type="line" smooth="yes"/>
      <point x="91" y="6"/>
      <point x="103" y="-2"/>
      <point x="131" y="-2" type="curve" smooth="yes"/>
      <point x="135" y="-2" type="line" smooth="yes"/>
      <point x="163" y="-2"/>
      <point x="175" y="6"/>
      <point x="175" y="20" type="curve" smooth="yes"/>
      <point x="175" y="503" type="line" smooth="yes"/>
      <point x="175" y="517"/>
      <point x="163" y="525"/>
      <point x="135" y="525" type="curve" smooth="yes"/>
    </contour>
    <contour>
      <point x="127" y="752" type="line" smooth="yes"/>
      <point x="99" y="752"/>
      <point x="87" y="744"/>
      <point x="87" y="730" type="curve" smooth="yes"/>
      <point x="87" y="671" type="line" smooth="yes"/>
      <point x="87" y="657"/>
      <point x="99" y="649"/>
      <point x="127" y="649" type="curve"/>
      <point x="139" y="649" type="line" smooth="yes"/>
      <point x="167" y="649"/>
      <point x="179" y="657"/>
      <point x="179" y="671" type="curve" smooth="yes"/>
      <point x="179" y="730" type="line" smooth="yes"/>
      <point x="179" y="744"/>
      <point x="167" y="752"/>
      <point x="139" y="752" type="curve" smooth="yes"/>
    </contour>
    <contour>
      <point x="131" y="0" type="move" name="bottom"/>
    </contour>
  </outline>
</glyph>
<glyph name="l" format="1">
  <advance width="297"/>
  <unicode hex="006C"/>
  <outline>
    <contour>
      <point x="122" y="752" type="line" smooth="yes"/>
      <point x="94" y="752"/>
      <point x="82" y="744"/>
      <point x="82" y="730" type="curve" smooth="yes"/>
      <point x="82" y="132" type="line" smooth="yes"/>
      <point x="82" y="16"/>
      <point x="161" y="-6"/>
      <point x="211" y="-6" type="curve" smooth="yes"/>
      <point x="238" y="-6"/>
      <point x="284" y="-3"/>
      <point x="284" y="24" type="curve" smooth="yes"/>
      <point x="284" y="32"/>
      <point x="277" y="71"/>
      <point x="263" y="71" type="curve" smooth="yes"/>
      <point x="254" y="71"/>
      <point x="249" y="66"/>
      <point x="220" y="66" type="curve" smooth="yes"/>
      <point x="191" y="66"/>
      <point x="166" y="80"/>
      <point x="166" y="140" type="curve" smooth="yes"/>
      <point x="166" y="730" type="line" smooth="yes"/>
      <point x="166" y="744"/>
      <point x="154" y="752"/>
      <point x="126" y="752" type="curve" smooth="yes"/>
    </contour>
    <contour>
      <point x="279" y="335" type="move" name="center"/>
    </contour>
    <contour>
      <point x="166" y="702" type="move" name="caron"/>
    </contour>
    <contour>
      <point x="125" y="720" type="move" name="top"/>
    </contour>
    <contour>
      <point x="179" y="0" type="move" name="bottom"/>
    </contour>
  </outline>
</glyph>
<glyph name="n" format="1">
  <advance width="557"/>
  <unicode hex="006E"/>
  <outline>
    <contour>
      <point x="263" y="529"/>
      <point x="205" y="501"/>
      <point x="163" y="454" type="curve"/>
      <point x="157" y="480"/>
      <point x="152" y="520"/>
      <point x="128" y="520" type="curve" smooth="yes"/>
      <point x="115" y="520"/>
      <point x="74" y="516"/>
      <point x="74" y="497" type="curve" smooth="yes"/>
      <point x="74" y="492"/>
      <point x="86" y="453"/>
      <point x="86" y="371" type="curve" smooth="yes"/>
      <point x="86" y="20" type="line" smooth="yes"/>
      <point x="86" y="6"/>
      <point x="98" y="-2"/>
      <point x="126" y="-2" type="curve" smooth="yes"/>
      <point x="130" y="-2" type="line" smooth="yes"/>
      <point x="158" y="-2"/>
      <point x="170" y="6"/>
      <point x="170" y="20" type="curve" smooth="yes"/>
      <point x="170" y="386" type="line"/>
      <point x="203" y="429"/>
      <point x="251" y="456"/>
      <point x="296" y="456" type="curve" smooth="yes"/>
      <point x="361" y="456"/>
      <point x="398" y="420"/>
      <point x="398" y="359" type="curve" smooth="yes"/>
      <point x="398" y="20" type="line" smooth="yes"/>
      <point x="398" y="6"/>
      <point x="410" y="-2"/>
      <point x="438" y="-2" type="curve" smooth="yes"/>
      <point x="442" y="-2" type="line" smooth="yes"/>
      <point x="470" y="-2"/>
      <point x="482" y="6"/>
      <point x="482" y="20" type="curve" smooth="yes"/>
      <point x="482" y="367" type="line" smooth="yes"/>
      <point x="482" y="468"/>
      <point x="421" y="529"/>
      <point x="319" y="529" type="curve" smooth="yes"/>
    </contour>
    <contour>
      <point x="279" y="523" type="move" name="top"/>
    </contour>
    <contour>
      <point x="279" y="0" type="move" name="bottom"/>
    </contour>
  </outline>
</glyph>
<glyph name="o" format="1">
  <advance width="569"/>
  <unicode hex="006F"/>
  <outline>
    <contour>
      <point x="138" y="529"/>
      <point x="55" y="432"/>
      <point x="55" y="259" type="curve" smooth="yes"/>
      <point x="55" y="87"/>
      <point x="136" y="-6"/>
      <point x="287" y="-6" type="curve" smooth="yes"/>
      <point x="436" y="-6"/>
      <point x="514" y="86"/>
      <point x="514" y="259" type="curve" smooth="yes"/>
      <point x="514" y="433"/>
      <point x="434" y="529"/>
      <point x="287" y="529" type="curve" smooth="yes"/>
    </contour>
    <contour>
      <point x="382" y="457"/>
      <point x="427" y="394"/>
      <point x="427" y="261" type="curve" smooth="yes"/>
      <point x="427" y="128"/>
      <point x="382" y="66"/>
      <point x="284" y="66" type="curve" smooth="yes"/>
      <point x="186" y="66"/>
      <point x="143" y="128"/>
      <point x="143" y="261" type="curve" smooth="yes"/>
      <point x="143" y="395"/>
      <point x="187" y="457"/>
      <point x="284" y="457" type="curve" smooth="yes"/>
    </contour>
    <contour>
      <point x="343" y="0" type="move" name="ogonek"/>
    </contour>
    <contour>
      <point x="285" y="523" type="move" name="top"/>
    </contour>
    <contour>
      <point x="376" y="505" type="move" name="horn"/>
    </contour>
    <contour>
      <point x="291" y="0" type="move" name="bottom"/>
    </contour>
  </outline>
</glyph>
<glyph name="r" format="1">
  <advance width="366"/>
  <unicode hex="0072"/>
  <outline>
    <contour>
      <point x="241" y="529"/>
      <point x="201" y="502"/>
      <point x="167" y="454" type="curve"/>
      <point x="161" y="480"/>
      <point x="156" y="520"/>
      <point x="132" y="520" type="curve" smooth="yes"/>
      <point x="119" y="520"/>
      <point x="78" y="516"/>
      <point x="78" y="497" type="curve" smooth="yes"/>
      <point x="78" y="492"/>
      <point x="90" y="453"/>
      <point x="90" y="371" type="curve" smooth="yes"/>
      <point x="90" y="20" type="line" smooth="yes"/>
      <point x="90" y="6"/>
      <point x="102" y="-2"/>
      <point x="130" y="-2" type="curve" smooth="yes"/>
      <point x="134" y="-2" type="line" smooth="yes"/>
      <point x="162" y="-2"/>
      <point x="174" y="6"/>
      <point x="174" y="20" type="curve" smooth="yes"/>
      <point x="174" y="386" type="line"/>
      <point x="174" y="386"/>
      <point x="214" y="447"/>
      <point x="266" y="447" type="curve" smooth="yes"/>
      <point x="300" y="447"/>
      <point x="308" y="436"/>
      <point x="321" y="436" type="curve" smooth="yes"/>
      <point x="333" y="436"/>
      <point x="341" y="471"/>
      <point x="341" y="490" type="curve" smooth="yes"/>
      <point x="341" y="512"/>
      <point x="322" y="529"/>
      <point x="283" y="529" type="curve" smooth="yes"/>
    </contour>
    <contour>
      <point x="132" y="520" type="move" name="top"/>
    </contour>
    <contour>
      <point x="134" y="-2" type="move" name="bottom"/>
    </contour>
  </outline>
</glyph>
<glyph name="s" format="1">
  <advance width="413"/>
  <unicode hex="0073"/>
  <outline>
    <contour>
      <point x="116" y="530"/>
      <point x="47" y="469"/>
      <point x="47" y="385" type="curve" smooth="yes"/>
      <point x="47" y="310"/>
      <point x="78" y="267"/>
      <point x="186" y="235" type="curve" smooth="yes"/>
      <point x="261" y="213"/>
      <point x="286" y="190"/>
      <point x="286" y="145" type="curve" smooth="yes"/>
      <point x="286" y="90"/>
      <point x="252" y="64"/>
      <point x="188" y="64" type="curve" smooth="yes"/>
      <point x="117" y="64"/>
      <point x="77" y="104"/>
      <point x="70" y="104" type="curve" smooth="yes"/>
      <point x="56" y="104"/>
      <point x="35" y="65"/>
      <point x="35" y="54" type="curve" smooth="yes"/>
      <point x="35" y="31"/>
      <point x="103" y="-9"/>
      <point x="194" y="-9" type="curve" smooth="yes"/>
      <point x="293" y="-9"/>
      <point x="371" y="57"/>
      <point x="371" y="147" type="curve" smooth="yes"/>
      <point x="371" y="238"/>
      <point x="334" y="271"/>
      <point x="211" y="309" type="curve" smooth="yes"/>
      <point x="155" y="326"/>
      <point x="133" y="351"/>
      <point x="133" y="396" type="curve" smooth="yes"/>
      <point x="133" y="435"/>
      <point x="172" y="459"/>
      <point x="222" y="459" type="curve" smooth="yes"/>
      <point x="276" y="459"/>
      <point x="308" y="433"/>
      <point x="313" y="433" type="curve" smooth="yes"/>
      <point x="326" y="433"/>
      <point x="345" y="471"/>
      <point x="345" y="487" type="curve" smooth="yes"/>
      <point x="345" y="509"/>
      <point x="281" y="530"/>
      <point x="213" y="530" type="curve" smooth="yes"/>
    </contour>
    <contour>
      <point x="207" y="523" type="move" name="top"/>
    </contour>
    <contour>
      <point x="207" y="0" type="move" name="bottom"/>
    </contour>
  </outline>
</glyph>
<glyph name="t" format="1">
  <advance width="342"/>
  <unicode hex="0074"/>
  <outline>
    <contour>
      <point x="151" y="650" type="line" smooth="yes"/>
      <point x="130" y="650"/>
      <point x="120" y="642"/>
      <point x="119" y="628" type="curve" smooth="yes"/>
      <point x="107" y="523" type="line"/>
      <point x="57" y="523" type="line" smooth="yes"/>
      <point x="43" y="523"/>
      <point x="37" y="514"/>
      <point x="37" y="493" type="curve" smooth="yes"/>
      <point x="37" y="481" type="line" smooth="yes"/>
      <point x="37" y="460"/>
      <point x="43" y="451"/>
      <point x="57" y="451" type="curve" smooth="yes"/>
      <point x="107" y="451" type="line"/>
      <point x="107" y="132" type="line" smooth="yes"/>
      <point x="107" y="16"/>
      <point x="186" y="-6"/>
      <point x="236" y="-6" type="curve" smooth="yes"/>
      <point x="263" y="-6"/>
      <point x="309" y="-3"/>
      <point x="309" y="24" type="curve" smooth="yes"/>
      <point x="309" y="32"/>
      <point x="302" y="71"/>
      <point x="288" y="71" type="curve" smooth="yes"/>
      <point x="279" y="71"/>
      <point x="274" y="66"/>
      <point x="245" y="66" type="curve" smooth="yes"/>
      <point x="216" y="66"/>
      <point x="191" y="80"/>
      <point x="191" y="140" type="curve" smooth="yes"/>
      <point x="191" y="451" type="line"/>
      <point x="275" y="451" type="line" smooth="yes"/>
      <point x="289" y="451"/>
      <point x="295" y="460"/>
      <point x="295" y="481" type="curve" smooth="yes"/>
      <point x="295" y="493" type="line" smooth="yes"/>
      <point x="295" y="514"/>
      <point x="289" y="523"/>
      <point x="275" y="523" type="curve" smooth="yes"/>
      <point x="191" y="523" type="line"/>
      <point x="191" y="628" type="line" smooth="yes"/>
      <point x="191" y="642"/>
      <point x="182" y="650"/>
      <point x="161" y="650" type="curve" smooth="yes"/>
    </contour>
    <contour>
      <point x="186" y="752" type="move" name="caron"/>
    </contour>
    <contour>
      <point x="216" y="0" type="move" name="bottom"/>
    </contour>
    <contour>
      <point x="171" y="292" type="move" name="center"/>
    </contour>
  </outline>
</glyph>
<glyph name="u" format="1">
  <advance width="557"/>
  <unicode hex="0075"/>
  <outline>
    <contour>
      <point x="427" y="525" type="line" smooth="yes"/>
      <point x="399" y="525"/>
      <point x="387" y="517"/>
      <point x="387" y="503" type="curve" smooth="yes"/>
      <point x="387" y="137" type="line"/>
      <point x="354" y="94"/>
      <point x="306" y="67"/>
      <point x="261" y="67" type="curve" smooth="yes"/>
      <point x="196" y="67"/>
      <point x="159" y="103"/>
      <point x="159" y="164" type="curve" smooth="yes"/>
      <point x="159" y="503" type="line" smooth="yes"/>
      <point x="159" y="517"/>
      <point x="147" y="525"/>
      <point x="119" y="525" type="curve" smooth="yes"/>
      <point x="115" y="525" type="line" smooth="yes"/>
      <point x="87" y="525"/>
      <point x="75" y="517"/>
      <point x="75" y="503" type="curve" smooth="yes"/>
      <point x="75" y="156" type="line" smooth="yes"/>
      <point x="75" y="55"/>
      <point x="136" y="-6"/>
      <point x="238" y="-6" type="curve" smooth="yes"/>
      <point x="294" y="-6"/>
      <point x="352" y="22"/>
      <point x="394" y="69" type="curve"/>
      <point x="400" y="41"/>
      <point x="405" y="-1"/>
      <point x="429" y="-1" type="curve" smooth="yes"/>
      <point x="442" y="-1"/>
      <point x="483" y="3"/>
      <point x="483" y="22" type="curve" smooth="yes"/>
      <point x="483" y="27"/>
      <point x="471" y="66"/>
      <point x="471" y="148" type="curve" smooth="yes"/>
      <point x="471" y="503" type="line" smooth="yes"/>
      <point x="471" y="517"/>
      <point x="459" y="525"/>
      <point x="431" y="525" type="curve" smooth="yes"/>
    </contour>
    <contour>
      <point x="468" y="10" type="move" name="ogonek"/>
    </contour>
    <contour>
      <point x="279" y="523" type="move" name="top"/>
    </contour>
    <contour>
      <point x="427" y="525" type="move" name="horn"/>
    </contour>
    <contour>
      <point x="251" y="0" type="move" name="bottom"/>
    </contour>
  </outline>
</glyph>
<glyph name="v" format="1">
  <advance width="485"/>
  <unicode hex="0076"/>
  <outline>
    <contour>
      <point x="424" y="525" type="line"/>
      <point x="403" y="525"/>
      <point x="387" y="521"/>
      <point x="383" y="509" type="curve" smooth="yes"/>
      <point x="280" y="188" type="line" smooth="yes"/>
      <point x="268" y="150"/>
      <point x="258" y="99"/>
      <point x="250" y="65" type="curve"/>
      <point x="246" y="65" type="line"/>
      <point x="237" y="99"/>
      <point x="224" y="150"/>
      <point x="211" y="190" type="curve" smooth="yes"/>
      <point x="109" y="509" type="line" smooth="yes"/>
      <point x="105" y="521"/>
      <point x="89" y="525"/>
      <point x="69" y="525" type="curve" smooth="yes"/>
      <point x="64" y="525" type="line" smooth="yes"/>
      <point x="34" y="525"/>
      <point x="21" y="518"/>
      <point x="21" y="508" type="curve" smooth="yes"/>
      <point x="21" y="504"/>
      <point x="23" y="498"/>
      <point x="24" y="495" type="curve" smooth="yes"/>
      <point x="185" y="14" type="line" smooth="yes"/>
      <point x="189" y="2"/>
      <point x="205" y="-2"/>
      <point x="225" y="-2" type="curve" smooth="yes"/>
      <point x="260" y="-2" type="line" smooth="yes"/>
      <point x="280" y="-2"/>
      <point x="296" y="2"/>
      <point x="300" y="14" type="curve" smooth="yes"/>
      <point x="461" y="494" type="line" smooth="yes"/>
      <point x="463" y="500"/>
      <point x="464" y="504"/>
      <point x="464" y="508" type="curve" smooth="yes"/>
      <point x="464" y="519"/>
      <point x="453" y="525"/>
      <point x="427" y="525" type="curve"/>
    </contour>
  </outline>
</glyph>
<glyph name="w" format="1">
  <advance width="747"/>
  <unicode hex="0077"/>
  <outline>
    <contour>
      <point x="655" y="525"/>
      <point x="637" y="521"/>
      <point x="634" y="509" type="curve" smooth="yes"/>
      <point x="550" y="188" type="line" smooth="yes"/>
      <point x="542" y="157"/>
      <point x="534" y="112"/>
      <point x="527" y="76" type="curve"/>
      <point x="520" y="112"/>
      <point x="517" y="133"/>
      <point x="502" y="190" type="curve" smooth="yes"/>
      <point x="418" y="508" type="line" smooth="yes"/>
      <point x="414" y="521"/>
      <point x="399" y="525"/>
      <point x="379" y="525" type="curve" smooth="yes"/>
      <point x="372" y="525" type="line" smooth="yes"/>
      <point x="352" y="525"/>
      <point x="336" y="521"/>
      <point x="333" y="508" type="curve" smooth="yes"/>
      <point x="250" y="190" type="line" smooth="yes"/>
      <point x="241" y="158"/>
      <point x="231" y="110"/>
      <point x="225" y="75" type="curve"/>
      <point x="217" y="112"/>
      <point x="206" y="165"/>
      <point x="200" y="189" type="curve" smooth="yes"/>
      <point x="116" y="509" type="line" smooth="yes"/>
      <point x="113" y="521"/>
      <point x="96" y="525"/>
      <point x="76" y="525" type="curve" smooth="yes"/>
      <point x="43" y="525"/>
      <point x="30" y="518"/>
      <point x="30" y="508" type="curve" smooth="yes"/>
      <point x="30" y="504"/>
      <point x="33" y="494"/>
      <point x="35" y="488" type="curve" smooth="yes"/>
      <point x="167" y="14" type="line"/>
      <point x="170" y="2"/>
      <point x="187" y="-2"/>
      <point x="207" y="-2" type="curve" smooth="yes"/>
      <point x="237" y="-2" type="line" smooth="yes"/>
      <point x="257" y="-2"/>
      <point x="274" y="2"/>
      <point x="277" y="14" type="curve" smooth="yes"/>
      <point x="359" y="332" type="line" smooth="yes"/>
      <point x="365" y="354"/>
      <point x="370" y="383"/>
      <point x="374" y="409" type="curve"/>
      <point x="378" y="383"/>
      <point x="383" y="354"/>
      <point x="389" y="331" type="curve" smooth="yes"/>
      <point x="469" y="14" type="line" smooth="yes"/>
      <point x="472" y="2"/>
      <point x="488" y="-2"/>
      <point x="508" y="-2" type="curve" smooth="yes"/>
      <point x="538" y="-2" type="line" smooth="yes"/>
      <point x="558" y="-2"/>
      <point x="575" y="2"/>
      <point x="578" y="14" type="curve" smooth="yes"/>
      <point x="712" y="494" type="line" smooth="yes"/>
      <point x="714" y="500"/>
      <point x="715" y="504"/>
      <point x="715" y="508" type="curve" smooth="yes"/>
      <point x="715" y="519"/>
      <point x="702" y="525"/>
      <point x="675" y="525" type="curve" smooth="yes"/>
    </contour>
    <contour>
      <point x="374" y="523" type="move" name="top"/>
    </contour>
  </outline>
</glyph>
<glyph name="z" format="1">
  <advance width="489"/>
  <unicode hex="007A"/>
  <outline>
    <contour>
      <point x="77" y="523" type="line" smooth="yes"/>
      <point x="63" y="523"/>
      <point x="57" y="514"/>
      <point x="57" y="493" type="curve" smooth="yes"/>
      <point x="57" y="481" type="line" smooth="yes"/>
      <point x="57" y="460"/>
      <point x="63" y="451"/>
      <point x="77" y="451" type="curve" smooth="yes"/>
      <point x="333" y="451" type="line"/>
      <point x="40" y="62" type="line" smooth="yes"/>
      <point x="38" y="59"/>
      <point x="37" y="55"/>
      <point x="37" y="51" type="curve" smooth="yes"/>
      <point x="37" y="31"/>
      <point x="51" y="0"/>
      <point x="59" y="0" type="curve"/>
      <point x="429" y="0" type="line" smooth="yes"/>
      <point x="443" y="0"/>
      <point x="449" y="9"/>
      <point x="449" y="30" type="curve" smooth="yes"/>
      <point x="449" y="42" type="line" smooth="yes"/>
      <point x="449" y="63"/>
      <point x="443" y="72"/>
      <point x="429" y="72" type="curve" smooth="yes"/>
      <point x="154" y="72" type="line"/>
      <point x="446" y="461" type="line" smooth="yes"/>
      <point x="447" y="463"/>
      <point x="448" y="466"/>
      <point x="448" y="471" type="curve" smooth="yes"/>
      <point x="448" y="489"/>
      <point x="438" y="523"/>
      <point x="428" y="523" type="curve" smooth="yes"/>
    </contour>
    <contour>
      <point x="245" y="523" type="move" name="top"/>
    </contour>
    <contour>
      <point x="238" y="0" type="move" name="bottom"/>
    </contour>
  </outline>
</glyph>
<glyph name="braceleft" format="1">
  <advance width="274"/>
  <unicode hex="007B"/>
  <outline>
    <contour>
      <point x="174" y="768" type="line" smooth="yes"/>
      <point x="148" y="768"/>
      <point x="96" y="747"/>
      <point x="96" y="652" type="curve" smooth="yes"/>
      <point x="96" y="485" type="line" smooth="yes"/>
      <point x="96" y="418"/>
      <point x="89" y="376"/>
      <point x="45" y="356" type="curve" smooth="yes"/>
      <point x="29" y="349"/>
      <point x="20" y="340"/>
      <point x="20" y="322" type="curve" smooth="yes"/>
      <point x="20" y="308" type="line" smooth="yes"/>
      <point x="20" y="290"/>
      <point x="29" y="281"/>
      <point x="45" y="274" type="curve" smooth="yes"/>
      <point x="89" y="254"/>
      <point x="96" y="211"/>
      <point x="96" y="145" type="curve" smooth="yes"/>
      <point x="96" y="-22" type="line" smooth="yes"/>
      <point x="96" y="-119"/>
      <point x="148" y="-138"/>
      <point x="174" y="-138" type="curve" smooth="yes"/>
      <point x="224" y="-138" type="line" smooth="yes"/>
      <point x="238" y="-138"/>
      <point x="244" y="-130"/>
      <point x="244" y="-109" type="curve" smooth="yes"/>
      <point x="244" y="-105" type="line" smooth="yes"/>
      <point x="244" y="-84"/>
      <point x="238" y="-76"/>
      <point x="224" y="-76" type="curve" smooth="yes"/>
      <point x="202" y="-76" type="line" smooth="yes"/>
      <point x="174" y="-76"/>
      <point x="168" y="-53"/>
      <point x="168" y="-14" type="curve" smooth="yes"/>
      <point x="168" y="161" type="line" smooth="yes"/>
      <point x="168" y="262"/>
      <point x="105" y="307"/>
      <point x="90" y="314" type="curve"/>
      <point x="107" y="326"/>
      <point x="168" y="371"/>
      <point x="168" y="469" type="curve" smooth="yes"/>
      <point x="168" y="645" type="line" smooth="yes"/>
      <point x="168" y="684"/>
      <point x="174" y="706"/>
      <point x="202" y="706" type="curve" smooth="yes"/>
      <point x="224" y="706" type="line" smooth="yes"/>
      <point x="238" y="706"/>
      <point x="244" y="714"/>
      <point x="244" y="735" type="curve" smooth="yes"/>
      <point x="244" y="739" type="line" smooth="yes"/>
      <point x="244" y="760"/>
      <point x="238" y="768"/>
      <point x="224" y="768" type="curve" smooth="yes"/>
    </contour>
  </outline>
</glyph>
<glyph name="cent" format="1">
  <advance width="486"/>
  <unicode hex="00A2"/>
  <outline>
    <contour>
      <point x="275" y="583"/>
      <point x="269" y="578"/>
      <point x="269" y="567" type="curve" smooth="yes"/>
      <point x="269" y="528" type="line"/>
      <point x="161" y="522"/>
      <point x="55" y="462"/>
      <point x="55" y="264" type="curve" smooth="yes"/>
      <point x="55" y="82"/>
      <point x="127" y="3"/>
      <point x="269" y="-5" type="curve"/>
      <point x="269" y="-59" type="line" smooth="yes"/>
      <point x="269" y="-70"/>
      <point x="275" y="-75"/>
      <point x="289" y="-75" type="curve" smooth="yes"/>
      <point x="303" y="-75"/>
      <point x="309" y="-70"/>
      <point x="309" y="-59" type="curve" smooth="yes"/>
      <point x="309" y="-6" type="line"/>
      <point x="388" y="-3"/>
      <point x="450" y="23"/>
      <point x="450" y="45" type="curve" smooth="yes"/>
      <point x="450" y="59"/>
      <point x="430" y="96"/>
      <point x="416" y="96" type="curve" smooth="yes"/>
      <point x="409" y="96"/>
      <point x="371" y="70"/>
      <point x="309" y="66" type="curve"/>
      <point x="309" y="456" type="line"/>
      <point x="364" y="451"/>
      <point x="396" y="429"/>
      <point x="402" y="429" type="curve" smooth="yes"/>
      <point x="415" y="429"/>
      <point x="434" y="467"/>
      <point x="434" y="483" type="curve" smooth="yes"/>
      <point x="434" y="504"/>
      <point x="376" y="525"/>
      <point x="309" y="528" type="curve"/>
      <point x="309" y="567" type="line" smooth="yes"/>
      <point x="309" y="578"/>
      <point x="303" y="583"/>
      <point x="289" y="583" type="curve" smooth="yes"/>
    </contour>
    <contour>
      <point x="269" y="67" type="line"/>
      <point x="178" y="77"/>
      <point x="144" y="137"/>
      <point x="144" y="266" type="curve" smooth="yes"/>
      <point x="144" y="396"/>
      <point x="193" y="449"/>
      <point x="269" y="456" type="curve"/>
    </contour>
  </outline>
</glyph>
<glyph name="dieresis" format="1">
  <advance width="320"/>
  <unicode hex="00A8"/>
  <outline>
    <contour>
      <point x="203" y="702"/>
      <point x="191" y="693"/>
      <point x="191" y="680" type="curve" smooth="yes"/>
      <point x="191" y="629" type="line" smooth="yes"/>
      <point x="191" y="615"/>
      <point x="203" y="607"/>
      <point x="231" y="607" type="curve"/>
      <point x="263" y="607"/>
      <point x="275" y="616"/>
      <point x="275" y="629" type="curve" smooth="yes"/>
      <point x="275" y="680" type="line" smooth="yes"/>
      <point x="275" y="694"/>
      <point x="263" y="702"/>
      <point x="235" y="702" type="curve" smooth="yes"/>
    </contour>
    <contour>
      <point x="59" y="702"/>
      <point x="47" y="693"/>
      <point x="47" y="680" type="curve" smooth="yes"/>
      <point x="47" y="629" type="line" smooth="yes"/>
      <point x="47" y="615"/>
      <point x="59" y="607"/>
      <point x="87" y="607" type="curve"/>
      <point x="119" y="607"/>
      <point x="131" y="616"/>
      <point x="131" y="629" type="curve" smooth="yes"/>
      <point x="131" y="680" type="line" smooth="yes"/>
      <point x="131" y="694"/>
      <point x="119" y="702"/>
      <point x="91" y="702" type="curve" smooth="yes"/>
    </contour>
    <contour>
      <point x="158" y="700" type="move" name="top"/>
    </contour>
    <contour>
      <point x="161" y="523" type="move" name="_top"/>
    </contour>
  </outline>
</glyph>
<glyph name="copyright" format="1">
  <advance width="739"/>
  <unicode hex="00A9"/>
  <outline>
    <contour>
      <point x="170" y="710"/>
      <point x="10" y="553"/>
      <point x="10" y="354" type="curve" smooth="yes"/>
      <point x="10" y="155"/>
      <point x="170" y="-5"/>
      <point x="369" y="-5" type="curve" smooth="yes"/>
      <point x="568" y="-5"/>
      <point x="729" y="155"/>
      <point x="729" y="354" type="curve" smooth="yes"/>
      <point x="729" y="553"/>
      <point x="568" y="710"/>
      <point x="369" y="710" type="curve" smooth="yes"/>
    </contour>
    <contour>
      <point x="259" y="562"/>
      <point x="193" y="492"/>
      <point x="193" y="349" type="curve" smooth="yes"/>
      <point x="193" y="204"/>
      <point x="255" y="137"/>
      <point x="385" y="137" type="curve" smooth="yes"/>
      <point x="455" y="137"/>
      <point x="509" y="164"/>
      <point x="509" y="180" type="curve" smooth="yes"/>
      <point x="509" y="187"/>
      <point x="496" y="212"/>
      <point x="488" y="212" type="curve" smooth="yes"/>
      <point x="480" y="212"/>
      <point x="447" y="182"/>
      <point x="385" y="182" type="curve" smooth="yes"/>
      <point x="292" y="182"/>
      <point x="247" y="234"/>
      <point x="247" y="349" type="curve" smooth="yes"/>
      <point x="247" y="466"/>
      <point x="292" y="517"/>
      <point x="388" y="517" type="curve" smooth="yes"/>
      <point x="445" y="517"/>
      <point x="474" y="490"/>
      <point x="480" y="490" type="curve" smooth="yes"/>
      <point x="488" y="490"/>
      <point x="501" y="515"/>
      <point x="501" y="525" type="curve" smooth="yes"/>
      <point x="501" y="541"/>
      <point x="446" y="562"/>
      <point x="387" y="562" type="curve" smooth="yes"/>
    </contour>
    <contour>
      <point x="541" y="662"/>
      <point x="681" y="526"/>
      <point x="681" y="354" type="curve" smooth="yes"/>
      <point x="681" y="183"/>
      <point x="541" y="43"/>
      <point x="369" y="43" type="curve" smooth="yes"/>
      <point x="198" y="43"/>
      <point x="58" y="183"/>
      <point x="58" y="354" type="curve" smooth="yes"/>
      <point x="58" y="526"/>
      <point x="198" y="662"/>
      <point x="369" y="662" type="curve" smooth="yes"/>
    </contour>
  </outline>
</glyph>
<glyph name="logicalnot" format="1">
  <advance width="560"/>
  <unicode hex="00AC"/>
  <outline>
    <contour>
      <point x="58" y="338" type="line" smooth="yes"/>
      <point x="44" y="338"/>
      <point x="38" y="329"/>
      <point x="38" y="308" type="curve" smooth="yes"/>
      <point x="38" y="295" type="line" smooth="yes"/>
      <point x="38" y="274"/>
      <point x="44" y="265"/>
      <point x="58" y="265" type="curve"/>
      <point x="449" y="265" type="line"/>
      <point x="449" y="99" type="line" smooth="yes"/>
      <point x="449" y="85"/>
      <point x="458" y="77"/>
      <point x="479" y="77" type="curve" smooth="yes"/>
      <point x="492" y="77" type="line" smooth="yes"/>
      <point x="513" y="77"/>
      <point x="522" y="85"/>
      <point x="522" y="99" type="curve" smooth="yes"/>
      <point x="522" y="308" type="line" smooth="yes"/>
      <point x="522" y="329"/>
      <point x="513" y="338"/>
      <point x="492" y="338" type="curve" smooth="yes"/>
    </contour>
  </outline>
</glyph>
<glyph name="macron" format="1">
  <advance width="320"/>
  <unicode hex="00AF"/>
  <outline>
    <contour>
      <point x="47" y="682" type="line" smooth="yes"/>
      <point x="33" y="682"/>
      <point x="27" y="673"/>
      <point x="27" y="652" type="curve" smooth="yes"/>
      <point x="27" y="642" type="line" smooth="yes"/>
      <point x="27" y="621"/>
      <point x="33" y="612"/>
      <point x="47" y="612" type="curve"/>
      <point x="270" y="612" type="line" smooth="yes"/>
      <point x="284" y="612"/>
      <point x="290" y="621"/>
      <point x="290" y="642" type="curve" smooth="yes"/>
      <point x="290" y="652" type="line" smooth="yes"/>
      <point x="290" y="673"/>
      <point x="284" y="682"/>
      <point x="270" y="682" type="curve" smooth="yes"/>
    </contour>
    <contour>
      <point x="157" y="700" type="move" name="top"/>
    </contour>
    <contour>
      <point x="159" y="523" type="move" name="_top"/>
    </contour>
  </outline>
</glyph>
<glyph name="degree" format="1">
  <advance width="345"/>
  <unicode hex="00B0"/>
  <outline>
    <contour>
      <point x="97" y="706"/>
      <point x="38" y="646"/>
      <point x="38" y="573" type="curve" smooth="yes"/>
      <point x="38" y="500"/>
      <point x="97" y="441"/>
      <point x="170" y="441" type="curve" smooth="yes"/>
      <point x="243" y="441"/>
      <point x="303" y="500"/>
      <point x="303" y="573" type="curve" smooth="yes"/>
      <point x="303" y="646"/>
      <point x="243" y="706"/>
      <point x="170" y="706" type="curve" smooth="yes"/>
    </contour>
    <contour>
      <point x="216" y="661"/>
      <point x="254" y="621"/>
      <point x="254" y="573" type="curve" smooth="yes"/>
      <point x="254" y="525"/>
      <point x="216" y="486"/>
      <point x="170" y="486" type="curve" smooth="yes"/>
      <point x="124" y="486"/>
      <point x="87" y="525"/>
      <point x="87" y="573" type="curve" smooth="yes"/>
      <point x="87" y="621"/>
      <point x="124" y="661"/>
      <point x="170" y="661" type="curve" smooth="yes"/>
    </contour>
  </outline>
</glyph>
<glyph name="plusminus" format="1">
  <advance width="560"/>
  <unicode hex="00B1"/>
  <outline>
    <contour>
      <point x="277" y="593" type="line" smooth="yes"/>
      <point x="258" y="593"/>
      <point x="247" y="583"/>
      <point x="247" y="563" type="curve" smooth="yes"/>
      <point x="247" y="394" type="line"/>
      <point x="78" y="394" type="line" smooth="yes"/>
      <point x="59" y="394"/>
      <point x="48" y="384"/>
      <point x="48" y="364" type="curve" smooth="yes"/>
      <point x="48" y="357" type="line" smooth="yes"/>
      <point x="48" y="338"/>
      <point x="59" y="327"/>
      <point x="78" y="327" type="curve" smooth="yes"/>
      <point x="247" y="327" type="line"/>
      <point x="247" y="159" type="line" smooth="yes"/>
      <point x="247" y="140"/>
      <point x="258" y="129"/>
      <point x="277" y="129" type="curve" smooth="yes"/>
      <point x="284" y="129" type="line" smooth="yes"/>
      <point x="304" y="129"/>
      <point x="314" y="140"/>
      <point x="314" y="159" type="curve" smooth="yes"/>
      <point x="314" y="327" type="line"/>
      <point x="482" y="327" type="line" smooth="yes"/>
      <point x="502" y="327"/>
      <point x="512" y="338"/>
      <point x="512" y="357" type="curve" smooth="yes"/>
      <point x="512" y="364" type="line" smooth="yes"/>
      <point x="512" y="384"/>
      <point x="502" y="394"/>
      <point x="482" y="394" type="curve" smooth="yes"/>
      <point x="314" y="394" type="line"/>
      <point x="314" y="563" type="line" smooth="yes"/>
      <point x="314" y="583"/>
      <point x="304" y="593"/>
      <point x="284" y="593" type="curve" smooth="yes"/>
    </contour>
    <contour>
      <point x="68" y="73" type="line" smooth="yes"/>
      <point x="49" y="73"/>
      <point x="38" y="63"/>
      <point x="38" y="43" type="curve" smooth="yes"/>
      <point x="38" y="30" type="line" smooth="yes"/>
      <point x="38" y="10"/>
      <point x="49" y="0"/>
      <point x="68" y="0" type="curve" smooth="yes"/>
      <point x="492" y="0" type="line" smooth="yes"/>
      <point x="512" y="0"/>
      <point x="522" y="10"/>
      <point x="522" y="30" type="curve" smooth="yes"/>
      <point x="522" y="43" type="line" smooth="yes"/>
      <point x="522" y="63"/>
      <point x="512" y="73"/>
      <point x="492" y="73" type="curve" smooth="yes"/>
    </contour>
  </outline>
</glyph>
<glyph name="uni00B3" format="1">
  <advance width="320"/>
  <unicode hex="00B3"/>
  <outline>
    <contour>
      <point x="123" y="706"/>
      <point x="55" y="693"/>
      <point x="55" y="675" type="curve" smooth="yes"/>
      <point x="55" y="666"/>
      <point x="67" y="645"/>
      <point x="74" y="645" type="curve" smooth="yes"/>
      <point x="84" y="645"/>
      <point x="105" y="664"/>
      <point x="157" y="664" type="curve" smooth="yes"/>
      <point x="213" y="664"/>
      <point x="226" y="630"/>
      <point x="226" y="608" type="curve" smooth="yes"/>
      <point x="226" y="581"/>
      <point x="209" y="533"/>
      <point x="149" y="533" type="curve" smooth="yes"/>
      <point x="133" y="533" type="line" smooth="yes"/>
      <point x="125" y="533"/>
      <point x="121" y="527"/>
      <point x="121" y="515" type="curve" smooth="yes"/>
      <point x="121" y="509" type="line" smooth="yes"/>
      <point x="121" y="497"/>
      <point x="125" y="491"/>
      <point x="133" y="491" type="curve" smooth="yes"/>
      <point x="151" y="491" type="line" smooth="yes"/>
      <point x="203" y="491"/>
      <point x="238" y="474"/>
      <point x="238" y="414" type="curve" smooth="yes"/>
      <point x="238" y="352"/>
      <point x="189" y="335"/>
      <point x="154" y="335" type="curve" smooth="yes"/>
      <point x="104" y="335"/>
      <point x="74" y="355"/>
      <point x="63" y="355" type="curve" smooth="yes"/>
      <point x="57" y="355"/>
      <point x="43" y="337"/>
      <point x="43" y="326" type="curve" smooth="yes"/>
      <point x="43" y="312"/>
      <point x="92" y="293"/>
      <point x="159" y="293" type="curve" smooth="yes"/>
      <point x="217" y="293"/>
      <point x="289" y="325"/>
      <point x="289" y="414" type="curve" smooth="yes"/>
      <point x="289" y="475"/>
      <point x="251" y="511"/>
      <point x="216" y="520" type="curve"/>
      <point x="216" y="524" type="line"/>
      <point x="247" y="537"/>
      <point x="276" y="563"/>
      <point x="276" y="603" type="curve" smooth="yes"/>
      <point x="276" y="672"/>
      <point x="227" y="706"/>
      <point x="158" y="706" type="curve" smooth="yes"/>
    </contour>
  </outline>
</glyph>
<glyph name="acute" format="1">
  <advance width="320"/>
  <unicode hex="00B4"/>
  <outline>
    <contour>
      <point x="162" y="732"/>
      <point x="143" y="725"/>
      <point x="132" y="706" type="curve" smooth="yes"/>
      <point x="86" y="626"/>
      <point x="74" y="605"/>
      <point x="74" y="595" type="curve" smooth="yes"/>
      <point x="74" y="588"/>
      <point x="81" y="585"/>
      <point x="97" y="585" type="curve" smooth="yes"/>
      <point x="118" y="585"/>
      <point x="137" y="591"/>
      <point x="148" y="603" type="curve" smooth="yes"/>
      <point x="232" y="699"/>
      <point x="242" y="708"/>
      <point x="242" y="719" type="curve" smooth="yes"/>
      <point x="242" y="729"/>
      <point x="226" y="732"/>
      <point x="194" y="732" type="curve" smooth="yes"/>
    </contour>
    <contour>
      <point x="120" y="700" type="move" name="top"/>
    </contour>
    <contour>
      <point x="114" y="523" type="move" name="_top"/>
    </contour>
  </outline>
</glyph>
<glyph name="periodcentered" format="1">
  <advance width="267"/>
  <unicode hex="00B7"/>
  <outline>
    <contour>
      <point x="112" y="412"/>
      <point x="90" y="389"/>
      <point x="90" y="360" type="curve" smooth="yes"/>
      <point x="90" y="331"/>
      <point x="112" y="309"/>
      <point x="141" y="309" type="curve" smooth="yes"/>
      <point x="170" y="309"/>
      <point x="193" y="331"/>
      <point x="193" y="360" type="curve" smooth="yes"/>
      <point x="193" y="389"/>
      <point x="170" y="412"/>
      <point x="141" y="412" type="curve" smooth="yes"/>
    </contour>
    <contour>
      <point x="140" y="335" type="move" name="_center"/>
    </contour>
  </outline>
</glyph>
<glyph name="cedilla" format="1">
  <advance width="320"/>
  <unicode hex="00B8"/>
  <outline>
    <contour>
      <point x="157" y="0" type="line"/>
      <point x="140" y="-53"/>
      <point x="138" y="-60"/>
      <point x="138" y="-68" type="curve" smooth="yes"/>
      <point x="138" y="-95"/>
      <point x="204" y="-81"/>
      <point x="204" y="-126" type="curve" smooth="yes"/>
      <point x="204" y="-157"/>
      <point x="171" y="-161"/>
      <point x="147" y="-161" type="curve" smooth="yes"/>
      <point x="109" y="-161"/>
      <point x="80" y="-141"/>
      <point x="64" y="-141" type="curve" smooth="yes"/>
      <point x="49" y="-141"/>
      <point x="45" y="-155"/>
      <point x="45" y="-167" type="curve" smooth="yes"/>
      <point x="45" y="-194"/>
      <point x="115" y="-210"/>
      <point x="160" y="-210" type="curve" smooth="yes"/>
      <point x="210" y="-210"/>
      <point x="275" y="-199"/>
      <point x="275" y="-121" type="curve" smooth="yes"/>
      <point x="275" y="-56"/>
      <point x="212" y="-49"/>
      <point x="190" y="-49" type="curve" smooth="yes"/>
      <point x="174" y="-49" type="line"/>
      <point x="183" y="-59" type="line"/>
      <point x="200" y="0" type="line"/>
    </contour>
    <contour>
      <point x="176" y="0" type="move" name="_bottom"/>
    </contour>
    <contour>
      <point x="156" y="-203" type="move" name="bottom"/>
    </contour>
  </outline>
</glyph>
<glyph name="onequarter" format="1">
  <advance width="671"/>
  <unicode hex="00BC"/>
  <outline>
    <contour>
      <point x="530" y="703" type="line" smooth="yes"/>
      <point x="516" y="703"/>
      <point x="507" y="698"/>
      <point x="500" y="686" type="curve" smooth="yes"/>
      <point x="94" y="15" type="line" smooth="yes"/>
      <point x="91" y="11"/>
      <point x="90" y="7"/>
      <point x="90" y="5" type="curve" smooth="yes"/>
      <point x="90" y="0"/>
      <point x="95" y="-2"/>
      <point x="104" y="-2" type="curve" smooth="yes"/>
      <point x="117" y="-2" type="line" smooth="yes"/>
      <point x="131" y="-2"/>
      <point x="140" y="3"/>
      <point x="147" y="15" type="curve" smooth="yes"/>
      <point x="553" y="686" type="line" smooth="yes"/>
      <point x="555" y="690"/>
      <point x="557" y="693"/>
      <point x="557" y="696" type="curve" smooth="yes"/>
      <point x="557" y="701"/>
      <point x="552" y="703"/>
      <point x="543" y="703" type="curve" smooth="yes"/>
    </contour>
    <contour>
      <point x="51" y="674" type="line" smooth="yes"/>
      <point x="44" y="672"/>
      <point x="41" y="669"/>
      <point x="41" y="663" type="curve" smooth="yes"/>
      <point x="41" y="652"/>
      <point x="44" y="633"/>
      <point x="53" y="633" type="curve"/>
      <point x="127" y="649" type="line"/>
      <point x="127" y="311" type="line" smooth="yes"/>
      <point x="127" y="301"/>
      <point x="138" y="297"/>
      <point x="148" y="297" type="curve"/>
      <point x="153" y="297" type="line" smooth="yes"/>
      <point x="163" y="297"/>
      <point x="175" y="301"/>
      <point x="175" y="311" type="curve" smooth="yes"/>
      <point x="175" y="690" type="line" smooth="yes"/>
      <point x="175" y="697"/>
      <point x="166" y="702"/>
      <point x="157" y="702" type="curve"/>
    </contour>
    <contour>
      <point x="552" y="404" type="line" smooth="yes"/>
      <point x="544" y="404"/>
      <point x="536" y="401"/>
      <point x="532" y="396" type="curve" smooth="yes"/>
      <point x="342" y="124" type="line" smooth="yes"/>
      <point x="341" y="122"/>
      <point x="341" y="119"/>
      <point x="341" y="117" type="curve" smooth="yes"/>
      <point x="341" y="106"/>
      <point x="349" y="87"/>
      <point x="355" y="87" type="curve" smooth="yes"/>
      <point x="530" y="87" type="line"/>
      <point x="530" y="11" type="line" smooth="yes"/>
      <point x="530" y="3"/>
      <point x="536" y="-2"/>
      <point x="548" y="-2" type="curve" smooth="yes"/>
      <point x="561" y="-2" type="line" smooth="yes"/>
      <point x="573" y="-2"/>
      <point x="578" y="3"/>
      <point x="578" y="11" type="curve" smooth="yes"/>
      <point x="578" y="87" type="line"/>
      <point x="617" y="87" type="line" smooth="yes"/>
      <point x="625" y="87"/>
      <point x="628" y="93"/>
      <point x="628" y="105" type="curve" smooth="yes"/>
      <point x="628" y="112" type="line" smooth="yes"/>
      <point x="628" y="124"/>
      <point x="625" y="129"/>
      <point x="617" y="129" type="curve" smooth="yes"/>
      <point x="578" y="129" type="line"/>
      <point x="578" y="391" type="line" smooth="yes"/>
      <point x="578" y="399"/>
      <point x="573" y="404"/>
      <point x="561" y="404" type="curve" smooth="yes"/>
    </contour>
    <contour>
      <point x="530" y="260" type="line"/>
      <point x="530" y="129" type="line"/>
      <point x="398" y="129" type="line"/>
      <point x="529" y="324" type="line"/>
      <point x="532" y="322" type="line"/>
    </contour>
  </outline>
</glyph>
<glyph name="onehalf" format="1">
  <advance width="746"/>
  <unicode hex="00BD"/>
  <outline>
    <contour>
      <point x="530" y="703" type="line" smooth="yes"/>
      <point x="516" y="703"/>
      <point x="507" y="698"/>
      <point x="500" y="686" type="curve" smooth="yes"/>
      <point x="94" y="15" type="line" smooth="yes"/>
      <point x="91" y="11"/>
      <point x="90" y="7"/>
      <point x="90" y="5" type="curve" smooth="yes"/>
      <point x="90" y="0"/>
      <point x="95" y="-2"/>
      <point x="104" y="-2" type="curve" smooth="yes"/>
      <point x="117" y="-2" type="line" smooth="yes"/>
      <point x="131" y="-2"/>
      <point x="140" y="3"/>
      <point x="147" y="15" type="curve" smooth="yes"/>
      <point x="553" y="686" type="line" smooth="yes"/>
      <point x="555" y="690"/>
      <point x="557" y="693"/>
      <point x="557" y="696" type="curve" smooth="yes"/>
      <point x="557" y="701"/>
      <point x="552" y="703"/>
      <point x="543" y="703" type="curve" smooth="yes"/>
    </contour>
    <contour>
      <point x="51" y="674" type="line" smooth="yes"/>
      <point x="44" y="672"/>
      <point x="41" y="669"/>
      <point x="41" y="663" type="curve" smooth="yes"/>
      <point x="41" y="652"/>
      <point x="44" y="633"/>
      <point x="53" y="633" type="curve"/>
      <point x="127" y="649" type="line"/>
      <point x="127" y="311" type="line" smooth="yes"/>
      <point x="127" y="301"/>
      <point x="138" y="297"/>
      <point x="148" y="297" type="curve"/>
      <point x="153" y="297" type="line" smooth="yes"/>
      <point x="163" y="297"/>
      <point x="175" y="301"/>
      <point x="175" y="311" type="curve" smooth="yes"/>
      <point x="175" y="690" type="line" smooth="yes"/>
      <point x="175" y="697"/>
      <point x="166" y="702"/>
      <point x="157" y="702" type="curve"/>
    </contour>
    <contour>
      <point x="528" y="407"/>
      <point x="459" y="389"/>
      <point x="459" y="365" type="curve" smooth="yes"/>
      <point x="459" y="356"/>
      <point x="472" y="336"/>
      <point x="478" y="336" type="curve" smooth="yes"/>
      <point x="488" y="336"/>
      <point x="512" y="365"/>
      <point x="564" y="365" type="curve" smooth="yes"/>
      <point x="609" y="365"/>
      <point x="636" y="342"/>
      <point x="636" y="306" type="curve" smooth="yes"/>
      <point x="636" y="281"/>
      <point x="633" y="269"/>
      <point x="588" y="211" type="curve"/>
      <point x="448" y="35" type="line"/>
      <point x="447" y="33"/>
      <point x="446" y="29"/>
      <point x="446" y="25" type="curve" smooth="yes"/>
      <point x="446" y="14"/>
      <point x="451" y="0"/>
      <point x="458" y="0" type="curve" smooth="yes"/>
      <point x="678" y="0" type="line" smooth="yes"/>
      <point x="686" y="0"/>
      <point x="689" y="5"/>
      <point x="689" y="17" type="curve" smooth="yes"/>
      <point x="689" y="24" type="line" smooth="yes"/>
      <point x="689" y="36"/>
      <point x="686" y="41"/>
      <point x="678" y="41" type="curve" smooth="yes"/>
      <point x="512" y="41" type="line"/>
      <point x="635" y="192" type="line"/>
      <point x="681" y="253"/>
      <point x="686" y="272"/>
      <point x="686" y="309" type="curve" smooth="yes"/>
      <point x="686" y="370"/>
      <point x="639" y="407"/>
      <point x="563" y="407" type="curve" smooth="yes"/>
    </contour>
  </outline>
</glyph>
<glyph name="questiondown" format="1">
  <advance width="425"/>
  <unicode hex="00BF"/>
  <outline>
    <contour>
      <point x="250" y="321" type="line" smooth="yes"/>
      <point x="226" y="321"/>
      <point x="219" y="314"/>
      <point x="217" y="301" type="curve" smooth="yes"/>
      <point x="202" y="185"/>
      <point x="19" y="120"/>
      <point x="19" y="-15" type="curve" smooth="yes"/>
      <point x="19" y="-105"/>
      <point x="91" y="-183"/>
      <point x="224" y="-183" type="curve" smooth="yes"/>
      <point x="297" y="-183"/>
      <point x="396" y="-160"/>
      <point x="396" y="-126" type="curve" smooth="yes"/>
      <point x="396" y="-112"/>
      <point x="374" y="-75"/>
      <point x="364" y="-75" type="curve" smooth="yes"/>
      <point x="349" y="-75"/>
      <point x="303" y="-109"/>
      <point x="240" y="-109" type="curve" smooth="yes"/>
      <point x="157" y="-109"/>
      <point x="114" y="-75"/>
      <point x="114" y="-5" type="curve" smooth="yes"/>
      <point x="114" y="45"/>
      <point x="158" y="88"/>
      <point x="209" y="139" type="curve" smooth="yes"/>
      <point x="264" y="194"/>
      <point x="295" y="253"/>
      <point x="295" y="298" type="curve" smooth="yes"/>
      <point x="295" y="312"/>
      <point x="286" y="321"/>
      <point x="265" y="321" type="curve" smooth="yes"/>
    </contour>
    <contour>
      <point x="253" y="525" type="line" smooth="yes"/>
      <point x="225" y="525"/>
      <point x="213" y="517"/>
      <point x="213" y="503" type="curve" smooth="yes"/>
      <point x="213" y="437" type="line" smooth="yes"/>
      <point x="213" y="423"/>
      <point x="225" y="415"/>
      <point x="253" y="415" type="curve"/>
      <point x="270" y="415" type="line" smooth="yes"/>
      <point x="298" y="415"/>
      <point x="310" y="423"/>
      <point x="310" y="437" type="curve" smooth="yes"/>
      <point x="310" y="503" type="line" smooth="yes"/>
      <point x="310" y="517"/>
      <point x="298" y="525"/>
      <point x="270" y="525" type="curve" smooth="yes"/>
    </contour>
  </outline>
</glyph>
<glyph name="AE" format="1">
  <advance width="915"/>
  <unicode hex="00C6"/>
  <outline>
    <contour>
      <point x="357" y="700" type="line" smooth="yes"/>
      <point x="336" y="700"/>
      <point x="323" y="692"/>
      <point x="314" y="673" type="curve" smooth="yes"/>
      <point x="-7" y="31" type="line" smooth="yes"/>
      <point x="-10" y="25"/>
      <point x="-11" y="19"/>
      <point x="-11" y="15" type="curve" smooth="yes"/>
      <point x="-11" y="4"/>
      <point x="-2" y="-2"/>
      <point x="28" y="-2" type="curve" smooth="yes"/>
      <point x="33" y="-2" type="line" smooth="yes"/>
      <point x="52" y="-2"/>
      <point x="67" y="3"/>
      <point x="73" y="14" type="curve" smooth="yes"/>
      <point x="153" y="178" type="line"/>
      <point x="448" y="178" type="line"/>
      <point x="480" y="29" type="line" smooth="yes"/>
      <point x="484" y="9"/>
      <point x="495" y="0"/>
      <point x="516" y="0" type="curve" smooth="yes"/>
      <point x="803" y="0" type="line" smooth="yes"/>
      <point x="817" y="0"/>
      <point x="823" y="9"/>
      <point x="823" y="30" type="curve" smooth="yes"/>
      <point x="823" y="46" type="line" smooth="yes"/>
      <point x="823" y="67"/>
      <point x="817" y="76"/>
      <point x="803" y="76" type="curve" smooth="yes"/>
      <point x="559" y="76" type="line"/>
      <point x="506" y="320" type="line"/>
      <point x="772" y="320" type="line" smooth="yes"/>
      <point x="786" y="320"/>
      <point x="792" y="329"/>
      <point x="792" y="350" type="curve" smooth="yes"/>
      <point x="792" y="366" type="line" smooth="yes"/>
      <point x="792" y="387"/>
      <point x="786" y="396"/>
      <point x="772" y="396" type="curve" smooth="yes"/>
      <point x="490" y="396" type="line"/>
      <point x="440" y="624" type="line"/>
      <point x="802" y="624" type="line" smooth="yes"/>
      <point x="816" y="624"/>
      <point x="822" y="633"/>
      <point x="822" y="654" type="curve" smooth="yes"/>
      <point x="822" y="670" type="line" smooth="yes"/>
      <point x="822" y="691"/>
      <point x="816" y="700"/>
      <point x="802" y="700" type="curve" smooth="yes"/>
    </contour>
    <contour>
      <point x="367" y="552" type="line"/>
      <point x="431" y="253" type="line"/>
      <point x="192" y="253" type="line"/>
      <point x="340" y="552" type="line"/>
      <point x="361" y="610" type="line"/>
      <point x="363" y="610" type="line"/>
    </contour>
    <contour>
      <point x="458" y="700" type="move" name="top"/>
    </contour>
  </outline>
</glyph>
<glyph name="Eth" format="1">
  <advance width="696"/>
  <unicode hex="00D0"/>
  <outline>
    <contour>
      <point x="115" y="700" type="line" smooth="yes"/>
      <point x="94" y="700"/>
      <point x="85" y="691"/>
      <point x="85" y="670" type="curve" smooth="yes"/>
      <point x="85" y="396" type="line"/>
      <point x="20" y="396" type="line" smooth="yes"/>
      <point x="6" y="396"/>
      <point x="0" y="387"/>
      <point x="0" y="366" type="curve" smooth="yes"/>
      <point x="0" y="350" type="line" smooth="yes"/>
      <point x="0" y="329"/>
      <point x="6" y="320"/>
      <point x="20" y="320" type="curve" smooth="yes"/>
      <point x="85" y="320" type="line"/>
      <point x="85" y="30" type="line" smooth="yes"/>
      <point x="85" y="9"/>
      <point x="94" y="0"/>
      <point x="115" y="0" type="curve" smooth="yes"/>
      <point x="330" y="0" type="line" smooth="yes"/>
      <point x="502" y="0"/>
      <point x="641" y="90"/>
      <point x="641" y="350" type="curve" smooth="yes"/>
      <point x="641" y="609"/>
      <point x="502" y="700"/>
      <point x="330" y="700" type="curve" smooth="yes"/>
    </contour>
    <contour>
      <point x="448" y="624"/>
      <point x="550" y="549"/>
      <point x="550" y="350" type="curve" smooth="yes"/>
      <point x="550" y="150"/>
      <point x="448" y="76"/>
      <point x="323" y="76" type="curve" smooth="yes"/>
      <point x="173" y="76" type="line"/>
      <point x="173" y="320" type="line"/>
      <point x="283" y="320" type="line" smooth="yes"/>
      <point x="297" y="320"/>
      <point x="303" y="329"/>
      <point x="303" y="350" type="curve" smooth="yes"/>
      <point x="303" y="366" type="line" smooth="yes"/>
      <point x="303" y="387"/>
      <point x="297" y="396"/>
      <point x="283" y="396" type="curve" smooth="yes"/>
      <point x="173" y="396" type="line"/>
      <point x="173" y="624" type="line"/>
      <point x="323" y="624" type="line" smooth="yes"/>
    </contour>
  </outline>
</glyph>
<glyph name="Oslash" format="1">
  <advance width="731"/>
  <unicode hex="00D8"/>
  <outline>
    <contour>
      <point x="165" y="706"/>
      <point x="57" y="586"/>
      <point x="57" y="352" type="curve" smooth="yes"/>
      <point x="57" y="253"/>
      <point x="76" y="175"/>
      <point x="113" y="116" type="curve"/>
      <point x="40" y="36" type="line" smooth="yes"/>
      <point x="36" y="31"/>
      <point x="34" y="26"/>
      <point x="34" y="22" type="curve" smooth="yes"/>
      <point x="34" y="13"/>
      <point x="47" y="1"/>
      <point x="56" y="1" type="curve" smooth="yes"/>
      <point x="60" y="1"/>
      <point x="65" y="4"/>
      <point x="70" y="10" type="curve" smooth="yes"/>
      <point x="137" y="84" type="line"/>
      <point x="189" y="24"/>
      <point x="265" y="-6"/>
      <point x="365" y="-6" type="curve" smooth="yes"/>
      <point x="566" y="-6"/>
      <point x="674" y="118"/>
      <point x="674" y="352" type="curve" smooth="yes"/>
      <point x="674" y="461"/>
      <point x="650" y="545"/>
      <point x="605" y="604" type="curve"/>
      <point x="663" y="668" type="line" smooth="yes"/>
      <point x="667" y="673"/>
      <point x="669" y="677"/>
      <point x="669" y="682" type="curve" smooth="yes"/>
      <point x="669" y="690"/>
      <point x="656" y="702"/>
      <point x="647" y="702" type="curve" smooth="yes"/>
      <point x="642" y="702"/>
      <point x="638" y="700"/>
      <point x="633" y="694" type="curve" smooth="yes"/>
      <point x="578" y="633" type="line"/>
      <point x="526" y="681"/>
      <point x="455" y="706"/>
      <point x="365" y="706" type="curve" smooth="yes"/>
    </contour>
    <contour>
      <point x="569" y="491"/>
      <point x="583" y="429"/>
      <point x="583" y="352" type="curve" smooth="yes"/>
      <point x="583" y="168"/>
      <point x="506" y="70"/>
      <point x="365" y="70" type="curve" smooth="yes"/>
      <point x="290" y="70"/>
      <point x="233" y="97"/>
      <point x="197" y="151" type="curve"/>
      <point x="543" y="536" type="line"/>
    </contour>
    <contour>
      <point x="431" y="630"/>
      <point x="483" y="609"/>
      <point x="519" y="568" type="curve"/>
      <point x="177" y="187" type="line"/>
      <point x="158" y="231"/>
      <point x="148" y="286"/>
      <point x="148" y="352" type="curve" smooth="yes"/>
      <point x="148" y="536"/>
      <point x="224" y="630"/>
      <point x="365" y="630" type="curve" smooth="yes"/>
    </contour>
    <contour>
      <point x="366" y="700" type="move" name="top"/>
    </contour>
  </outline>
</glyph>
<glyph name="Thorn" format="1">
  <advance width="567"/>
  <unicode hex="00DE"/>
  <outline>
    <contour>
      <point x="125" y="702" type="line" smooth="yes"/>
      <point x="97" y="702"/>
      <point x="85" y="694"/>
      <point x="85" y="680" type="curve" smooth="yes"/>
      <point x="85" y="20" type="line" smooth="yes"/>
      <point x="85" y="6"/>
      <point x="97" y="-2"/>
      <point x="125" y="-2" type="curve" smooth="yes"/>
      <point x="133" y="-2" type="line" smooth="yes"/>
      <point x="161" y="-2"/>
      <point x="173" y="6"/>
      <point x="173" y="20" type="curve" smooth="yes"/>
      <point x="173" y="176" type="line"/>
      <point x="328" y="176" type="line" smooth="yes"/>
      <point x="380" y="176"/>
      <point x="541" y="199"/>
      <point x="541" y="382" type="curve" smooth="yes"/>
      <point x="541" y="551"/>
      <point x="404" y="578"/>
      <point x="318" y="578" type="curve" smooth="yes"/>
      <point x="173" y="578" type="line"/>
      <point x="173" y="680" type="line" smooth="yes"/>
      <point x="173" y="694"/>
      <point x="161" y="702"/>
      <point x="133" y="702" type="curve" smooth="yes"/>
    </contour>
    <contour>
      <point x="374" y="502"/>
      <point x="450" y="481"/>
      <point x="450" y="382" type="curve" smooth="yes"/>
      <point x="450" y="273"/>
      <point x="369" y="252"/>
      <point x="329" y="252" type="curve" smooth="yes"/>
      <point x="173" y="252" type="line"/>
      <point x="173" y="502" type="line"/>
      <point x="315" y="502" type="line" smooth="yes"/>
    </contour>
  </outline>
</glyph>
<glyph name="ae" format="1">
  <advance width="829"/>
  <unicode hex="00E6"/>
  <outline>
    <contour>
      <point x="505" y="529"/>
      <point x="454" y="513"/>
      <point x="416" y="481" type="curve"/>
      <point x="382" y="512"/>
      <point x="330" y="529"/>
      <point x="264" y="529" type="curve" smooth="yes"/>
      <point x="164" y="529"/>
      <point x="76" y="491"/>
      <point x="76" y="465" type="curve" smooth="yes"/>
      <point x="76" y="454"/>
      <point x="97" y="415"/>
      <point x="111" y="415" type="curve" smooth="yes"/>
      <point x="121" y="415"/>
      <point x="176" y="457"/>
      <point x="267" y="457" type="curve" smooth="yes"/>
      <point x="321" y="457"/>
      <point x="351" y="440"/>
      <point x="366" y="416" type="curve"/>
      <point x="351" y="387"/>
      <point x="342" y="352"/>
      <point x="338" y="312" type="curve"/>
      <point x="195" y="308"/>
      <point x="45" y="287"/>
      <point x="45" y="144" type="curve" smooth="yes"/>
      <point x="45" y="41"/>
      <point x="119" y="-6"/>
      <point x="216" y="-6" type="curve" smooth="yes"/>
      <point x="294" y="-6"/>
      <point x="356" y="23"/>
      <point x="397" y="57" type="curve"/>
      <point x="437" y="15"/>
      <point x="498" y="-6"/>
      <point x="580" y="-6" type="curve" smooth="yes"/>
      <point x="681" y="-6"/>
      <point x="760" y="34"/>
      <point x="760" y="58" type="curve" smooth="yes"/>
      <point x="760" y="69"/>
      <point x="739" y="108"/>
      <point x="725" y="108" type="curve" smooth="yes"/>
      <point x="715" y="108"/>
      <point x="666" y="66"/>
      <point x="579" y="66" type="curve" smooth="yes"/>
      <point x="480" y="66"/>
      <point x="433" y="120"/>
      <point x="425" y="241" type="curve"/>
      <point x="741" y="241" type="line" smooth="yes"/>
      <point x="753" y="241"/>
      <point x="774" y="270"/>
      <point x="774" y="282" type="curve" smooth="yes"/>
      <point x="774" y="442"/>
      <point x="705" y="529"/>
      <point x="568" y="529" type="curve" smooth="yes"/>
    </contour>
    <contour>
      <point x="336" y="193"/>
      <point x="344" y="152"/>
      <point x="358" y="119" type="curve"/>
      <point x="322" y="90"/>
      <point x="281" y="67"/>
      <point x="220" y="67" type="curve" smooth="yes"/>
      <point x="164" y="67"/>
      <point x="135" y="96"/>
      <point x="135" y="149" type="curve" smooth="yes"/>
      <point x="135" y="227"/>
      <point x="239" y="238"/>
      <point x="335" y="240" type="curve"/>
    </contour>
    <contour>
      <point x="645" y="457"/>
      <point x="685" y="408"/>
      <point x="685" y="313" type="curve"/>
      <point x="425" y="313" type="line"/>
      <point x="432" y="408"/>
      <point x="478" y="457"/>
      <point x="565" y="457" type="curve" smooth="yes"/>
    </contour>
    <contour>
      <point x="415" y="523" type="move" name="top"/>
    </contour>
  </outline>
</glyph>
<glyph name="eth" format="1">
  <advance width="569"/>
  <unicode hex="00F0"/>
  <outline>
    <contour>
      <point x="302" y="714"/>
      <point x="293" y="713"/>
      <point x="286" y="712" type="curve" smooth="yes"/>
      <point x="275" y="710"/>
      <point x="270" y="705"/>
      <point x="270" y="698" type="curve" smooth="yes"/>
      <point x="270" y="688"/>
      <point x="281" y="672"/>
      <point x="296" y="650" type="curve"/>
      <point x="224" y="640" type="line" smooth="yes"/>
      <point x="214" y="638"/>
      <point x="209" y="634"/>
      <point x="209" y="627" type="curve" smooth="yes"/>
      <point x="209" y="613"/>
      <point x="221" y="595"/>
      <point x="235" y="595" type="curve" smooth="yes"/>
      <point x="237" y="595"/>
      <point x="239" y="596"/>
      <point x="321" y="607" type="curve"/>
      <point x="336" y="581"/>
      <point x="352" y="550"/>
      <point x="367" y="517" type="curve"/>
      <point x="343" y="525"/>
      <point x="316" y="529"/>
      <point x="287" y="529" type="curve" smooth="yes"/>
      <point x="138" y="529"/>
      <point x="55" y="432"/>
      <point x="55" y="259" type="curve" smooth="yes"/>
      <point x="55" y="87"/>
      <point x="136" y="-6"/>
      <point x="287" y="-6" type="curve" smooth="yes"/>
      <point x="436" y="-6"/>
      <point x="514" y="86"/>
      <point x="514" y="259" type="curve" smooth="yes"/>
      <point x="514" y="389"/>
      <point x="467" y="513"/>
      <point x="400" y="618" type="curve"/>
      <point x="460" y="626" type="line" smooth="yes"/>
      <point x="470" y="627"/>
      <point x="475" y="632"/>
      <point x="475" y="639" type="curve" smooth="yes"/>
      <point x="475" y="644"/>
      <point x="469" y="671"/>
      <point x="450" y="671" type="curve" smooth="yes"/>
      <point x="449" y="671"/>
      <point x="448" y="671"/>
      <point x="372" y="660" type="curve"/>
      <point x="359" y="678"/>
      <point x="349" y="690"/>
      <point x="339" y="702" type="curve" smooth="yes"/>
      <point x="333" y="709"/>
      <point x="325" y="714"/>
      <point x="313" y="714" type="curve" smooth="yes"/>
    </contour>
    <contour>
      <point x="382" y="457"/>
      <point x="427" y="394"/>
      <point x="427" y="261" type="curve" smooth="yes"/>
      <point x="427" y="128"/>
      <point x="382" y="66"/>
      <point x="284" y="66" type="curve" smooth="yes"/>
      <point x="186" y="66"/>
      <point x="141" y="128"/>
      <point x="141" y="261" type="curve" smooth="yes"/>
      <point x="141" y="395"/>
      <point x="187" y="457"/>
      <point x="284" y="457" type="curve" smooth="yes"/>
    </contour>
  </outline>
</glyph>
<glyph name="divide" format="1">
  <advance width="560"/>
  <unicode hex="00F7"/>
  <outline>
    <contour>
      <point x="78" y="264" type="line" smooth="yes"/>
      <point x="59" y="264"/>
      <point x="48" y="254"/>
      <point x="48" y="234" type="curve" smooth="yes"/>
      <point x="48" y="227" type="line" smooth="yes"/>
      <point x="48" y="208"/>
      <point x="59" y="197"/>
      <point x="78" y="197" type="curve"/>
      <point x="482" y="197" type="line" smooth="yes"/>
      <point x="502" y="197"/>
      <point x="512" y="208"/>
      <point x="512" y="227" type="curve" smooth="yes"/>
      <point x="512" y="234" type="line" smooth="yes"/>
      <point x="512" y="254"/>
      <point x="502" y="264"/>
      <point x="482" y="264" type="curve" smooth="yes"/>
    </contour>
    <contour>
      <point x="278" y="93" type="line" smooth="yes"/>
      <point x="250" y="93"/>
      <point x="238" y="85"/>
      <point x="238" y="71" type="curve" smooth="yes"/>
      <point x="238" y="20" type="line" smooth="yes"/>
      <point x="238" y="6"/>
      <point x="250" y="-2"/>
      <point x="278" y="-2" type="curve" smooth="yes"/>
      <point x="282" y="-2" type="line" smooth="yes"/>
      <point x="310" y="-2"/>
      <point x="322" y="6"/>
      <point x="322" y="20" type="curve" smooth="yes"/>
      <point x="322" y="71" type="line" smooth="yes"/>
      <point x="322" y="85"/>
      <point x="310" y="93"/>
      <point x="282" y="93" type="curve" smooth="yes"/>
    </contour>
    <contour>
      <point x="278" y="463" type="line" smooth="yes"/>
      <point x="250" y="463"/>
      <point x="238" y="455"/>
      <point x="238" y="441" type="curve" smooth="yes"/>
      <point x="238" y="390" type="line" smooth="yes"/>
      <point x="238" y="376"/>
      <point x="250" y="368"/>
      <point x="278" y="368" type="curve" smooth="yes"/>
      <point x="282" y="368" type="line" smooth="yes"/>
      <point x="310" y="368"/>
      <point x="322" y="376"/>
      <point x="322" y="390" type="curve" smooth="yes"/>
      <point x="322" y="441" type="line" smooth="yes"/>
      <point x="322" y="455"/>
      <point x="310" y="463"/>
      <point x="282" y="463" type="curve" smooth="yes"/>
    </contour>
  </outline>
</glyph>
<glyph name="oslash" format="1">
  <advance width="569"/>
  <unicode hex="00F8"/>
  <outline>
    <contour>
      <point x="183" y="528"/>
      <point x="55" y="484"/>
      <point x="55" y="259" type="curve" smooth="yes"/>
      <point x="55" y="173"/>
      <point x="73" y="114"/>
      <point x="102" y="74" type="curve"/>
      <point x="71" y="37" type="line" smooth="yes"/>
      <point x="67" y="32"/>
      <point x="64" y="28"/>
      <point x="64" y="23" type="curve" smooth="yes"/>
      <point x="64" y="15"/>
      <point x="78" y="2"/>
      <point x="87" y="2" type="curve" smooth="yes"/>
      <point x="92" y="2"/>
      <point x="96" y="5"/>
      <point x="101" y="10" type="curve" smooth="yes"/>
      <point x="130" y="44" type="line"/>
      <point x="175" y="5"/>
      <point x="234" y="-5"/>
      <point x="287" y="-5" type="curve" smooth="yes"/>
      <point x="391" y="-5"/>
      <point x="514" y="34"/>
      <point x="514" y="259" type="curve" smooth="yes"/>
      <point x="514" y="342"/>
      <point x="497" y="400"/>
      <point x="470" y="441" type="curve"/>
      <point x="509" y="486" type="line" smooth="yes"/>
      <point x="513" y="491"/>
      <point x="515" y="495"/>
      <point x="515" y="500" type="curve" smooth="yes"/>
      <point x="515" y="508"/>
      <point x="501" y="521"/>
      <point x="493" y="521" type="curve" smooth="yes"/>
      <point x="488" y="521"/>
      <point x="484" y="518"/>
      <point x="479" y="513" type="curve" smooth="yes"/>
      <point x="445" y="473" type="line"/>
      <point x="400" y="516"/>
      <point x="341" y="528"/>
      <point x="287" y="528" type="curve" smooth="yes"/>
    </contour>
    <contour>
      <point x="422" y="343"/>
      <point x="427" y="307"/>
      <point x="427" y="261" type="curve" smooth="yes"/>
      <point x="427" y="116"/>
      <point x="373" y="67"/>
      <point x="284" y="67" type="curve" smooth="yes"/>
      <point x="241" y="67"/>
      <point x="207" y="78"/>
      <point x="183" y="105" type="curve"/>
      <point x="411" y="372" type="line"/>
    </contour>
    <contour>
      <point x="329" y="456"/>
      <point x="366" y="443"/>
      <point x="391" y="410" type="curve"/>
      <point x="160" y="142" type="line"/>
      <point x="148" y="171"/>
      <point x="142" y="210"/>
      <point x="142" y="261" type="curve" smooth="yes"/>
      <point x="142" y="406"/>
      <point x="195" y="456"/>
      <point x="284" y="456" type="curve" smooth="yes"/>
    </contour>
    <contour>
      <point x="285" y="523" type="move" name="top"/>
    </contour>
  </outline>
</glyph>
<glyph name="lslash" format="1">
  <advance width="293"/>
  <unicode hex="0142"/>
  <outline>
    <contour>
      <point x="120" y="752" type="line" smooth="yes"/>
      <point x="92" y="752"/>
      <point x="80" y="744"/>
      <point x="80" y="730" type="curve" smooth="yes"/>
      <point x="80" y="398" type="line"/>
      <point x="38" y="374" type="line" smooth="yes"/>
      <point x="26" y="367"/>
      <point x="19" y="358"/>
      <point x="19" y="344" type="curve" smooth="yes"/>
      <point x="19" y="338" type="line" smooth="yes"/>
      <point x="19" y="329"/>
      <point x="23" y="324"/>
      <point x="28" y="324" type="curve" smooth="yes"/>
      <point x="30" y="324"/>
      <point x="34" y="325"/>
      <point x="38" y="328" type="curve" smooth="yes"/>
      <point x="80" y="353" type="line"/>
      <point x="80" y="132" type="line" smooth="yes"/>
      <point x="80" y="16"/>
      <point x="159" y="-6"/>
      <point x="209" y="-6" type="curve" smooth="yes"/>
      <point x="236" y="-6"/>
      <point x="282" y="-3"/>
      <point x="282" y="24" type="curve" smooth="yes"/>
      <point x="282" y="32"/>
      <point x="275" y="71"/>
      <point x="261" y="71" type="curve" smooth="yes"/>
      <point x="252" y="71"/>
      <point x="247" y="66"/>
      <point x="218" y="66" type="curve" smooth="yes"/>
      <point x="189" y="66"/>
      <point x="164" y="80"/>
      <point x="164" y="140" type="curve" smooth="yes"/>
      <point x="164" y="402" type="line"/>
      <point x="206" y="427" type="line" smooth="yes"/>
      <point x="218" y="434"/>
      <point x="225" y="443"/>
      <point x="225" y="457" type="curve" smooth="yes"/>
      <point x="225" y="463" type="line" smooth="yes"/>
      <point x="225" y="472"/>
      <point x="221" y="477"/>
      <point x="216" y="477" type="curve" smooth="yes"/>
      <point x="213" y="477"/>
      <point x="210" y="475"/>
      <point x="206" y="473" type="curve" smooth="yes"/>
      <point x="164" y="448" type="line"/>
      <point x="164" y="730" type="line" smooth="yes"/>
      <point x="164" y="744"/>
      <point x="152" y="752"/>
      <point x="124" y="752" type="curve" smooth="yes"/>
    </contour>
  </outline>
</glyph>
<glyph name="OE" format="1">
  <advance width="1021"/>
  <unicode hex="0152"/>
  <outline>
    <contour>
      <point x="165" y="706"/>
      <point x="57" y="586"/>
      <point x="57" y="352" type="curve" smooth="yes"/>
      <point x="57" y="118"/>
      <point x="165" y="-6"/>
      <point x="365" y="-6" type="curve" smooth="yes"/>
      <point x="471" y="-6"/>
      <point x="549" y="28"/>
      <point x="600" y="96" type="curve"/>
      <point x="585" y="116" type="line"/>
      <point x="585" y="30" type="line" smooth="yes"/>
      <point x="585" y="9"/>
      <point x="594" y="0"/>
      <point x="615" y="0" type="curve" smooth="yes"/>
      <point x="968" y="0" type="line" smooth="yes"/>
      <point x="982" y="0"/>
      <point x="988" y="9"/>
      <point x="988" y="30" type="curve" smooth="yes"/>
      <point x="988" y="46" type="line" smooth="yes"/>
      <point x="988" y="67"/>
      <point x="982" y="76"/>
      <point x="968" y="76" type="curve" smooth="yes"/>
      <point x="673" y="76" type="line"/>
      <point x="673" y="320" type="line"/>
      <point x="937" y="320" type="line" smooth="yes"/>
      <point x="951" y="320"/>
      <point x="957" y="329"/>
      <point x="957" y="350" type="curve" smooth="yes"/>
      <point x="957" y="366" type="line" smooth="yes"/>
      <point x="957" y="387"/>
      <point x="951" y="396"/>
      <point x="937" y="396" type="curve" smooth="yes"/>
      <point x="673" y="396" type="line"/>
      <point x="673" y="624" type="line"/>
      <point x="967" y="624" type="line" smooth="yes"/>
      <point x="981" y="624"/>
      <point x="987" y="633"/>
      <point x="987" y="654" type="curve" smooth="yes"/>
      <point x="987" y="670" type="line" smooth="yes"/>
      <point x="987" y="691"/>
      <point x="981" y="700"/>
      <point x="967" y="700" type="curve" smooth="yes"/>
      <point x="615" y="700" type="line" smooth="yes"/>
      <point x="594" y="700"/>
      <point x="585" y="691"/>
      <point x="585" y="670" type="curve" smooth="yes"/>
      <point x="585" y="586" type="line"/>
      <point x="600" y="606" type="line"/>
      <point x="549" y="672"/>
      <point x="471" y="706"/>
      <point x="365" y="706" type="curve" smooth="yes"/>
    </contour>
    <contour>
      <point x="506" y="630"/>
      <point x="583" y="536"/>
      <point x="583" y="352" type="curve" smooth="yes"/>
      <point x="583" y="168"/>
      <point x="506" y="70"/>
      <point x="365" y="70" type="curve" smooth="yes"/>
      <point x="224" y="70"/>
      <point x="148" y="168"/>
      <point x="148" y="352" type="curve" smooth="yes"/>
      <point x="148" y="536"/>
      <point x="224" y="630"/>
      <point x="365" y="630" type="curve" smooth="yes"/>
    </contour>
    <contour>
      <point x="511" y="700" type="move" name="top"/>
    </contour>
  </outline>
</glyph>
<glyph name="oe" format="1">
  <advance width="871"/>
  <unicode hex="0153"/>
  <outline>
    <contour>
      <point x="446" y="470" type="line"/>
      <point x="408" y="509"/>
      <point x="354" y="529"/>
      <point x="287" y="529" type="curve" smooth="yes"/>
      <point x="138" y="529"/>
      <point x="55" y="432"/>
      <point x="55" y="259" type="curve" smooth="yes"/>
      <point x="55" y="87"/>
      <point x="136" y="-6"/>
      <point x="287" y="-6" type="curve" smooth="yes"/>
      <point x="355" y="-6"/>
      <point x="409" y="13"/>
      <point x="447" y="50" type="curve"/>
    </contour>
    <contour>
      <point x="392" y="457"/>
      <point x="440" y="394"/>
      <point x="440" y="261" type="curve" smooth="yes"/>
      <point x="440" y="128"/>
      <point x="392" y="66"/>
      <point x="284" y="66" type="curve" smooth="yes"/>
      <point x="186" y="66"/>
      <point x="143" y="128"/>
      <point x="143" y="261" type="curve" smooth="yes"/>
      <point x="143" y="395"/>
      <point x="187" y="457"/>
      <point x="284" y="457" type="curve" smooth="yes"/>
    </contour>
    <component base="e" xOffset="322"/>
    <contour>
      <point x="436" y="523" type="move" name="top"/>
    </contour>
  </outline>
</glyph>
<glyph name="florin" format="1">
  <advance width="332"/>
  <unicode hex="0192"/>
  <outline>
    <contour>
      <point x="226" y="756"/>
      <point x="143" y="737"/>
      <point x="127" y="618" type="curve" smooth="yes"/>
      <point x="113" y="513" type="line"/>
      <point x="73" y="513" type="line" smooth="yes"/>
      <point x="49" y="513"/>
      <point x="46" y="482"/>
      <point x="46" y="460" type="curve" smooth="yes"/>
      <point x="46" y="447"/>
      <point x="51" y="441"/>
      <point x="63" y="441" type="curve" smooth="yes"/>
      <point x="103" y="441" type="line"/>
      <point x="74" y="232"/>
      <point x="15" y="-171"/>
      <point x="15" y="-185" type="curve"/>
      <point x="15" y="-199"/>
      <point x="23" y="-207"/>
      <point x="52" y="-207" type="curve" smooth="yes"/>
      <point x="56" y="-207" type="line" smooth="yes"/>
      <point x="84" y="-207"/>
      <point x="97" y="-199"/>
      <point x="99" y="-185" type="curve" smooth="yes"/>
      <point x="187" y="441" type="line"/>
      <point x="274" y="441" type="line" smooth="yes"/>
      <point x="297" y="441"/>
      <point x="301" y="479"/>
      <point x="301" y="493" type="curve" smooth="yes"/>
      <point x="301" y="507"/>
      <point x="295" y="513"/>
      <point x="284" y="513" type="curve" smooth="yes"/>
      <point x="197" y="513" type="line"/>
      <point x="210" y="610" type="line" smooth="yes"/>
      <point x="219" y="676"/>
      <point x="247" y="684"/>
      <point x="275" y="684" type="curve" smooth="yes"/>
      <point x="304" y="684"/>
      <point x="308" y="679"/>
      <point x="317" y="679" type="curve" smooth="yes"/>
      <point x="331" y="679"/>
      <point x="343" y="718"/>
      <point x="345" y="726" type="curve"/>
      <point x="345" y="753"/>
      <point x="304" y="756"/>
      <point x="276" y="756" type="curve" smooth="yes"/>
    </contour>
  </outline>
</glyph>
<glyph name="Aringacute" format="1">
  <advance width="613"/>
  <unicode hex="01FA"/>
  <outline>
    <contour>
      <point x="334" y="929"/>
      <point x="315" y="923"/>
      <point x="304" y="903" type="curve" smooth="yes"/>
      <point x="292" y="881"/>
      <point x="285" y="868"/>
      <point x="267" y="832" type="curve" smooth="yes"/>
      <point x="267" y="825"/>
      <point x="274" y="822"/>
      <point x="290" y="822" type="curve" smooth="yes"/>
      <point x="311" y="822"/>
      <point x="330" y="828"/>
      <point x="341" y="840" type="curve" smooth="yes"/>
      <point x="405" y="904"/>
      <point x="414" y="909"/>
      <point x="414" y="916" type="curve" smooth="yes"/>
      <point x="414" y="926"/>
      <point x="398" y="929"/>
      <point x="366" y="929" type="curve" smooth="yes"/>
    </contour>
    <contour>
      <point x="292" y="642" type="line"/>
      <point x="252" y="686" type="line"/>
      <point x="15" y="29" type="line" smooth="yes"/>
      <point x="13" y="23"/>
      <point x="12" y="19"/>
      <point x="12" y="15" type="curve" smooth="yes"/>
      <point x="12" y="4"/>
      <point x="25" y="-2"/>
      <point x="55" y="-2" type="curve" smooth="yes"/>
      <point x="60" y="-2" type="line" smooth="yes"/>
      <point x="80" y="-2"/>
      <point x="96" y="2"/>
      <point x="100" y="14" type="curve" smooth="yes"/>
      <point x="157" y="178" type="line"/>
      <point x="451" y="178" type="line"/>
      <point x="510" y="14" type="line" smooth="yes"/>
      <point x="514" y="2"/>
      <point x="530" y="-2"/>
      <point x="550" y="-2" type="curve" smooth="yes"/>
      <point x="558" y="-2" type="line" smooth="yes"/>
      <point x="588" y="-2"/>
      <point x="601" y="5"/>
      <point x="601" y="15" type="curve" smooth="yes"/>
      <point x="601" y="19"/>
      <point x="600" y="23"/>
      <point x="598" y="28" type="curve" smooth="yes"/>
      <point x="361" y="686" type="line"/>
      <point x="321" y="642" type="line"/>
    </contour>
    <contour>
      <point x="310" y="591"/>
      <point x="313" y="570"/>
      <point x="319" y="552" type="curve" smooth="yes"/>
      <point x="424" y="254" type="line"/>
      <point x="185" y="254" type="line"/>
      <point x="290" y="552" type="line" smooth="yes"/>
      <point x="297" y="571"/>
      <point x="301" y="591"/>
      <point x="305" y="610" type="curve"/>
      <point x="307" y="610" type="line"/>
    </contour>
    <component base="ring" xOffset="147" yOffset="60"/>
  </outline>
</glyph>
<glyph name="circumflex" format="1">
  <advance width="320"/>
  <unicode hex="02C6"/>
  <outline>
    <contour>
      <point x="144" y="718" type="line" smooth="yes"/>
      <point x="124" y="718"/>
      <point x="108" y="711"/>
      <point x="98" y="696" type="curve" smooth="yes"/>
      <point x="42" y="608" type="line" smooth="yes"/>
      <point x="38" y="601"/>
      <point x="36" y="595"/>
      <point x="36" y="590" type="curve" smooth="yes"/>
      <point x="36" y="581"/>
      <point x="44" y="576"/>
      <point x="59" y="576" type="curve"/>
      <point x="61" y="576" type="line"/>
      <point x="75" y="576"/>
      <point x="85" y="580"/>
      <point x="95" y="589" type="curve"/>
      <point x="156" y="663" type="line"/>
      <point x="219" y="589" type="line"/>
      <point x="229" y="580"/>
      <point x="239" y="576"/>
      <point x="252" y="576" type="curve"/>
      <point x="254" y="576" type="line"/>
      <point x="270" y="576"/>
      <point x="278" y="582"/>
      <point x="278" y="591" type="curve" smooth="yes"/>
      <point x="278" y="596"/>
      <point x="276" y="602"/>
      <point x="272" y="608" type="curve" smooth="yes"/>
      <point x="215" y="696" type="line" smooth="yes"/>
      <point x="205" y="711"/>
      <point x="189" y="718"/>
      <point x="169" y="718" type="curve" smooth="yes"/>
    </contour>
    <contour>
      <point x="158" y="770" type="move" name="tilde"/>
    </contour>
    <contour>
      <point x="316" y="616" type="move" name="top"/>
    </contour>
    <contour>
      <point x="157" y="523" type="move" name="_top"/>
    </contour>
  </outline>
</glyph>
<glyph name="dotaccent" format="1">
  <advance width="320"/>
  <unicode hex="02D9"/>
  <outline>
    <contour>
      <point x="132" y="702"/>
      <point x="120" y="693"/>
      <point x="120" y="680" type="curve" smooth="yes"/>
      <point x="120" y="629" type="line" smooth="yes"/>
      <point x="120" y="615"/>
      <point x="132" y="607"/>
      <point x="160" y="607" type="curve"/>
      <point x="192" y="607"/>
      <point x="204" y="616"/>
      <point x="204" y="629" type="curve" smooth="yes"/>
      <point x="204" y="680" type="line" smooth="yes"/>
      <point x="204" y="694"/>
      <point x="192" y="702"/>
      <point x="164" y="702" type="curve" smooth="yes"/>
    </contour>
    <contour>
      <point x="165" y="700" type="move" name="top"/>
    </contour>
    <contour>
      <point x="162" y="523" type="move" name="_top"/>
    </contour>
  </outline>
</glyph>
<glyph name="ring" format="1">
  <advance width="320"/>
  <unicode hex="02DA"/>
  <outline>
    <contour>
      <point x="113" y="733"/>
      <point x="76" y="695"/>
      <point x="76" y="648" type="curve" smooth="yes"/>
      <point x="76" y="601"/>
      <point x="113" y="564"/>
      <point x="160" y="564" type="curve" smooth="yes"/>
      <point x="207" y="564"/>
      <point x="245" y="601"/>
      <point x="245" y="648" type="curve" smooth="yes"/>
      <point x="245" y="695"/>
      <point x="207" y="733"/>
      <point x="160" y="733" type="curve" smooth="yes"/>
    </contour>
    <contour>
      <point x="188" y="698"/>
      <point x="210" y="676"/>
      <point x="210" y="648" type="curve" smooth="yes"/>
      <point x="210" y="620"/>
      <point x="188" y="599"/>
      <point x="160" y="599" type="curve" smooth="yes"/>
      <point x="132" y="599"/>
      <point x="111" y="620"/>
      <point x="111" y="648" type="curve" smooth="yes"/>
      <point x="111" y="676"/>
      <point x="132" y="698"/>
      <point x="160" y="698" type="curve" smooth="yes"/>
    </contour>
    <contour>
      <point x="160" y="700" type="move" name="top"/>
    </contour>
    <contour>
      <point x="161" y="523" type="move" name="_top"/>
    </contour>
  </outline>
</glyph>
<glyph name="hungarumlaut" format="1">
  <advance width="384"/>
  <unicode hex="02DD"/>
  <outline>
    <contour>
      <point x="294" y="732"/>
      <point x="275" y="725"/>
      <point x="264" y="706" type="curve" smooth="yes"/>
      <point x="218" y="626"/>
      <point x="206" y="605"/>
      <point x="206" y="595" type="curve" smooth="yes"/>
      <point x="206" y="588"/>
      <point x="213" y="585"/>
      <point x="229" y="585" type="curve" smooth="yes"/>
      <point x="250" y="585"/>
      <point x="269" y="591"/>
      <point x="280" y="603" type="curve" smooth="yes"/>
      <point x="364" y="699"/>
      <point x="374" y="708"/>
      <point x="374" y="719" type="curve" smooth="yes"/>
      <point x="374" y="729"/>
      <point x="358" y="732"/>
      <point x="326" y="732" type="curve" smooth="yes"/>
    </contour>
    <contour>
      <point x="147" y="732"/>
      <point x="128" y="725"/>
      <point x="117" y="706" type="curve" smooth="yes"/>
      <point x="71" y="626"/>
      <point x="59" y="605"/>
      <point x="59" y="595" type="curve" smooth="yes"/>
      <point x="59" y="588"/>
      <point x="66" y="585"/>
      <point x="82" y="585" type="curve" smooth="yes"/>
      <point x="103" y="585"/>
      <point x="122" y="591"/>
      <point x="133" y="603" type="curve" smooth="yes"/>
      <point x="217" y="699"/>
      <point x="227" y="708"/>
      <point x="227" y="719" type="curve" smooth="yes"/>
      <point x="227" y="729"/>
      <point x="211" y="732"/>
      <point x="179" y="732" type="curve" smooth="yes"/>
    </contour>
    <contour>
      <point x="180" y="700" type="move" name="top"/>
    </contour>
    <contour>
      <point x="171" y="523" type="move" name="_top"/>
    </contour>
  </outline>
</glyph>
<glyph name="acutecomb" format="1">
  <advance width="0"/>
  <unicode hex="0301"/>
  <outline>
    <component base="acute" xOffset="-363"/>
    <contour>
      <point x="-241" y="700" type="move" name="top"/>
    </contour>
    <contour>
      <point x="-247" y="523" type="move" name="_top"/>
    </contour>
  </outline>
</glyph>
<glyph name="uni0304" format="1">
  <advance width="0"/>
  <unicode hex="0304"/>
  <outline>
    <component base="macron" xOffset="-164"/>
    <contour>
      <point x="-9" y="700" type="move" name="top"/>
    </contour>
    <contour>
      <point x="-6" y="523" type="move" name="_top"/>
    </contour>
  </outline>
</glyph>
<glyph name="hookabovecomb" format="1">
  <advance width="300"/>
  <unicode hex="0309"/>
  <outline>
    <contour>
      <point x="36" y="622"/>
      <point x="-26" y="609"/>
      <point x="-26" y="580" type="curve" smooth="yes"/>
      <point x="-26" y="571"/>
      <point x="-2" y="563"/>
      <point x="7" y="563" type="curve" smooth="yes"/>
      <point x="19" y="563"/>
      <point x="98" y="613"/>
      <point x="98" y="679" type="curve" smooth="yes"/>
      <point x="98" y="734"/>
      <point x="41" y="750"/>
      <point x="7" y="750" type="curve" smooth="yes"/>
      <point x="-28" y="750"/>
      <point x="-71" y="732"/>
      <point x="-71" y="719" type="curve" smooth="yes"/>
      <point x="-71" y="709"/>
      <point x="-55" y="686"/>
      <point x="-47" y="686" type="curve" smooth="yes"/>
      <point x="-42" y="686"/>
      <point x="-32" y="699"/>
      <point x="-1" y="699" type="curve" smooth="yes"/>
      <point x="19" y="699"/>
      <point x="36" y="690"/>
      <point x="36" y="672" type="curve" smooth="yes"/>
    </contour>
    <contour>
      <point x="1" y="700" type="move" name="top"/>
    </contour>
    <contour>
      <point x="0" y="523" type="move" name="_top"/>
    </contour>
  </outline>
</glyph>
<glyph name="uni030C" format="1">
  <advance width="0"/>
  <unicode hex="030C"/>
  <outline>
    <component base="caron" xOffset="-152"/>
    <contour>
      <point x="-1" y="700" type="move" name="top"/>
    </contour>
    <contour>
      <point x="4" y="523" type="move" name="_top"/>
    </contour>
  </outline>
</glyph>
<glyph name="uni031B" format="1">
  <advance width="600"/>
  <unicode hex="031B"/>
  <outline>
    <contour>
      <point x="450" y="621" type="line" smooth="yes"/>
      <point x="444" y="617"/>
      <point x="441" y="611"/>
      <point x="441" y="605" type="curve" smooth="yes"/>
      <point x="444" y="593"/>
      <point x="471" y="573"/>
      <point x="468" y="543" type="curve" smooth="yes"/>
      <point x="468" y="527"/>
      <point x="456" y="510"/>
      <point x="413" y="510" type="curve"/>
      <point x="378" y="510" type="line"/>
      <point x="416" y="477" type="line"/>
      <point x="494" y="477"/>
      <point x="529" y="514"/>
      <point x="529" y="567" type="curve" smooth="yes"/>
      <point x="529" y="596"/>
      <point x="509" y="641"/>
      <point x="486" y="641" type="curve" smooth="yes"/>
      <point x="482" y="641"/>
      <point x="478" y="640"/>
      <point x="474" y="637" type="curve" smooth="yes"/>
    </contour>
    <contour>
      <point x="378" y="510" type="move" name="_horn"/>
    </contour>
    <contour>
      <point x="276" y="530" type="move" name="top"/>
    </contour>
  </outline>
</glyph>
<glyph name="uni0326" format="1">
  <advance width="353"/>
  <unicode hex="0326"/>
  <outline>
    <contour>
      <point x="186" y="-51" type="line" smooth="yes"/>
      <point x="159" y="-51"/>
      <point x="146" y="-64"/>
      <point x="146" y="-83" type="curve" smooth="yes"/>
      <point x="146" y="-159"/>
      <point x="103" y="-197"/>
      <point x="103" y="-220" type="curve" smooth="yes"/>
      <point x="103" y="-232"/>
      <point x="121" y="-235"/>
      <point x="132" y="-235" type="curve" smooth="yes"/>
      <point x="165" y="-235"/>
      <point x="235" y="-175"/>
      <point x="235" y="-79" type="curve" smooth="yes"/>
      <point x="235" y="-62"/>
      <point x="220" y="-51"/>
      <point x="195" y="-51" type="curve" smooth="yes"/>
    </contour>
    <contour>
      <point x="191" y="0" type="move" name="_bottom"/>
    </contour>
    <contour>
      <point x="187" y="-203" type="move" name="bottom"/>
    </contour>
  </outline>
</glyph>
<glyph name="Omega" format="1">
  <advance width="731"/>
  <unicode hex="03A9"/>
  <outline>
    <contour>
      <point x="165" y="706"/>
      <point x="57" y="586"/>
      <point x="57" y="352" type="curve" smooth="yes"/>
      <point x="57" y="222"/>
      <point x="91" y="126"/>
      <point x="158" y="64" type="curve"/>
      <point x="136" y="65"/>
      <point x="83" y="68"/>
      <point x="61" y="68" type="curve" smooth="yes"/>
      <point x="47" y="68"/>
      <point x="41" y="59"/>
      <point x="41" y="38" type="curve" smooth="yes"/>
      <point x="41" y="30" type="line" smooth="yes"/>
      <point x="41" y="9"/>
      <point x="47" y="0"/>
      <point x="61" y="0" type="curve" smooth="yes"/>
      <point x="298" y="0" type="line" smooth="yes"/>
      <point x="312" y="0"/>
      <point x="318" y="9"/>
      <point x="318" y="30" type="curve" smooth="yes"/>
      <point x="318" y="34" type="line" smooth="yes"/>
      <point x="318" y="44"/>
      <point x="318" y="50"/>
      <point x="311" y="52" type="curve" smooth="yes"/>
      <point x="201" y="80"/>
      <point x="148" y="175"/>
      <point x="148" y="352" type="curve" smooth="yes"/>
      <point x="148" y="536"/>
      <point x="224" y="630"/>
      <point x="365" y="630" type="curve" smooth="yes"/>
      <point x="506" y="630"/>
      <point x="583" y="536"/>
      <point x="583" y="352" type="curve" smooth="yes"/>
      <point x="583" y="175"/>
      <point x="529" y="80"/>
      <point x="419" y="52" type="curve" smooth="yes"/>
      <point x="412" y="50"/>
      <point x="412" y="44"/>
      <point x="412" y="34" type="curve" smooth="yes"/>
      <point x="412" y="30" type="line" smooth="yes"/>
      <point x="412" y="9"/>
      <point x="418" y="0"/>
      <point x="432" y="0" type="curve" smooth="yes"/>
      <point x="669" y="0" type="line" smooth="yes"/>
      <point x="683" y="0"/>
      <point x="689" y="9"/>
      <point x="689" y="30" type="curve" smooth="yes"/>
      <point x="689" y="38" type="line" smooth="yes"/>
      <point x="689" y="59"/>
      <point x="683" y="68"/>
      <point x="669" y="68" type="curve" smooth="yes"/>
      <point x="647" y="68"/>
      <point x="594" y="65"/>
      <point x="572" y="64" type="curve"/>
      <point x="640" y="126"/>
      <point x="674" y="222"/>
      <point x="674" y="352" type="curve" smooth="yes"/>
      <point x="674" y="586"/>
      <point x="566" y="706"/>
      <point x="365" y="706" type="curve" smooth="yes"/>
    </contour>
    <contour>
      <point x="20" y="700" type="move" name="topleft"/>
    </contour>
  </outline>
</glyph>
<glyph name="pi" format="1">
  <advance width="616"/>
  <unicode hex="03C0"/>
  <outline>
    <contour>
      <point x="162" y="523" type="line" smooth="yes"/>
      <point x="75" y="523"/>
      <point x="14" y="513"/>
      <point x="14" y="479" type="curve" smooth="yes"/>
      <point x="14" y="456"/>
      <point x="18" y="442"/>
      <point x="34" y="442" type="curve" smooth="yes"/>
      <point x="52" y="442"/>
      <point x="62" y="451"/>
      <point x="140" y="451" type="curve"/>
      <point x="134" y="320"/>
      <point x="105" y="140"/>
      <point x="68" y="28" type="curve" smooth="yes"/>
      <point x="67" y="25"/>
      <point x="66" y="22"/>
      <point x="66" y="19" type="curve" smooth="yes"/>
      <point x="66" y="7"/>
      <point x="76" y="-2"/>
      <point x="94" y="-2" type="curve" smooth="yes"/>
      <point x="117" y="-2" type="line" smooth="yes"/>
      <point x="134" y="-2"/>
      <point x="145" y="7"/>
      <point x="151" y="23" type="curve" smooth="yes"/>
      <point x="187" y="126"/>
      <point x="218" y="324"/>
      <point x="224" y="451" type="curve"/>
      <point x="419" y="451" type="line"/>
      <point x="419" y="146" type="line" smooth="yes"/>
      <point x="419" y="40"/>
      <point x="422" y="-2"/>
      <point x="462" y="-2" type="curve" smooth="yes"/>
      <point x="486" y="-2" type="line" smooth="yes"/>
      <point x="504" y="-2"/>
      <point x="512" y="8"/>
      <point x="512" y="23" type="curve" smooth="yes"/>
      <point x="512" y="48"/>
      <point x="503" y="86"/>
      <point x="503" y="154" type="curve" smooth="yes"/>
      <point x="503" y="451" type="line"/>
      <point x="558" y="451" type="line" smooth="yes"/>
      <point x="576" y="451"/>
      <point x="587" y="455"/>
      <point x="589" y="473" type="curve" smooth="yes"/>
      <point x="592" y="499"/>
      <point x="592" y="502"/>
      <point x="592" y="504" type="curve" smooth="yes"/>
      <point x="592" y="519"/>
      <point x="583" y="523"/>
      <point x="568" y="523" type="curve" smooth="yes"/>
    </contour>
  </outline>
</glyph>
<glyph name="endash" format="1">
  <advance width="500"/>
  <unicode hex="2013"/>
  <outline>
    <contour>
      <point x="20" y="300" type="line" smooth="yes"/>
      <point x="6" y="300"/>
      <point x="0" y="291"/>
      <point x="0" y="270" type="curve" smooth="yes"/>
      <point x="0" y="260" type="line" smooth="yes"/>
      <point x="0" y="239"/>
      <point x="6" y="230"/>
      <point x="20" y="230" type="curve"/>
      <point x="480" y="230" type="line" smooth="yes"/>
      <point x="494" y="230"/>
      <point x="500" y="239"/>
      <point x="500" y="260" type="curve" smooth="yes"/>
      <point x="500" y="270" type="line" smooth="yes"/>
      <point x="500" y="291"/>
      <point x="494" y="300"/>
      <point x="480" y="300" type="curve" smooth="yes"/>
    </contour>
  </outline>
</glyph>
<glyph name="bullet" format="1">
  <advance width="336"/>
  <unicode hex="2022"/>
  <outline>
    <contour>
      <point x="97" y="452"/>
      <point x="42" y="396"/>
      <point x="42" y="326" type="curve" smooth="yes"/>
      <point x="42" y="256"/>
      <point x="97" y="201"/>
      <point x="167" y="201" type="curve" smooth="yes"/>
      <point x="237" y="201"/>
      <point x="293" y="256"/>
      <point x="293" y="326" type="curve" smooth="yes"/>
      <point x="293" y="396"/>
      <point x="237" y="452"/>
      <point x="167" y="452" type="curve" smooth="yes"/>
    </contour>
  </outline>
</glyph>
<glyph name="fraction" format="1">
  <advance width="264"/>
  <unicode hex="2044"/>
  <outline>
    <contour>
      <point x="323" y="703" type="line" smooth="yes"/>
      <point x="306" y="703"/>
      <point x="296" y="695"/>
      <point x="288" y="680" type="curve" smooth="yes"/>
      <point x="-73" y="32" type="line"/>
      <point x="-75" y="27"/>
      <point x="-76" y="22"/>
      <point x="-76" y="17" type="curve" smooth="yes"/>
      <point x="-76" y="5"/>
      <point x="-67" y="-3"/>
      <point x="-50" y="-3" type="curve" smooth="yes"/>
      <point x="-46" y="-3" type="line" smooth="yes"/>
      <point x="-29" y="-3"/>
      <point x="-21" y="5"/>
      <point x="-13" y="20" type="curve"/>
      <point x="348" y="668" type="line"/>
      <point x="350" y="673"/>
      <point x="351" y="678"/>
      <point x="351" y="683" type="curve" smooth="yes"/>
      <point x="351" y="695"/>
      <point x="344" y="703"/>
      <point x="327" y="703" type="curve" smooth="yes"/>
    </contour>
  </outline>
</glyph>
<glyph name="Euro" format="1">
  <advance width="600"/>
  <unicode hex="20AC"/>
  <outline>
    <contour>
      <point x="212" y="706"/>
      <point x="104" y="626"/>
      <point x="77" y="463" type="curve"/>
      <point x="20" y="463" type="line" smooth="yes"/>
      <point x="6" y="463"/>
      <point x="0" y="454"/>
      <point x="0" y="433" type="curve" smooth="yes"/>
      <point x="0" y="426" type="line" smooth="yes"/>
      <point x="0" y="405"/>
      <point x="6" y="396"/>
      <point x="20" y="396" type="curve" smooth="yes"/>
      <point x="69" y="396" type="line"/>
      <point x="68" y="381"/>
      <point x="68" y="366"/>
      <point x="68" y="350" type="curve" smooth="yes"/>
      <point x="68" y="333"/>
      <point x="68" y="318"/>
      <point x="69" y="303" type="curve"/>
      <point x="20" y="303" type="line" smooth="yes"/>
      <point x="6" y="303"/>
      <point x="0" y="294"/>
      <point x="0" y="273" type="curve" smooth="yes"/>
      <point x="0" y="266" type="line" smooth="yes"/>
      <point x="0" y="245"/>
      <point x="6" y="236"/>
      <point x="20" y="236" type="curve"/>
      <point x="75" y="236" type="line"/>
      <point x="100" y="71"/>
      <point x="198" y="-6"/>
      <point x="363" y="-6" type="curve" smooth="yes"/>
      <point x="468" y="-6"/>
      <point x="550" y="39"/>
      <point x="550" y="66" type="curve" smooth="yes"/>
      <point x="550" y="77"/>
      <point x="528" y="116"/>
      <point x="515" y="116" type="curve" smooth="yes"/>
      <point x="504" y="116"/>
      <point x="450" y="66"/>
      <point x="355" y="66" type="curve" smooth="yes"/>
      <point x="264" y="66"/>
      <point x="189" y="115"/>
      <point x="166" y="236" type="curve"/>
      <point x="444" y="236" type="line" smooth="yes"/>
      <point x="458" y="236"/>
      <point x="464" y="245"/>
      <point x="464" y="266" type="curve" smooth="yes"/>
      <point x="464" y="273" type="line" smooth="yes"/>
      <point x="464" y="294"/>
      <point x="458" y="303"/>
      <point x="444" y="303" type="curve" smooth="yes"/>
      <point x="158" y="303" type="line"/>
      <point x="157" y="317"/>
      <point x="157" y="333"/>
      <point x="157" y="349" type="curve" smooth="yes"/>
      <point x="157" y="365"/>
      <point x="157" y="381"/>
      <point x="158" y="396" type="curve"/>
      <point x="444" y="396" type="line" smooth="yes"/>
      <point x="458" y="396"/>
      <point x="464" y="405"/>
      <point x="464" y="426" type="curve" smooth="yes"/>
      <point x="464" y="433" type="line" smooth="yes"/>
      <point x="464" y="454"/>
      <point x="458" y="463"/>
      <point x="444" y="463" type="curve" smooth="yes"/>
      <point x="166" y="463" type="line"/>
      <point x="189" y="587"/>
      <point x="258" y="634"/>
      <point x="363" y="634" type="curve" smooth="yes"/>
      <point x="449" y="634"/>
      <point x="493" y="590"/>
      <point x="502" y="590" type="curve" smooth="yes"/>
      <point x="515" y="590"/>
      <point x="536" y="628"/>
      <point x="536" y="644" type="curve" smooth="yes"/>
      <point x="536" y="671"/>
      <point x="454" y="706"/>
      <point x="365" y="706" type="curve" smooth="yes"/>
    </contour>
  </outline>
</glyph>
<glyph name="uni20B2" format="1">
  <advance width="672"/>
  <unicode hex="20B2"/>
  <outline>
    <contour>
      <point x="350" y="707" type="line"/>
      <point x="350" y="738" type="line" smooth="yes"/>
      <point x="350" y="759"/>
      <point x="341" y="768"/>
      <point x="320" y="768" type="curve" smooth="yes"/>
      <point x="302" y="768"/>
      <point x="293" y="759"/>
      <point x="293" y="738" type="curve" smooth="yes"/>
      <point x="293" y="706" type="line"/>
      <point x="293" y="-7" type="line"/>
      <point x="293" y="-51" type="line" smooth="yes"/>
      <point x="293" y="-72"/>
      <point x="302" y="-81"/>
      <point x="323" y="-81" type="curve" smooth="yes"/>
      <point x="341" y="-81"/>
      <point x="350" y="-72"/>
      <point x="350" y="-51" type="curve" smooth="yes"/>
      <point x="350" y="-6" type="line"/>
    </contour>
    <contour>
      <point x="172" y="706"/>
      <point x="57" y="593"/>
      <point x="57" y="344" type="curve" smooth="yes"/>
      <point x="57" y="106"/>
      <point x="167" y="-6"/>
      <point x="366" y="-6" type="curve" smooth="yes"/>
      <point x="480" y="-6"/>
      <point x="589" y="10"/>
      <point x="589" y="66" type="curve" smooth="yes"/>
      <point x="589" y="331" type="line" smooth="yes"/>
      <point x="589" y="352"/>
      <point x="580" y="361"/>
      <point x="559" y="361" type="curve" smooth="yes"/>
      <point x="424" y="361" type="line" smooth="yes"/>
      <point x="410" y="361"/>
      <point x="404" y="352"/>
      <point x="404" y="331" type="curve" smooth="yes"/>
      <point x="404" y="315" type="line" smooth="yes"/>
      <point x="404" y="294"/>
      <point x="410" y="285"/>
      <point x="424" y="285" type="curve" smooth="yes"/>
      <point x="501" y="285" type="line"/>
      <point x="501" y="83" type="line"/>
      <point x="474" y="76"/>
      <point x="424" y="70"/>
      <point x="372" y="70" type="curve" smooth="yes"/>
      <point x="194" y="70"/>
      <point x="148" y="200"/>
      <point x="148" y="353" type="curve" smooth="yes"/>
      <point x="148" y="527"/>
      <point x="206" y="630"/>
      <point x="383" y="630" type="curve" smooth="yes"/>
      <point x="479" y="630"/>
      <point x="527" y="586"/>
      <point x="538" y="586" type="curve" smooth="yes"/>
      <point x="551" y="586"/>
      <point x="572" y="627"/>
      <point x="572" y="644" type="curve" smooth="yes"/>
      <point x="572" y="671"/>
      <point x="480" y="706"/>
      <point x="381" y="706" type="curve" smooth="yes"/>
    </contour>
  </outline>
</glyph>
<glyph name="uni2113" format="1">
  <advance width="400"/>
  <unicode hex="2113"/>
  <outline>
    <contour>
      <point x="166" y="290" type="line"/>
      <point x="277" y="372"/>
      <point x="352" y="506"/>
      <point x="352" y="620" type="curve" smooth="yes"/>
      <point x="352" y="697"/>
      <point x="318" y="755"/>
      <point x="239" y="755" type="curve" smooth="yes"/>
      <point x="165" y="755"/>
      <point x="82" y="725"/>
      <point x="82" y="427" type="curve" smooth="yes"/>
      <point x="82" y="309" type="line"/>
      <point x="61" y="293"/>
      <point x="40" y="278"/>
      <point x="19" y="264" type="curve" smooth="yes"/>
      <point x="1" y="249"/>
      <point x="-3" y="231"/>
      <point x="8" y="215" type="curve" smooth="yes"/>
      <point x="25" y="190"/>
      <point x="33" y="191"/>
      <point x="49" y="202" type="curve" smooth="yes"/>
      <point x="82" y="225" type="line"/>
      <point x="82" y="132" type="line" smooth="yes"/>
      <point x="82" y="16"/>
      <point x="161" y="-6"/>
      <point x="211" y="-6" type="curve" smooth="yes"/>
      <point x="250" y="-6"/>
      <point x="314" y="-2"/>
      <point x="314" y="34" type="curve" smooth="yes"/>
      <point x="314" y="42"/>
      <point x="307" y="81"/>
      <point x="293" y="81" type="curve" smooth="yes"/>
      <point x="278" y="81"/>
      <point x="270" y="66"/>
      <point x="220" y="66" type="curve" smooth="yes"/>
      <point x="191" y="66"/>
      <point x="166" y="80"/>
      <point x="166" y="140" type="curve" smooth="yes"/>
    </contour>
    <contour>
      <point x="272" y="683"/>
      <point x="284" y="652"/>
      <point x="284" y="608" type="curve" smooth="yes"/>
      <point x="284" y="533"/>
      <point x="235" y="436"/>
      <point x="167" y="371" type="curve"/>
      <point x="167" y="671"/>
      <point x="226" y="683"/>
      <point x="242" y="683" type="curve" smooth="yes"/>
    </contour>
  </outline>
</glyph>
<glyph name="uni2153" format="1">
  <advance width="746"/>
  <unicode hex="2153"/>
  <outline>
    <contour>
      <point x="530" y="703" type="line" smooth="yes"/>
      <point x="516" y="703"/>
      <point x="507" y="698"/>
      <point x="500" y="686" type="curve" smooth="yes"/>
      <point x="94" y="15" type="line" smooth="yes"/>
      <point x="91" y="11"/>
      <point x="90" y="7"/>
      <point x="90" y="5" type="curve" smooth="yes"/>
      <point x="90" y="0"/>
      <point x="95" y="-2"/>
      <point x="104" y="-2" type="curve" smooth="yes"/>
      <point x="117" y="-2" type="line" smooth="yes"/>
      <point x="131" y="-2"/>
      <point x="140" y="3"/>
      <point x="147" y="15" type="curve" smooth="yes"/>
      <point x="553" y="686" type="line" smooth="yes"/>
      <point x="555" y="690"/>
      <point x="557" y="693"/>
      <point x="557" y="696" type="curve" smooth="yes"/>
      <point x="557" y="701"/>
      <point x="552" y="703"/>
      <point x="543" y="703" type="curve" smooth="yes"/>
    </contour>
    <contour>
      <point x="51" y="674" type="line" smooth="yes"/>
      <point x="44" y="672"/>
      <point x="41" y="669"/>
      <point x="41" y="663" type="curve" smooth="yes"/>
      <point x="41" y="652"/>
      <point x="44" y="633"/>
      <point x="53" y="633" type="curve"/>
      <point x="127" y="649" type="line"/>
      <point x="127" y="311" type="line" smooth="yes"/>
      <point x="127" y="301"/>
      <point x="138" y="297"/>
      <point x="148" y="297" type="curve"/>
      <point x="153" y="297" type="line" smooth="yes"/>
      <point x="163" y="297"/>
      <point x="175" y="301"/>
      <point x="175" y="311" type="curve" smooth="yes"/>
      <point x="175" y="690" type="line" smooth="yes"/>
      <point x="175" y="697"/>
      <point x="166" y="702"/>
      <point x="157" y="702" type="curve"/>
    </contour>
    <contour>
      <point x="528" y="407"/>
      <point x="460" y="394"/>
      <point x="460" y="376" type="curve" smooth="yes"/>
      <point x="460" y="367"/>
      <point x="472" y="346"/>
      <point x="479" y="346" type="curve" smooth="yes"/>
      <point x="489" y="346"/>
      <point x="510" y="365"/>
      <point x="562" y="365" type="curve" smooth="yes"/>
      <point x="618" y="365"/>
      <point x="631" y="331"/>
      <point x="631" y="309" type="curve" smooth="yes"/>
      <point x="631" y="282"/>
      <point x="614" y="234"/>
      <point x="554" y="234" type="curve" smooth="yes"/>
      <point x="538" y="234" type="line" smooth="yes"/>
      <point x="530" y="234"/>
      <point x="526" y="228"/>
      <point x="526" y="216" type="curve" smooth="yes"/>
      <point x="526" y="210" type="line" smooth="yes"/>
      <point x="526" y="198"/>
      <point x="530" y="192"/>
      <point x="538" y="192" type="curve" smooth="yes"/>
      <point x="556" y="192" type="line" smooth="yes"/>
      <point x="608" y="192"/>
      <point x="643" y="175"/>
      <point x="643" y="115" type="curve" smooth="yes"/>
      <point x="643" y="53"/>
      <point x="594" y="36"/>
      <point x="559" y="36" type="curve" smooth="yes"/>
      <point x="509" y="36"/>
      <point x="479" y="56"/>
      <point x="468" y="56" type="curve" smooth="yes"/>
      <point x="462" y="56"/>
      <point x="448" y="38"/>
      <point x="448" y="27" type="curve" smooth="yes"/>
      <point x="448" y="13"/>
      <point x="497" y="-6"/>
      <point x="564" y="-6" type="curve" smooth="yes"/>
      <point x="622" y="-6"/>
      <point x="694" y="26"/>
      <point x="694" y="115" type="curve" smooth="yes"/>
      <point x="694" y="176"/>
      <point x="656" y="212"/>
      <point x="621" y="221" type="curve"/>
      <point x="621" y="225" type="line"/>
      <point x="652" y="238"/>
      <point x="681" y="264"/>
      <point x="681" y="304" type="curve" smooth="yes"/>
      <point x="681" y="373"/>
      <point x="632" y="407"/>
      <point x="563" y="407" type="curve" smooth="yes"/>
    </contour>
  </outline>
</glyph>
<glyph name="oneeighth" format="1">
  <advance width="746"/>
  <unicode hex="215B"/>
  <outline>
    <contour>
      <point x="530" y="703" type="line" smooth="yes"/>
      <point x="516" y="703"/>
      <point x="507" y="698"/>
      <point x="500" y="686" type="curve" smooth="yes"/>
      <point x="94" y="15" type="line" smooth="yes"/>
      <point x="91" y="11"/>
      <point x="90" y="7"/>
      <point x="90" y="5" type="curve" smooth="yes"/>
      <point x="90" y="0"/>
      <point x="95" y="-2"/>
      <point x="104" y="-2" type="curve" smooth="yes"/>
      <point x="117" y="-2" type="line" smooth="yes"/>
      <point x="131" y="-2"/>
      <point x="140" y="3"/>
      <point x="147" y="15" type="curve" smooth="yes"/>
      <point x="553" y="686" type="line" smooth="yes"/>
      <point x="555" y="690"/>
      <point x="557" y="693"/>
      <point x="557" y="696" type="curve" smooth="yes"/>
      <point x="557" y="701"/>
      <point x="552" y="703"/>
      <point x="543" y="703" type="curve" smooth="yes"/>
    </contour>
    <contour>
      <point x="51" y="674" type="line" smooth="yes"/>
      <point x="44" y="672"/>
      <point x="41" y="669"/>
      <point x="41" y="663" type="curve" smooth="yes"/>
      <point x="41" y="652"/>
      <point x="44" y="633"/>
      <point x="53" y="633" type="curve"/>
      <point x="127" y="649" type="line"/>
      <point x="127" y="311" type="line" smooth="yes"/>
      <point x="127" y="301"/>
      <point x="138" y="297"/>
      <point x="148" y="297" type="curve"/>
      <point x="153" y="297" type="line" smooth="yes"/>
      <point x="163" y="297"/>
      <point x="175" y="301"/>
      <point x="175" y="311" type="curve" smooth="yes"/>
      <point x="175" y="690" type="line" smooth="yes"/>
      <point x="175" y="697"/>
      <point x="166" y="702"/>
      <point x="157" y="702" type="curve"/>
    </contour>
    <component base="eight" xOffset="405" xScale="0.59" yScale="0.59"/>
  </outline>
</glyph>
<glyph name="product" format="1">
  <advance width="750"/>
  <unicode hex="220F"/>
  <outline>
    <contour>
      <point x="44" y="700" type="line" smooth="yes"/>
      <point x="30" y="700"/>
      <point x="24" y="691"/>
      <point x="24" y="670" type="curve" smooth="yes"/>
      <point x="24" y="658" type="line" smooth="yes"/>
      <point x="24" y="637"/>
      <point x="30" y="628"/>
      <point x="44" y="628" type="curve" smooth="yes"/>
      <point x="147" y="628" type="line"/>
      <point x="147" y="-82" type="line" smooth="yes"/>
      <point x="147" y="-96"/>
      <point x="159" y="-104"/>
      <point x="187" y="-104" type="curve" smooth="yes"/>
      <point x="193" y="-104" type="line" smooth="yes"/>
      <point x="221" y="-104"/>
      <point x="233" y="-96"/>
      <point x="233" y="-82" type="curve" smooth="yes"/>
      <point x="233" y="628" type="line"/>
      <point x="516" y="628" type="line"/>
      <point x="516" y="-82" type="line" smooth="yes"/>
      <point x="516" y="-96"/>
      <point x="528" y="-104"/>
      <point x="556" y="-104" type="curve" smooth="yes"/>
      <point x="562" y="-104" type="line" smooth="yes"/>
      <point x="590" y="-104"/>
      <point x="602" y="-96"/>
      <point x="602" y="-82" type="curve" smooth="yes"/>
      <point x="602" y="628" type="line"/>
      <point x="705" y="628" type="line" smooth="yes"/>
      <point x="719" y="628"/>
      <point x="725" y="637"/>
      <point x="725" y="658" type="curve" smooth="yes"/>
      <point x="725" y="670" type="line" smooth="yes"/>
      <point x="725" y="691"/>
      <point x="719" y="700"/>
      <point x="705" y="700" type="curve" smooth="yes"/>
    </contour>
  </outline>
</glyph>
<glyph name="summation" format="1">
  <advance width="593"/>
  <unicode hex="2211"/>
  <outline>
    <contour>
      <point x="65" y="700" type="line" smooth="yes"/>
      <point x="46" y="700"/>
      <point x="35" y="692"/>
      <point x="35" y="676" type="curve"/>
      <point x="35" y="674" type="line"/>
      <point x="35" y="660"/>
      <point x="38" y="649"/>
      <point x="47" y="638" type="curve" smooth="yes"/>
      <point x="299" y="300" type="line"/>
      <point x="36" y="-36" type="line" smooth="yes"/>
      <point x="27" y="-47"/>
      <point x="23" y="-57"/>
      <point x="23" y="-70" type="curve" smooth="yes"/>
      <point x="23" y="-72" type="line" smooth="yes"/>
      <point x="23" y="-92"/>
      <point x="34" y="-102"/>
      <point x="53" y="-102" type="curve" smooth="yes"/>
      <point x="542" y="-102" type="line" smooth="yes"/>
      <point x="562" y="-102"/>
      <point x="572" y="-92"/>
      <point x="572" y="-72" type="curve" smooth="yes"/>
      <point x="572" y="-47" type="line" smooth="yes"/>
      <point x="572" y="-28"/>
      <point x="562" y="-17"/>
      <point x="542" y="-17" type="curve" smooth="yes"/>
      <point x="146" y="-17" type="line"/>
      <point x="145" y="-13" type="line"/>
      <point x="381" y="290" type="line" smooth="yes"/>
      <point x="387" y="297"/>
      <point x="389" y="304"/>
      <point x="389" y="311" type="curve" smooth="yes"/>
      <point x="389" y="318"/>
      <point x="387" y="325"/>
      <point x="381" y="332" type="curve" smooth="yes"/>
      <point x="166" y="624" type="line"/>
      <point x="166" y="628" type="line"/>
      <point x="524" y="628" type="line" smooth="yes"/>
      <point x="544" y="628"/>
      <point x="554" y="639"/>
      <point x="554" y="658" type="curve" smooth="yes"/>
      <point x="554" y="670" type="line" smooth="yes"/>
      <point x="554" y="690"/>
      <point x="544" y="700"/>
      <point x="524" y="700" type="curve" smooth="yes"/>
    </contour>
  </outline>
</glyph>
<glyph name="radical" format="1">
  <advance width="618"/>
  <unicode hex="221A"/>
  <outline>
    <contour>
      <point x="583" y="813" type="line" smooth="yes"/>
      <point x="561" y="813"/>
      <point x="547" y="805"/>
      <point x="544" y="792" type="curve" smooth="yes"/>
      <point x="358" y="31" type="line"/>
      <point x="353" y="11"/>
      <point x="347" y="-18"/>
      <point x="343" y="-38" type="curve"/>
      <point x="341" y="-38" type="line"/>
      <point x="336" y="-18"/>
      <point x="330" y="6"/>
      <point x="320" y="34" type="curve"/>
      <point x="203" y="359" type="line"/>
      <point x="198" y="373"/>
      <point x="191" y="380"/>
      <point x="181" y="380" type="curve" smooth="yes"/>
      <point x="171" y="380"/>
      <point x="95" y="348"/>
      <point x="50" y="331" type="curve" smooth="yes"/>
      <point x="40" y="327"/>
      <point x="36" y="321"/>
      <point x="36" y="313" type="curve" smooth="yes"/>
      <point x="36" y="310"/>
      <point x="36" y="307"/>
      <point x="44" y="285" type="curve" smooth="yes"/>
      <point x="47" y="275"/>
      <point x="53" y="272"/>
      <point x="60" y="272" type="curve" smooth="yes"/>
      <point x="67" y="272"/>
      <point x="68" y="273"/>
      <point x="128" y="296" type="curve"/>
      <point x="290" y="-129" type="line" smooth="yes"/>
      <point x="295" y="-143"/>
      <point x="308" y="-150"/>
      <point x="327" y="-150" type="curve" smooth="yes"/>
      <point x="357" y="-150" type="line" smooth="yes"/>
      <point x="374" y="-150"/>
      <point x="389" y="-142"/>
      <point x="392" y="-129" type="curve" smooth="yes"/>
      <point x="624" y="792" type="line" smooth="yes"/>
      <point x="625" y="795"/>
      <point x="625" y="797"/>
      <point x="625" y="800" type="curve" smooth="yes"/>
      <point x="625" y="807"/>
      <point x="616" y="813"/>
      <point x="595" y="813" type="curve" smooth="yes"/>
    </contour>
  </outline>
</glyph>
<glyph name="infinity" format="1">
  <advance width="788"/>
  <unicode hex="221E"/>
  <outline>
    <contour>
      <point x="496" y="444"/>
      <point x="451" y="381"/>
      <point x="398" y="328" type="curve"/>
      <point x="346" y="392"/>
      <point x="289" y="444"/>
      <point x="212" y="444" type="curve" smooth="yes"/>
      <point x="119" y="444"/>
      <point x="49" y="375"/>
      <point x="49" y="278" type="curve" smooth="yes"/>
      <point x="49" y="184"/>
      <point x="121" y="115"/>
      <point x="204" y="115" type="curve" smooth="yes"/>
      <point x="286" y="115"/>
      <point x="341" y="171"/>
      <point x="393" y="233" type="curve"/>
      <point x="463" y="148"/>
      <point x="519" y="115"/>
      <point x="578" y="115" type="curve" smooth="yes"/>
      <point x="660" y="115"/>
      <point x="738" y="180"/>
      <point x="738" y="284" type="curve" smooth="yes"/>
      <point x="738" y="379"/>
      <point x="674" y="444"/>
      <point x="583" y="444" type="curve" smooth="yes"/>
    </contour>
    <contour>
      <point x="272" y="387"/>
      <point x="324" y="332"/>
      <point x="361" y="276" type="curve"/>
      <point x="325" y="232"/>
      <point x="273" y="175"/>
      <point x="212" y="175" type="curve" smooth="yes"/>
      <point x="152" y="175"/>
      <point x="111" y="222"/>
      <point x="111" y="278" type="curve" smooth="yes"/>
      <point x="111" y="339"/>
      <point x="149" y="387"/>
      <point x="207" y="387" type="curve" smooth="yes"/>
    </contour>
    <contour>
      <point x="634" y="387"/>
      <point x="675" y="345"/>
      <point x="675" y="278" type="curve" smooth="yes"/>
      <point x="675" y="229"/>
      <point x="641" y="175"/>
      <point x="581" y="175" type="curve" smooth="yes"/>
      <point x="530" y="175"/>
      <point x="493" y="207"/>
      <point x="429" y="282" type="curve"/>
      <point x="480" y="338"/>
      <point x="524" y="387"/>
      <point x="578" y="387" type="curve" smooth="yes"/>
    </contour>
  </outline>
</glyph>
<glyph name="notequal" format="1">
  <advance width="560"/>
  <unicode hex="2260"/>
  <outline>
    <contour>
      <point x="434" y="431" type="line" smooth="yes"/>
      <point x="418" y="431"/>
      <point x="407" y="426"/>
      <point x="397" y="413" type="curve" smooth="yes"/>
      <point x="336" y="338" type="line"/>
      <point x="78" y="338" type="line" smooth="yes"/>
      <point x="59" y="338"/>
      <point x="48" y="328"/>
      <point x="48" y="308" type="curve" smooth="yes"/>
      <point x="48" y="301" type="line" smooth="yes"/>
      <point x="48" y="282"/>
      <point x="59" y="271"/>
      <point x="78" y="271" type="curve" smooth="yes"/>
      <point x="282" y="271" type="line"/>
      <point x="205" y="175" type="line"/>
      <point x="78" y="175" type="line" smooth="yes"/>
      <point x="59" y="175"/>
      <point x="48" y="165"/>
      <point x="48" y="145" type="curve" smooth="yes"/>
      <point x="48" y="137" type="line" smooth="yes"/>
      <point x="48" y="118"/>
      <point x="59" y="107"/>
      <point x="78" y="107" type="curve" smooth="yes"/>
      <point x="151" y="107" type="line"/>
      <point x="103" y="47" type="line" smooth="yes"/>
      <point x="97" y="40"/>
      <point x="94" y="33"/>
      <point x="94" y="27" type="curve" smooth="yes"/>
      <point x="94" y="17"/>
      <point x="103" y="10"/>
      <point x="120" y="10" type="curve" smooth="yes"/>
      <point x="131" y="10" type="line" smooth="yes"/>
      <point x="147" y="10"/>
      <point x="158" y="15"/>
      <point x="168" y="28" type="curve" smooth="yes"/>
      <point x="232" y="107" type="line"/>
      <point x="482" y="107" type="line" smooth="yes"/>
      <point x="502" y="107"/>
      <point x="512" y="118"/>
      <point x="512" y="137" type="curve" smooth="yes"/>
      <point x="512" y="145" type="line" smooth="yes"/>
      <point x="512" y="165"/>
      <point x="502" y="175"/>
      <point x="482" y="175" type="curve" smooth="yes"/>
      <point x="286" y="175" type="line"/>
      <point x="363" y="271" type="line"/>
      <point x="482" y="271" type="line" smooth="yes"/>
      <point x="502" y="271"/>
      <point x="512" y="282"/>
      <point x="512" y="301" type="curve" smooth="yes"/>
      <point x="512" y="308" type="line" smooth="yes"/>
      <point x="512" y="328"/>
      <point x="502" y="338"/>
      <point x="482" y="338" type="curve" smooth="yes"/>
      <point x="417" y="338" type="line"/>
      <point x="462" y="394" type="line" smooth="yes"/>
      <point x="468" y="401"/>
      <point x="470" y="408"/>
      <point x="470" y="413" type="curve" smooth="yes"/>
      <point x="470" y="424"/>
      <point x="461" y="431"/>
      <point x="445" y="431" type="curve" smooth="yes"/>
    </contour>
  </outline>
</glyph>
<glyph name="lessequal" format="1">
  <advance width="566"/>
  <unicode hex="2264"/>
  <outline>
    <contour>
      <point x="493" y="552"/>
      <point x="488" y="551"/>
      <point x="483" y="549" type="curve" smooth="yes"/>
      <point x="72" y="375" type="line" smooth="yes"/>
      <point x="56" y="368"/>
      <point x="49" y="357"/>
      <point x="49" y="340" type="curve" smooth="yes"/>
      <point x="49" y="323" type="line" smooth="yes"/>
      <point x="49" y="306"/>
      <point x="56" y="295"/>
      <point x="72" y="288" type="curve"/>
      <point x="483" y="114" type="line" smooth="yes"/>
      <point x="488" y="112"/>
      <point x="493" y="111"/>
      <point x="498" y="111" type="curve" smooth="yes"/>
      <point x="510" y="111"/>
      <point x="518" y="120"/>
      <point x="518" y="137" type="curve" smooth="yes"/>
      <point x="518" y="151" type="line" smooth="yes"/>
      <point x="518" y="168"/>
      <point x="511" y="179"/>
      <point x="495" y="186" type="curve" smooth="yes"/>
      <point x="139" y="332" type="line"/>
      <point x="495" y="477" type="line" smooth="yes"/>
      <point x="511" y="483"/>
      <point x="518" y="495"/>
      <point x="518" y="512" type="curve" smooth="yes"/>
      <point x="518" y="526" type="line" smooth="yes"/>
      <point x="518" y="543"/>
      <point x="510" y="552"/>
      <point x="498" y="552" type="curve" smooth="yes"/>
    </contour>
    <contour>
      <point x="78" y="73" type="line" smooth="yes"/>
      <point x="59" y="73"/>
      <point x="48" y="63"/>
      <point x="48" y="43" type="curve" smooth="yes"/>
      <point x="48" y="30" type="line" smooth="yes"/>
      <point x="48" y="10"/>
      <point x="59" y="0"/>
      <point x="78" y="0" type="curve" smooth="yes"/>
      <point x="488" y="0" type="line" smooth="yes"/>
      <point x="508" y="0"/>
      <point x="518" y="10"/>
      <point x="518" y="30" type="curve" smooth="yes"/>
      <point x="518" y="43" type="line" smooth="yes"/>
      <point x="518" y="63"/>
      <point x="508" y="73"/>
      <point x="488" y="73" type="curve" smooth="yes"/>
    </contour>
  </outline>
</glyph>
<glyph name="uniFB01" format="1">
  <advance width="563"/>
  <unicode hex="FB01"/>
  <outline>
    <contour>
      <point x="187" y="756"/>
      <point x="108" y="737"/>
      <point x="108" y="618" type="curve" smooth="yes"/>
      <point x="108" y="523" type="line"/>
      <point x="68" y="523" type="line" smooth="yes"/>
      <point x="54" y="523"/>
      <point x="48" y="514"/>
      <point x="48" y="493" type="curve" smooth="yes"/>
      <point x="48" y="481" type="line" smooth="yes"/>
      <point x="48" y="460"/>
      <point x="54" y="451"/>
      <point x="68" y="451" type="curve" smooth="yes"/>
      <point x="108" y="451" type="line"/>
      <point x="108" y="20" type="line" smooth="yes"/>
      <point x="108" y="6"/>
      <point x="120" y="-2"/>
      <point x="148" y="-2" type="curve" smooth="yes"/>
      <point x="152" y="-2" type="line" smooth="yes"/>
      <point x="180" y="-2"/>
      <point x="192" y="6"/>
      <point x="192" y="20" type="curve" smooth="yes"/>
      <point x="192" y="451" type="line"/>
      <point x="279" y="451" type="line" smooth="yes"/>
      <point x="293" y="451"/>
      <point x="299" y="460"/>
      <point x="299" y="481" type="curve" smooth="yes"/>
      <point x="299" y="493" type="line" smooth="yes"/>
      <point x="299" y="514"/>
      <point x="293" y="523"/>
      <point x="279" y="523" type="curve" smooth="yes"/>
      <point x="192" y="523" type="line"/>
      <point x="192" y="610" type="line" smooth="yes"/>
      <point x="192" y="676"/>
      <point x="217" y="684"/>
      <point x="246" y="684" type="curve" smooth="yes"/>
      <point x="275" y="684"/>
      <point x="280" y="679"/>
      <point x="289" y="679" type="curve" smooth="yes"/>
      <point x="303" y="679"/>
      <point x="310" y="718"/>
      <point x="310" y="726" type="curve" smooth="yes"/>
      <point x="310" y="753"/>
      <point x="264" y="756"/>
      <point x="237" y="756" type="curve" smooth="yes"/>
    </contour>
    <contour>
      <point x="429" y="525" type="line" smooth="yes"/>
      <point x="401" y="525"/>
      <point x="389" y="517"/>
      <point x="389" y="503" type="curve" smooth="yes"/>
      <point x="389" y="20" type="line" smooth="yes"/>
      <point x="389" y="6"/>
      <point x="401" y="-2"/>
      <point x="429" y="-2" type="curve" smooth="yes"/>
      <point x="433" y="-2" type="line" smooth="yes"/>
      <point x="461" y="-2"/>
      <point x="473" y="6"/>
      <point x="473" y="20" type="curve" smooth="yes"/>
      <point x="473" y="503" type="line" smooth="yes"/>
      <point x="473" y="517"/>
      <point x="461" y="525"/>
      <point x="433" y="525" type="curve" smooth="yes"/>
    </contour>
    <contour>
      <point x="425" y="752" type="line" smooth="yes"/>
      <point x="397" y="752"/>
      <point x="385" y="744"/>
      <point x="385" y="730" type="curve" smooth="yes"/>
      <point x="385" y="671" type="line" smooth="yes"/>
      <point x="385" y="657"/>
      <point x="397" y="649"/>
      <point x="425" y="649" type="curve"/>
      <point x="437" y="649" type="line" smooth="yes"/>
      <point x="465" y="649"/>
      <point x="477" y="657"/>
      <point x="477" y="671" type="curve" smooth="yes"/>
      <point x="477" y="730" type="line" smooth="yes"/>
      <point x="477" y="744"/>
      <point x="465" y="752"/>
      <point x="437" y="752" type="curve" smooth="yes"/>
    </contour>
  </outline>
</glyph>
<glyph name="uniFB02" format="1">
  <advance width="591"/>
  <unicode hex="FB02"/>
  <outline>
    <contour>
      <point x="187" y="756"/>
      <point x="108" y="737"/>
      <point x="108" y="618" type="curve" smooth="yes"/>
      <point x="108" y="523" type="line"/>
      <point x="68" y="523" type="line" smooth="yes"/>
      <point x="54" y="523"/>
      <point x="48" y="514"/>
      <point x="48" y="493" type="curve" smooth="yes"/>
      <point x="48" y="481" type="line" smooth="yes"/>
      <point x="48" y="460"/>
      <point x="54" y="451"/>
      <point x="68" y="451" type="curve" smooth="yes"/>
      <point x="108" y="451" type="line"/>
      <point x="108" y="20" type="line" smooth="yes"/>
      <point x="108" y="6"/>
      <point x="120" y="-2"/>
      <point x="148" y="-2" type="curve" smooth="yes"/>
      <point x="152" y="-2" type="line" smooth="yes"/>
      <point x="180" y="-2"/>
      <point x="192" y="6"/>
      <point x="192" y="20" type="curve" smooth="yes"/>
      <point x="192" y="451" type="line"/>
      <point x="279" y="451" type="line" smooth="yes"/>
      <point x="293" y="451"/>
      <point x="299" y="460"/>
      <point x="299" y="481" type="curve" smooth="yes"/>
      <point x="299" y="493" type="line" smooth="yes"/>
      <point x="299" y="514"/>
      <point x="293" y="523"/>
      <point x="279" y="523" type="curve" smooth="yes"/>
      <point x="192" y="523" type="line"/>
      <point x="192" y="610" type="line" smooth="yes"/>
      <point x="192" y="676"/>
      <point x="217" y="684"/>
      <point x="246" y="684" type="curve" smooth="yes"/>
      <point x="275" y="684"/>
      <point x="280" y="679"/>
      <point x="289" y="679" type="curve" smooth="yes"/>
      <point x="303" y="679"/>
      <point x="310" y="718"/>
      <point x="310" y="726" type="curve" smooth="yes"/>
      <point x="310" y="753"/>
      <point x="264" y="756"/>
      <point x="237" y="756" type="curve" smooth="yes"/>
    </contour>
    <contour>
      <point x="420" y="752" type="line" smooth="yes"/>
      <point x="392" y="752"/>
      <point x="380" y="744"/>
      <point x="380" y="730" type="curve" smooth="yes"/>
      <point x="380" y="132" type="line" smooth="yes"/>
      <point x="380" y="16"/>
      <point x="459" y="-6"/>
      <point x="509" y="-6" type="curve" smooth="yes"/>
      <point x="536" y="-6"/>
      <point x="582" y="-3"/>
      <point x="582" y="24" type="curve" smooth="yes"/>
      <point x="582" y="32"/>
      <point x="575" y="71"/>
      <point x="561" y="71" type="curve" smooth="yes"/>
      <point x="552" y="71"/>
      <point x="547" y="66"/>
      <point x="518" y="66" type="curve" smooth="yes"/>
      <point x="489" y="66"/>
      <point x="464" y="80"/>
      <point x="464" y="140" type="curve" smooth="yes"/>
      <point x="464" y="730" type="line" smooth="yes"/>
      <point x="464" y="744"/>
      <point x="452" y="752"/>
      <point x="424" y="752" type="curve" smooth="yes"/>
    </contour>
  </outline>
</glyph>
<glyph name="Y.loclGUA" format="1">
  <advance width="559"/>
  <outline>
    <contour>
      <point x="445" y="702" type="line" smooth="yes"/>
      <point x="417" y="702"/>
      <point x="405" y="694"/>
      <point x="405" y="680" type="curve" smooth="yes"/>
      <point x="405" y="354" type="line"/>
      <point x="369" y="311"/>
      <point x="318" y="284"/>
      <point x="269" y="284" type="curve" smooth="yes"/>
      <point x="198" y="284"/>
      <point x="157" y="320"/>
      <point x="157" y="381" type="curve" smooth="yes"/>
      <point x="157" y="680" type="line" smooth="yes"/>
      <point x="157" y="694"/>
      <point x="145" y="702"/>
      <point x="117" y="702" type="curve" smooth="yes"/>
      <point x="113" y="702" type="line" smooth="yes"/>
      <point x="85" y="702"/>
      <point x="73" y="694"/>
      <point x="73" y="680" type="curve" smooth="yes"/>
      <point x="73" y="373" type="line" smooth="yes"/>
      <point x="73" y="272"/>
      <point x="138" y="211"/>
      <point x="246" y="211" type="curve" smooth="yes"/>
      <point x="311" y="211"/>
      <point x="377" y="244"/>
      <point x="423" y="298" type="curve"/>
      <point x="405" y="323" type="line"/>
      <point x="405" y="307" type="line"/>
      <point x="407" y="131"/>
      <point x="372" y="64"/>
      <point x="279" y="64" type="curve" smooth="yes"/>
      <point x="157" y="64"/>
      <point x="101" y="108"/>
      <point x="86" y="108" type="curve" smooth="yes"/>
      <point x="82" y="108"/>
      <point x="76" y="104"/>
      <point x="76" y="78" type="curve" smooth="yes"/>
      <point x="76" y="71"/>
      <point x="76" y="63"/>
      <point x="77" y="53" type="curve" smooth="yes"/>
      <point x="81" y="27"/>
      <point x="167" y="-8"/>
      <point x="287" y="-8" type="curve" smooth="yes"/>
      <point x="428" y="-8"/>
      <point x="489" y="64"/>
      <point x="489" y="303" type="curve" smooth="yes"/>
      <point x="489" y="680" type="line" smooth="yes"/>
      <point x="489" y="694"/>
      <point x="477" y="702"/>
      <point x="449" y="702" type="curve" smooth="yes"/>
    </contour>
    <contour>
      <point x="280" y="700" type="move" name="top"/>
    </contour>
    <contour>
      <point x="271" y="0" type="move" name="bottom"/>
    </contour>
  </outline>
</glyph>
<glyph name="acute.alt" format="1">
  <advance width="320"/>
  <outline>
    <contour>
      <point x="162" y="697"/>
      <point x="143" y="690"/>
      <point x="132" y="671" type="curve" smooth="yes"/>
      <point x="94" y="598"/>
      <point x="84" y="579"/>
      <point x="84" y="570" type="curve" smooth="yes"/>
      <point x="84" y="563"/>
      <point x="91" y="560"/>
      <point x="107" y="560" type="curve" smooth="yes"/>
      <point x="124" y="560"/>
      <point x="134" y="566"/>
      <point x="143" y="578" type="curve" smooth="yes"/>
      <point x="209" y="666"/>
      <point x="217" y="674"/>
      <point x="217" y="684" type="curve" smooth="yes"/>
      <point x="217" y="694"/>
      <point x="208" y="697"/>
      <point x="186" y="697" type="curve" smooth="yes"/>
    </contour>
    <contour>
      <point x="127" y="700" type="move" name="top"/>
    </contour>
    <contour>
      <point x="117" y="565" type="move" name="_top"/>
    </contour>
  </outline>
</glyph>
<glyph name="acute.loclPLK" format="1">
  <advance width="320"/>
  <outline>
    <contour>
      <point x="142" y="732"/>
      <point x="118" y="727"/>
      <point x="112" y="706" type="curve" smooth="yes"/>
      <point x="90" y="626"/>
      <point x="84" y="605"/>
      <point x="84" y="595" type="curve" smooth="yes"/>
      <point x="84" y="588"/>
      <point x="91" y="585"/>
      <point x="107" y="585" type="curve" smooth="yes"/>
      <point x="128" y="585"/>
      <point x="150" y="590"/>
      <point x="158" y="603" type="curve" smooth="yes"/>
      <point x="210" y="688"/>
      <point x="222" y="708"/>
      <point x="222" y="719" type="curve" smooth="yes"/>
      <point x="222" y="729"/>
      <point x="206" y="732"/>
      <point x="174" y="732" type="curve" smooth="yes"/>
    </contour>
    <contour>
      <point x="121" y="523" type="move" name="_top"/>
    </contour>
  </outline>
</glyph>
<glyph name="baraccentlong" format="1">
  <advance width="517"/>
  <outline>
    <contour>
      <point x="-33" y="355" type="line" smooth="yes"/>
      <point x="-47" y="355"/>
      <point x="-53" y="346"/>
      <point x="-53" y="325" type="curve" smooth="yes"/>
      <point x="-53" y="315" type="line" smooth="yes"/>
      <point x="-53" y="294"/>
      <point x="-47" y="285"/>
      <point x="-33" y="285" type="curve"/>
      <point x="550" y="285" type="line" smooth="yes"/>
      <point x="564" y="285"/>
      <point x="570" y="294"/>
      <point x="570" y="315" type="curve" smooth="yes"/>
      <point x="570" y="325" type="line" smooth="yes"/>
      <point x="570" y="346"/>
      <point x="564" y="355"/>
      <point x="550" y="355" type="curve" smooth="yes"/>
    </contour>
    <contour>
      <point x="266" y="317" type="move" name="_center"/>
    </contour>
  </outline>
</glyph>
<glyph name="breve.alt" format="1">
  <advance width="320"/>
  <outline>
    <contour>
      <point x="270" y="704"/>
      <point x="275" y="693"/>
      <point x="265" y="679" type="curve" smooth="yes"/>
      <point x="250" y="659"/>
      <point x="207" y="637"/>
      <point x="158" y="637" type="curve" smooth="yes"/>
      <point x="109" y="637"/>
      <point x="65" y="661"/>
      <point x="50" y="679" type="curve" smooth="yes"/>
      <point x="38" y="693"/>
      <point x="45" y="704"/>
      <point x="28" y="704" type="curve" smooth="yes"/>
      <point x="17" y="704"/>
      <point x="13" y="699"/>
      <point x="13" y="689" type="curve" smooth="yes"/>
      <point x="13" y="622"/>
      <point x="86" y="585"/>
      <point x="158" y="585" type="curve" smooth="yes"/>
      <point x="229" y="585"/>
      <point x="302" y="622"/>
      <point x="302" y="689" type="curve" smooth="yes"/>
      <point x="302" y="699"/>
      <point x="298" y="704"/>
      <point x="287" y="704" type="curve" smooth="yes"/>
    </contour>
    <contour>
      <point x="158" y="721" type="move" name="tilde"/>
    </contour>
    <contour>
      <point x="158" y="680" type="move" name="top"/>
    </contour>
    <contour>
      <point x="158" y="523" type="move" name="_top"/>
    </contour>
  </outline>
</glyph>
<glyph name="caron.alt" format="1">
  <advance width="293"/>
  <outline>
    <contour>
      <point x="113" y="700" type="line" smooth="yes"/>
      <point x="86" y="700"/>
      <point x="73" y="687"/>
      <point x="73" y="668" type="curve" smooth="yes"/>
      <point x="73" y="597"/>
      <point x="60" y="562"/>
      <point x="60" y="541" type="curve" smooth="yes"/>
      <point x="60" y="529"/>
      <point x="78" y="526"/>
      <point x="89" y="526" type="curve" smooth="yes"/>
      <point x="113" y="526"/>
      <point x="162" y="582"/>
      <point x="162" y="672" type="curve" smooth="yes"/>
      <point x="162" y="689"/>
      <point x="147" y="700"/>
      <point x="122" y="700" type="curve" smooth="yes"/>
    </contour>
    <contour>
      <point x="11" y="700" type="move" name="_caron"/>
    </contour>
  </outline>
</glyph>
<glyph name="circumflex.alt" format="1">
  <advance width="320"/>
  <outline>
    <contour>
      <point x="144" y="718" type="line" smooth="yes"/>
      <point x="124" y="718"/>
      <point x="108" y="711"/>
      <point x="98" y="696" type="curve" smooth="yes"/>
      <point x="42" y="608" type="line" smooth="yes"/>
      <point x="38" y="601"/>
      <point x="36" y="595"/>
      <point x="36" y="590" type="curve" smooth="yes"/>
      <point x="36" y="581"/>
      <point x="44" y="576"/>
      <point x="59" y="576" type="curve"/>
      <point x="61" y="576" type="line"/>
      <point x="75" y="576"/>
      <point x="85" y="580"/>
      <point x="95" y="589" type="curve"/>
      <point x="156" y="663" type="line"/>
      <point x="204" y="589" type="line" smooth="yes"/>
      <point x="210" y="580"/>
      <point x="224" y="576"/>
      <point x="237" y="576" type="curve"/>
      <point x="239" y="576" type="line"/>
      <point x="255" y="576"/>
      <point x="263" y="582"/>
      <point x="263" y="591" type="curve" smooth="yes"/>
      <point x="263" y="596"/>
      <point x="261" y="602"/>
      <point x="257" y="608" type="curve" smooth="yes"/>
      <point x="205" y="696" type="line" smooth="yes"/>
      <point x="197" y="709"/>
      <point x="185" y="718"/>
      <point x="169" y="718" type="curve" smooth="yes"/>
    </contour>
    <contour>
      <point x="153" y="728" type="move" name="tilde"/>
    </contour>
    <contour>
      <point x="294" y="652" type="move" name="top"/>
    </contour>
    <contour>
      <point x="153" y="523" type="move" name="_top"/>
    </contour>
  </outline>
</glyph>
<glyph name="circumflex.alt2" format="1">
  <advance width="320"/>
  <outline>
    <contour>
      <point x="144" y="694" type="line" smooth="yes"/>
      <point x="124" y="694"/>
      <point x="112" y="685"/>
      <point x="98" y="672" type="curve" smooth="yes"/>
      <point x="42" y="608" type="line" smooth="yes"/>
      <point x="38" y="601"/>
      <point x="36" y="595"/>
      <point x="36" y="590" type="curve" smooth="yes"/>
      <point x="36" y="581"/>
      <point x="44" y="576"/>
      <point x="59" y="576" type="curve" smooth="yes"/>
      <point x="61" y="576" type="line" smooth="yes"/>
      <point x="75" y="576"/>
      <point x="85" y="582"/>
      <point x="95" y="589" type="curve" smooth="yes"/>
      <point x="156" y="639" type="line"/>
      <point x="219" y="589" type="line" smooth="yes"/>
      <point x="230" y="582"/>
      <point x="239" y="576"/>
      <point x="252" y="576" type="curve" smooth="yes"/>
      <point x="254" y="576" type="line" smooth="yes"/>
      <point x="270" y="576"/>
      <point x="278" y="582"/>
      <point x="278" y="591" type="curve" smooth="yes"/>
      <point x="278" y="596"/>
      <point x="276" y="602"/>
      <point x="272" y="608" type="curve" smooth="yes"/>
      <point x="215" y="672" type="line" smooth="yes"/>
      <point x="202" y="685"/>
      <point x="189" y="694"/>
      <point x="169" y="694" type="curve" smooth="yes"/>
    </contour>
    <contour>
      <point x="159" y="721" type="move" name="tilde"/>
    </contour>
    <contour>
      <point x="277" y="660" type="move" name="top"/>
    </contour>
    <contour>
      <point x="157" y="523" type="move" name="_top"/>
    </contour>
  </outline>
</glyph>
<glyph name="commaaccentinvert" format="1">
  <advance width="353"/>
  <outline>
    <component base="uni0326" xOffset="338" yOffset="534" xScale="-1" yScale="-1"/>
    <contour>
      <point x="146" y="523" type="move" name="_top"/>
    </contour>
  </outline>
</glyph>
<glyph name="grave.alt" format="1">
  <advance width="320"/>
  <outline>
    <contour>
      <point x="126" y="697"/>
      <point x="119" y="694"/>
      <point x="119" y="684" type="curve" smooth="yes"/>
      <point x="119" y="674"/>
      <point x="127" y="666"/>
      <point x="183" y="578" type="curve" smooth="yes"/>
      <point x="191" y="566"/>
      <point x="206" y="560"/>
      <point x="219" y="560" type="curve" smooth="yes"/>
      <point x="235" y="560"/>
      <point x="242" y="563"/>
      <point x="242" y="570" type="curve" smooth="yes"/>
      <point x="242" y="579"/>
      <point x="235" y="598"/>
      <point x="204" y="671" type="curve" smooth="yes"/>
      <point x="196" y="690"/>
      <point x="174" y="697"/>
      <point x="154" y="697" type="curve" smooth="yes"/>
    </contour>
    <contour>
      <point x="195" y="700" type="move" name="top"/>
    </contour>
    <contour>
      <point x="199" y="565" type="move" name="_top"/>
    </contour>
  </outline>
</glyph>
<glyph name="quotesingle.loclGUA" format="1">
  <advance width="180"/>
  <outline>
    <contour>
      <point x="83" y="700" type="line" smooth="yes"/>
      <point x="56" y="700"/>
      <point x="43" y="687"/>
      <point x="43" y="668" type="curve"/>
      <point x="41" y="411" type="line"/>
      <point x="41" y="399"/>
      <point x="59" y="396"/>
      <point x="70" y="396" type="curve" smooth="yes"/>
      <point x="91" y="397"/>
      <point x="132" y="504"/>
      <point x="132" y="672" type="curve" smooth="yes"/>
      <point x="132" y="689"/>
      <point x="117" y="700"/>
      <point x="92" y="700" type="curve" smooth="yes"/>
    </contour>
  </outline>
</glyph>
<glyph name="tilde.alt" format="1">
  <advance width="366"/>
  <outline>
    <contour>
      <point x="67" y="690"/>
      <point x="40" y="672"/>
      <point x="20" y="621" type="curve" smooth="yes"/>
      <point x="15" y="608"/>
      <point x="15" y="601"/>
      <point x="26" y="596" type="curve" smooth="yes"/>
      <point x="35" y="592" type="line" smooth="yes"/>
      <point x="47" y="587"/>
      <point x="52" y="589"/>
      <point x="61" y="604" type="curve" smooth="yes"/>
      <point x="74" y="626"/>
      <point x="84" y="634"/>
      <point x="99" y="634" type="curve" smooth="yes"/>
      <point x="142" y="634"/>
      <point x="204" y="591"/>
      <point x="260" y="591" type="curve" smooth="yes"/>
      <point x="296" y="591"/>
      <point x="323" y="609"/>
      <point x="343" y="659" type="curve" smooth="yes"/>
      <point x="349" y="674"/>
      <point x="348" y="680"/>
      <point x="336" y="685" type="curve" smooth="yes"/>
      <point x="329" y="688" type="line" smooth="yes"/>
      <point x="318" y="693"/>
      <point x="311" y="691"/>
      <point x="302" y="676" type="curve" smooth="yes"/>
      <point x="289" y="654"/>
      <point x="278" y="647"/>
      <point x="262" y="647" type="curve" smooth="yes"/>
      <point x="219" y="647"/>
      <point x="157" y="690"/>
      <point x="104" y="690" type="curve" smooth="yes"/>
    </contour>
    <contour>
      <point x="183" y="523" type="move" name="_top"/>
    </contour>
    <contour>
      <point x="180" y="580" type="move" name="_tilde"/>
    </contour>
  </outline>
</glyph>
<glyph name="y.loclGUA" format="1">
  <advance width="557"/>
  <outline>
    <contour>
      <point x="427" y="525" type="line" smooth="yes"/>
      <point x="399" y="525"/>
      <point x="387" y="517"/>
      <point x="387" y="503" type="curve" smooth="yes"/>
      <point x="387" y="137" type="line"/>
      <point x="354" y="94"/>
      <point x="306" y="67"/>
      <point x="261" y="67" type="curve" smooth="yes"/>
      <point x="196" y="67"/>
      <point x="159" y="103"/>
      <point x="159" y="164" type="curve" smooth="yes"/>
      <point x="159" y="503" type="line" smooth="yes"/>
      <point x="159" y="517"/>
      <point x="147" y="525"/>
      <point x="119" y="525" type="curve" smooth="yes"/>
      <point x="115" y="525" type="line" smooth="yes"/>
      <point x="87" y="525"/>
      <point x="75" y="517"/>
      <point x="75" y="503" type="curve" smooth="yes"/>
      <point x="75" y="156" type="line" smooth="yes"/>
      <point x="75" y="55"/>
      <point x="136" y="-6"/>
      <point x="238" y="-6" type="curve" smooth="yes"/>
      <point x="299" y="-6"/>
      <point x="363" y="28"/>
      <point x="405" y="83" type="curve"/>
      <point x="388" y="104" type="line"/>
      <point x="388" y="62" type="line"/>
      <point x="388" y="-83"/>
      <point x="339" y="-140"/>
      <point x="252" y="-140" type="curve" smooth="yes"/>
      <point x="148" y="-140"/>
      <point x="101" y="-86"/>
      <point x="89" y="-86" type="curve" smooth="yes"/>
      <point x="85" y="-86"/>
      <point x="79" y="-90"/>
      <point x="79" y="-116" type="curve" smooth="yes"/>
      <point x="79" y="-123"/>
      <point x="79" y="-131"/>
      <point x="80" y="-141" type="curve" smooth="yes"/>
      <point x="84" y="-171"/>
      <point x="158" y="-212"/>
      <point x="260" y="-212" type="curve" smooth="yes"/>
      <point x="403" y="-212"/>
      <point x="471" y="-140"/>
      <point x="471" y="99" type="curve" smooth="yes"/>
      <point x="471" y="503" type="line" smooth="yes"/>
      <point x="471" y="517"/>
      <point x="459" y="525"/>
      <point x="431" y="525" type="curve" smooth="yes"/>
    </contour>
    <contour>
      <point x="279" y="523" type="move" name="top"/>
    </contour>
    <contour>
      <point x="521" y="-61" type="move" name="bottom"/>
    </contour>
  </outline>
</glyph>
